<svg width="58" height="61" viewBox="0 0 58 61" fill="none" xmlns="http://www.w3.org/2000/svg">
<path d="M17.2861 39.8654L25.974 28.2727C25.974 26.7324 4.5 16.4366 4.5 15.707C4.5 15.1233 5.59283 14.1127 6.13924 13.6803L35.7275 17.6527C40.5632 12.4373 50.8085 2.70374 53.1034 5.49249C55.3983 8.28123 47.1748 18.7606 42.7762 23.6518L49.2512 52.512C48.896 53.1065 48.0545 54.3442 47.53 54.5387C46.8743 54.7819 33.6784 34.3528 32.6129 34.1906C31.7605 34.0609 25.0451 40.9463 21.794 44.4052C22.313 48.2154 23.1873 55.8683 22.5316 55.998C21.8759 56.1277 17.0675 49.9989 14.7452 46.9183C11.4121 44.9457 4.86063 40.7734 5.31962 39.8654C5.7786 38.9574 13.4885 39.4871 17.2861 39.8654Z" stroke="#0C2505" stroke-width="4"/>
</svg>
