<svg width="60" height="60" viewBox="0 0 60 60" fill="none" xmlns="http://www.w3.org/2000/svg">
<path d="M50 17.5H10C7.23858 17.5 5 19.7386 5 22.5V47.5C5 50.2614 7.23858 52.5 10 52.5H50C52.7614 52.5 55 50.2614 55 47.5V22.5C55 19.7386 52.7614 17.5 50 17.5Z" stroke="#0C2505" stroke-width="4" stroke-linecap="round" stroke-linejoin="round"/>
<path d="M40 52.5V12.5C40 11.1739 39.4732 9.90215 38.5355 8.96447C37.5979 8.02678 36.3261 7.5 35 7.5H25C23.6739 7.5 22.4021 8.02678 21.4645 8.96447C20.5268 9.90215 20 11.1739 20 12.5V52.5" stroke="#0C2505" stroke-width="4" stroke-linecap="round" stroke-linejoin="round"/>
</svg>
