<svg width="60" height="60" viewBox="0 0 60 60" fill="none" xmlns="http://www.w3.org/2000/svg">
<path d="M11.3536 26H31.7061H52.5V19H4.5V24.0663" stroke="#0C2505" stroke-width="4" stroke-miterlimit="10" stroke-linecap="round" stroke-linejoin="round"/>
<path d="M32.5 26V54H16.5V26" stroke="#0C2505" stroke-width="4" stroke-miterlimit="10" stroke-linecap="round" stroke-linejoin="round"/>
<path d="M31.5 19L24.3698 4L17.5 19" stroke="#0C2505" stroke-width="4" stroke-miterlimit="10" stroke-linecap="round" stroke-linejoin="round"/>
<path d="M22.5 7L4.5 19" stroke="#0C2505" stroke-width="4" stroke-miterlimit="10" stroke-linecap="round" stroke-linejoin="round"/>
<path d="M26.5 7L41.5 13" stroke="#0C2505" stroke-width="4" stroke-miterlimit="10" stroke-linecap="round" stroke-linejoin="round"/>
<path d="M50.6367 27.0371L50.5545 30.449" stroke="#0C2505" stroke-width="4" stroke-miterlimit="10" stroke-linecap="round" stroke-linejoin="round"/>
<path d="M50.5393 40V41.5103C50.5393 41.5103 54.5 42.5811 54.5 45.3538C54.5 48.1266 51.3173 47.9991 50.5393 47.9991C49.7613 47.9991 46.5 48.1266 46.5 44.3404" stroke="#0C2505" stroke-width="4" stroke-miterlimit="10" stroke-linecap="round" stroke-linejoin="round"/>
<path d="M50.5 39C52.7091 39 54.5 37.433 54.5 35.5C54.5 33.567 52.7091 32 50.5 32C48.2909 32 46.5 33.567 46.5 35.5C46.5 37.433 48.2909 39 50.5 39Z" stroke="#0C2505" stroke-width="4" stroke-miterlimit="10" stroke-linecap="round" stroke-linejoin="round"/>
<path d="M16.5 53L32.5 43.1359M16.5 43.1359L32.5 34H16.5" stroke="#0C2505" stroke-width="4" stroke-linecap="round" stroke-linejoin="round"/>
</svg>
