<svg width="60" height="60" viewBox="0 0 60 60" fill="none" xmlns="http://www.w3.org/2000/svg">
<path d="M2.5 37.672C2.5 37.672 6.0962 27.5287 18.5962 30.5487C27.8915 34.2544 27.7237 44 27.7237 44H43.1544C43.1544 44 46.1409 36.9919 52.5 36.9919V30.2605L28.5 23.5L27 9" stroke="#0C2505" stroke-width="4" stroke-miterlimit="10" stroke-linecap="round" stroke-linejoin="round"/>
<path d="M31.5 9H3.5" stroke="#0C2505" stroke-width="4" stroke-miterlimit="10" stroke-linecap="round"/>
<path d="M6.5 32L7.5 9" stroke="#0C2505" stroke-width="4" stroke-miterlimit="10" stroke-linecap="round"/>
<path d="M13.8748 15L13.5 23.1247C13.5 23.1247 19.1901 23.009 20.5 24L20.0116 15H13.8748Z" stroke="#0C2505" stroke-width="4" stroke-miterlimit="10" stroke-linecap="round" stroke-linejoin="round"/>
<path d="M43.5 17V27" stroke="#0C2505" stroke-width="4" stroke-miterlimit="10" stroke-linecap="round"/>
<path d="M14 52C18.1421 52 21.5 48.6421 21.5 44.5C21.5 40.3579 18.1421 37 14 37C9.85786 37 6.5 40.3579 6.5 44.5C6.5 48.6421 9.85786 52 14 52Z" stroke="#0C2505" stroke-width="4" stroke-miterlimit="10" stroke-linecap="round"/>
<path d="M53 50C54.933 50 56.5 48.433 56.5 46.5C56.5 44.567 54.933 43 53 43C51.067 43 49.5 44.567 49.5 46.5C49.5 48.433 51.067 50 53 50Z" stroke="#0C2505" stroke-width="4" stroke-miterlimit="10" stroke-linecap="round"/>
</svg>
