<svg width="60" height="61" viewBox="0 0 60 61" fill="none" xmlns="http://www.w3.org/2000/svg">
<path d="M24.5 36.1429C24.5 36.1429 26.125 34.2857 31 34.2857C35.875 34.2857 39.125 38 44 38C48.875 38 50.5 36.1429 50.5 36.1429V13.8571C50.5 13.8571 48.875 15.7143 44 15.7143C39.125 15.7143 35.875 12 31 12C26.125 12 24.5 13.8571 24.5 13.8571V36.1429Z" stroke="#0C2505" stroke-width="4" stroke-linecap="round" stroke-linejoin="round"/>
<path d="M24.5 49V36" stroke="#0C2505" stroke-width="4" stroke-linecap="round" stroke-linejoin="round"/>
<path d="M24.5 58C29.3301 58 33.779 57.4267 37.0851 56.4543C38.7251 55.9719 40.1979 55.3587 41.3059 54.5883C42.355 53.8587 43.5 52.6783 43.5 51C43.5 49.3217 42.355 48.1413 41.3059 47.4117C40.1979 46.6413 38.7251 46.0281 37.0851 45.5457C33.779 44.5733 29.3301 44 24.5 44C19.6699 44 15.221 44.5733 11.9149 45.5457C10.2749 46.0281 8.80212 46.6413 7.69413 47.4117C6.64499 48.1413 5.5 49.3217 5.5 51C5.5 52.6783 6.64499 53.8587 7.69413 54.5883C8.80212 55.3587 10.2749 55.9719 11.9149 56.4543C15.221 57.4267 19.6699 58 24.5 58Z" stroke="#0C2505" stroke-width="4"/>
</svg>
