<svg width="60" height="60" viewBox="0 0 60 60" fill="none" xmlns="http://www.w3.org/2000/svg">
<path d="M30 32C33.866 32 37 28.866 37 25C37 21.134 33.866 18 30 18C26.134 18 23 21.134 23 25C23 28.866 26.134 32 30 32Z" stroke="#0C2505" stroke-width="4" stroke-miterlimit="10"/>
<path d="M24 28.6242C22.7717 30.6472 20.5462 32 18.0055 32C14.136 32 11 28.8664 11 25C11 21.1336 14.136 18 18.0055 18C20.5462 18 22.7717 19.3516 24 21.3758" stroke="#0C2505" stroke-width="4" stroke-miterlimit="10"/>
<path d="M29.1042 32.0655C30.2833 33.3328 31 35.001 31 36.8311C31 40.7908 27.6426 44 23.5 44C19.3574 44 16 40.7908 16 36.8311C16 34.9701 16.7422 33.2749 17.9577 32" stroke="#0C2505" stroke-width="4" stroke-miterlimit="10"/>
<path d="M23 30C23.3881 30 23.7825 30 24.1847 30C24.4601 30 24.7324 30 25 30" stroke="#0C2505" stroke-width="4" stroke-miterlimit="10"/>
<path d="M30 34C30.282 33.2789 30.6185 32.6076 31 32" stroke="#0C2505" stroke-width="4" stroke-miterlimit="10"/>
<path d="M42.041 32C43.2572 33.2744 44 34.9714 44 36.8342C44 40.7922 40.6519 44 36.5206 44C33.7222 44 31.2819 42.5265 30 40.3451" stroke="#0C2505" stroke-width="4" stroke-miterlimit="10"/>
<path d="M35 30C35.4136 30 35.8395 30 36.2735 30C36.5184 30 36.7605 30 37 30" stroke="#0C2505" stroke-width="4" stroke-miterlimit="10"/>
<path d="M35.661 44C36.503 45.1435 37 46.5514 37 48.0747C37 51.8999 33.8664 55 30 55C26.1336 55 23 51.8999 23 48.0747C23 46.5514 23.497 45.1435 24.339 44" stroke="#0C2505" stroke-width="4" stroke-miterlimit="10"/>
<path d="M36 21.5878C37.1868 19.4469 39.4559 18 42.0609 18C45.8937 18 49 21.1336 49 25C49 28.8664 45.8937 32 42.0609 32C39.4571 32 37.1868 30.5531 36 28.4122" stroke="#0C2505" stroke-width="4" stroke-miterlimit="10"/>
<path d="M36 5C36 5 28.748 7.65681 29.0068 17" stroke="#0C2505" stroke-width="4" stroke-miterlimit="10" stroke-linecap="round" stroke-linejoin="round"/>
<path d="M30.9999 10.8196C30.9999 10.8196 31.1035 5.06937 24 5C24 5 24.8426 6.58129 24.7517 8.18609C24.6607 9.7909 25.813 11.6508 29.6658 12" stroke="#0C2505" stroke-width="4" stroke-miterlimit="10" stroke-linejoin="round"/>
<path d="M30.6122 10.1799C30.6122 10.1799 32.4258 8.60684 34.2041 9.09339C35.9824 9.57993 38 11.7421 38 11.7421C38 11.7421 36.6784 11.7147 34.8041 13.4177C32.9299 15.1206 30.0255 12.6455 30 11.6396" stroke="#0C2505" stroke-width="4" stroke-miterlimit="10" stroke-linejoin="round"/>
</svg>
