<svg width="60" height="61" viewBox="0 0 60 61" fill="none" xmlns="http://www.w3.org/2000/svg">
<path d="M30 55.5C43.8071 55.5 55 44.3071 55 30.5C55 16.6929 43.8071 5.5 30 5.5C16.1929 5.5 5 16.6929 5 30.5C5 44.3071 16.1929 55.5 30 55.5Z" stroke="#0C2505" stroke-width="4" stroke-linecap="round" stroke-linejoin="round"/>
<path d="M30 40.5C35.5228 40.5 40 36.0228 40 30.5C40 24.9772 35.5228 20.5 30 20.5C24.4772 20.5 20 24.9772 20 30.5C20 36.0228 24.4772 40.5 30 40.5Z" stroke="#0C2505" stroke-width="4" stroke-linecap="round" stroke-linejoin="round"/>
<path d="M12.325 12.8242L22.925 23.4242" stroke="#0C2505" stroke-width="4" stroke-linecap="round" stroke-linejoin="round"/>
<path d="M37.075 37.5742L47.675 48.1742" stroke="#0C2505" stroke-width="4" stroke-linecap="round" stroke-linejoin="round"/>
<path d="M37.075 23.4242L47.675 12.8242" stroke="#0C2505" stroke-width="4" stroke-linecap="round" stroke-linejoin="round"/>
<path d="M37.075 23.4246L45.9 14.5996" stroke="#0C2505" stroke-width="4" stroke-linecap="round" stroke-linejoin="round"/>
<path d="M12.325 48.1742L22.925 37.5742" stroke="#0C2505" stroke-width="4" stroke-linecap="round" stroke-linejoin="round"/>
</svg>
