<svg width="16" height="16" viewBox="0 0 16 16" fill="none" xmlns="http://www.w3.org/2000/svg">
<path d="M1.60242 4.7074L8.00002 7.9058L14.3976 4.7074C14.3739 4.29975 14.1953 3.91659 13.8983 3.63638C13.6013 3.35617 13.2083 3.20012 12.8 3.2002H3.20002C2.79168 3.20012 2.39877 3.35617 2.10176 3.63638C1.80474 3.91659 1.6261 4.29975 1.60242 4.7074Z" fill="#E1E1C5"/>
<path d="M14.4 6.49463L7.99998 9.69463L1.59998 6.49463V11.2002C1.59998 11.6246 1.76855 12.0315 2.0686 12.3316C2.36866 12.6317 2.77563 12.8002 3.19998 12.8002H12.8C13.2243 12.8002 13.6313 12.6317 13.9313 12.3316C14.2314 12.0315 14.4 11.6246 14.4 11.2002V6.49463Z" fill="#E1E1C5"/>
</svg>
