<svg width="63" height="60" viewBox="0 0 63 60" fill="none" xmlns="http://www.w3.org/2000/svg">
<path d="M24.9474 6.5V4.5H22.9474V6.5H24.9474ZM24.9474 18.5391H22.9474V20.5391H24.9474V18.5391ZM37.9228 18.5391V20.5391H39.9228V18.5391H37.9228ZM37.9228 6.5H39.9228V4.5H37.9228V6.5ZM2.5 19.6213L0.921842 18.3927C0.39641 19.0677 0.358348 20.002 0.827143 20.7175C1.29594 21.4329 2.16781 21.771 2.99639 21.5587L2.5 19.6213ZM60.5 19.6213L60.0036 21.5587C60.8322 21.771 61.7041 21.4329 62.1729 20.7175C62.6417 20.002 62.6036 19.0677 62.0782 18.3927L60.5 19.6213ZM39.9228 18.5391V6.5H35.9228V18.5391H39.9228ZM37.9228 4.5H24.9474V8.5H37.9228V4.5ZM22.9474 6.5V8.3938H26.9474V6.5H22.9474ZM24.6999 6.40918C21.9964 6.74643 17.6585 7.732 13.2283 9.60151C8.81544 11.4637 4.12175 14.2823 0.921842 18.3927L4.07816 20.8499C6.69123 17.4933 10.691 15.0138 14.7835 13.2868C18.8587 11.5671 22.8381 10.6724 25.195 10.3784L24.6999 6.40918ZM22.9474 8.3938V16.2395H26.9474V8.3938H22.9474ZM22.9474 16.2395V18.5391H26.9474V16.2395H22.9474ZM2.99639 21.5587C5.50454 20.9161 9.63668 19.9743 13.8372 19.2485C18.0963 18.5126 22.2137 18.038 24.7962 18.2338L25.0986 14.2452C21.972 14.0082 17.4175 14.5706 13.1561 15.3069C8.83611 16.0534 4.59912 17.0189 2.00361 17.6839L2.99639 21.5587ZM37.805 10.3784C40.1619 10.6724 44.1413 11.5671 48.2165 13.2868C52.309 15.0138 56.3088 17.4933 58.9218 20.8499L62.0782 18.3927C58.8783 14.2823 54.1846 11.4637 49.7717 9.60151C45.3415 7.732 41.0036 6.74643 38.3001 6.40918L37.805 10.3784ZM60.9964 17.6839C58.4009 17.0189 54.1639 16.0534 49.8439 15.3069C45.5825 14.5706 41.028 14.0082 37.9014 14.2452L38.2038 18.2338C40.7863 18.038 44.9037 18.5126 49.1628 19.2485C53.3633 19.9743 57.4955 20.9161 60.0036 21.5587L60.9964 17.6839ZM24.9474 20.5391H27.4128V16.5391H24.9474V20.5391ZM25.4128 18.5391C25.4128 18.5614 25.4128 18.5837 25.4128 18.6061C25.4128 18.6285 25.4128 18.6509 25.4128 18.6734C25.4128 18.6958 25.4128 18.7183 25.4128 18.7409C25.4128 18.7634 25.4128 18.786 25.4128 18.8087C25.4128 18.8313 25.4128 18.854 25.4128 18.8767C25.4128 18.8994 25.4128 18.9222 25.4128 18.945C25.4128 18.9678 25.4128 18.9907 25.4128 19.0136C25.4128 19.0365 25.4128 19.0594 25.4128 19.0824C25.4128 19.1054 25.4128 19.1284 25.4128 19.1515C25.4128 19.1746 25.4128 19.1977 25.4128 19.2209C25.4128 19.244 25.4128 19.2672 25.4128 19.2905C25.4128 19.3137 25.4128 19.337 25.4128 19.3603C25.4128 19.3837 25.4128 19.407 25.4128 19.4304C25.4128 19.4539 25.4128 19.4773 25.4128 19.5008C25.4128 19.5243 25.4128 19.5478 25.4128 19.5714C25.4128 19.595 25.4128 19.6186 25.4128 19.6423C25.4128 19.666 25.4128 19.6897 25.4128 19.7134C25.4128 19.7371 25.4128 19.7609 25.4128 19.7848C25.4128 19.8086 25.4128 19.8325 25.4128 19.8564C25.4128 19.8803 25.4128 19.9042 25.4128 19.9282C25.4128 19.9522 25.4128 19.9762 25.4128 20.0003C25.4128 20.0244 25.4128 20.0485 25.4128 20.0726C25.4128 20.0968 25.4128 20.1209 25.4128 20.1452C25.4128 20.1694 25.4128 20.1937 25.4128 20.218C25.4128 20.2423 25.4128 20.2666 25.4128 20.291C25.4128 20.3154 25.4128 20.3398 25.4128 20.3643C25.4128 20.3887 25.4128 20.4132 25.4128 20.4378C25.4128 20.4623 25.4128 20.4869 25.4128 20.5115C25.4128 20.5361 25.4128 20.5608 25.4128 20.5855C25.4128 20.6102 25.4128 20.6349 25.4128 20.6597C25.4128 20.6844 25.4128 20.7092 25.4128 20.7341C25.4128 20.7589 25.4128 20.7838 25.4128 20.8087C25.4128 20.8336 25.4128 20.8586 25.4128 20.8836C25.4128 20.9086 25.4128 20.9336 25.4128 20.9587C25.4128 20.9837 25.4128 21.0088 25.4128 21.034C25.4128 21.0591 25.4128 21.0843 25.4128 21.1095C25.4128 21.1347 25.4128 21.16 25.4128 21.1852C25.4128 21.2105 25.4128 21.2358 25.4128 21.2612C25.4128 21.2866 25.4128 21.3119 25.4128 21.3374C25.4128 21.3628 25.4128 21.3883 25.4128 21.4138C25.4128 21.4392 25.4128 21.4648 25.4128 21.4903C25.4128 21.5159 25.4128 21.5415 25.4128 21.5672C25.4128 21.5928 25.4128 21.6185 25.4128 21.6442C25.4128 21.6699 25.4128 21.6956 25.4128 21.7214C25.4128 21.7472 25.4128 21.773 25.4128 21.7988C25.4128 21.8247 25.4128 21.8505 25.4128 21.8764C25.4128 21.9024 25.4128 21.9283 25.4128 21.9543C25.4128 21.9803 25.4128 22.0063 25.4128 22.0323C25.4128 22.0584 25.4128 22.0844 25.4128 22.1105C25.4128 22.1367 25.4128 22.1628 25.4128 22.189C25.4128 22.2152 25.4128 22.2414 25.4128 22.2676C25.4128 22.2938 25.4128 22.3201 25.4128 22.3464C25.4128 22.3727 25.4128 22.3991 25.4128 22.4254C25.4128 22.4518 25.4128 22.4782 25.4128 22.5047C25.4128 22.5311 25.4128 22.5576 25.4128 22.584C25.4128 22.6105 25.4128 22.6371 25.4128 22.6636C25.4128 22.6902 25.4128 22.7168 25.4128 22.7434C25.4128 22.77 25.4128 22.7967 25.4128 22.8234C25.4128 22.8501 25.4128 22.8768 25.4128 22.9035C25.4128 22.9303 25.4128 22.957 25.4128 22.9838C25.4128 23.0107 25.4128 23.0375 25.4128 23.0644C25.4128 23.0912 25.4128 23.1181 25.4128 23.145C25.4128 23.172 25.4128 23.1989 25.4128 23.2259C25.4128 23.2529 25.4128 23.2799 25.4128 23.307C25.4128 23.334 25.4128 23.3611 25.4128 23.3882C25.4128 23.4153 25.4128 23.4424 25.4128 23.4696C25.4128 23.4967 25.4128 23.5239 25.4128 23.5511C25.4128 23.5784 25.4128 23.6056 25.4128 23.6329C25.4128 23.6602 25.4128 23.6875 25.4128 23.7148C25.4128 23.7421 25.4128 23.7695 25.4128 23.7969C25.4128 23.8243 25.4128 23.8517 25.4128 23.8791C25.4128 23.9066 25.4128 23.934 25.4128 23.9615C25.4128 23.989 25.4128 24.0165 25.4128 24.0441C25.4128 24.0716 25.4128 24.0992 25.4128 24.1268C25.4128 24.1544 25.4128 24.1821 25.4128 24.2097C25.4128 24.2374 25.4128 24.2651 25.4128 24.2928C25.4128 24.3205 25.4128 24.3482 25.4128 24.376C25.4128 24.4038 25.4128 24.4315 25.4128 24.4594C25.4128 24.4872 25.4128 24.515 25.4128 24.5429C25.4128 24.5707 25.4128 24.5986 25.4128 24.6266C25.4128 24.6545 25.4128 24.6824 25.4128 24.7104C25.4128 24.7384 25.4128 24.7663 25.4128 24.7944C25.4128 24.8224 25.4128 24.8504 25.4128 24.8785C25.4128 24.9066 25.4128 24.9346 25.4128 24.9628C25.4128 24.9909 25.4128 25.019 25.4128 25.0472C25.4128 25.0753 25.4128 25.1035 25.4128 25.1317C25.4128 25.16 25.4128 25.1882 25.4128 25.2165C25.4128 25.2447 25.4128 25.273 25.4128 25.3013C25.4128 25.3296 25.4128 25.3579 25.4128 25.3863C25.4128 25.4146 25.4128 25.443 25.4128 25.4714C25.4128 25.4998 25.4128 25.5282 25.4128 25.5567C25.4128 25.5851 25.4128 25.6136 25.4128 25.6421C25.4128 25.6706 25.4128 25.6991 25.4128 25.7276C25.4128 25.7561 25.4128 25.7847 25.4128 25.8133C25.4128 25.8419 25.4128 25.8704 25.4128 25.8991C25.4128 25.9277 25.4128 25.9563 25.4128 25.985C25.4128 26.0137 25.4128 26.0423 25.4128 26.071C25.4128 26.0998 25.4128 26.1285 25.4128 26.1572C25.4128 26.186 25.4128 26.2147 25.4128 26.2435C25.4128 26.2723 25.4128 26.3011 25.4128 26.33C25.4128 26.3588 25.4128 26.3876 25.4128 26.4165C25.4128 26.4454 25.4128 26.4743 25.4128 26.5032C25.4128 26.5321 25.4128 26.561 25.4128 26.59C25.4128 26.6189 25.4128 26.6479 25.4128 26.6769C25.4128 26.7059 25.4128 26.7349 25.4128 26.7639C25.4128 26.7929 25.4128 26.822 25.4128 26.851C25.4128 26.8801 25.4128 26.9092 25.4128 26.9383C25.4128 26.9674 25.4128 26.9965 25.4128 27.0256C25.4128 27.0548 25.4128 27.0839 25.4128 27.1131C25.4128 27.1423 25.4128 27.1715 25.4128 27.2007C25.4128 27.2299 25.4128 27.2591 25.4128 27.2884C25.4128 27.3176 25.4128 27.3469 25.4128 27.3762C25.4128 27.4054 25.4128 27.4347 25.4128 27.4641C25.4128 27.4934 25.4128 27.5227 25.4128 27.5521C25.4128 27.5814 25.4128 27.6108 25.4128 27.6402C25.4128 27.6695 25.4128 27.6989 25.4128 27.7283C25.4128 27.7578 25.4128 27.7872 25.4128 27.8166C25.4128 27.8461 25.4128 27.8756 25.4128 27.905C25.4128 27.9345 25.4128 27.964 25.4128 27.9935C25.4128 28.023 25.4128 28.0526 25.4128 28.0821C25.4128 28.1117 25.4128 28.1412 25.4128 28.1708C25.4128 28.2004 25.4128 28.2299 25.4128 28.2595C25.4128 28.2891 25.4128 28.3188 25.4128 28.3484C25.4128 28.378 25.4128 28.4077 25.4128 28.4373C25.4128 28.467 25.4128 28.4967 25.4128 28.5264C25.4128 28.5561 25.4128 28.5858 25.4128 28.6155C25.4128 28.6452 25.4128 28.6749 25.4128 28.7047C25.4128 28.7344 25.4128 28.7642 25.4128 28.7939C25.4128 28.8237 25.4128 28.8535 25.4128 28.8833C25.4128 28.9131 25.4128 28.9429 25.4128 28.9727C25.4128 29.0026 25.4128 29.0324 25.4128 29.0623C25.4128 29.0921 25.4128 29.122 25.4128 29.1518C25.4128 29.1817 25.4128 29.2116 25.4128 29.2415C25.4128 29.2714 25.4128 29.3013 25.4128 29.3312C25.4128 29.3612 25.4128 29.3911 25.4128 29.421C25.4128 29.451 25.4128 29.4809 25.4128 29.5109C25.4128 29.5409 25.4128 29.5709 25.4128 29.6009C25.4128 29.6309 25.4128 29.6609 25.4128 29.6909C25.4128 29.7209 25.4128 29.7509 25.4128 29.7809C25.4128 29.811 25.4128 29.841 25.4128 29.8711C25.4128 29.9011 25.4128 29.9312 25.4128 29.9613C25.4128 29.9914 25.4128 30.0215 25.4128 30.0516C25.4128 30.0816 25.4128 30.1118 25.4128 30.1419C25.4128 30.172 25.4128 30.2021 25.4128 30.2323C25.4128 30.2624 25.4128 30.2925 25.4128 30.3227C25.4128 30.3528 25.4128 30.383 25.4128 30.4132C25.4128 30.4434 25.4128 30.4735 25.4128 30.5037C25.4128 30.5339 25.4128 30.5641 25.4128 30.5943C25.4128 30.6245 25.4128 30.6547 25.4128 30.685C25.4128 30.7152 25.4128 30.7454 25.4128 30.7757C25.4128 30.8059 25.4128 30.8361 25.4128 30.8664C25.4128 30.8967 25.4128 30.9269 25.4128 30.9572C25.4128 30.9875 25.4128 31.0177 25.4128 31.048C25.4128 31.0783 25.4128 31.1086 25.4128 31.1389C25.4128 31.1692 25.4128 31.1995 25.4128 31.2298C25.4128 31.2601 25.4128 31.2904 25.4128 31.3208C25.4128 31.3511 25.4128 31.3814 25.4128 31.4118C25.4128 31.4421 25.4128 31.4724 25.4128 31.5028C25.4128 31.5331 25.4128 31.5635 25.4128 31.5939C25.4128 31.6242 25.4128 31.6546 25.4128 31.685C25.4128 31.7153 25.4128 31.7457 25.4128 31.7761C25.4128 31.8065 25.4128 31.8369 25.4128 31.8673C25.4128 31.8977 25.4128 31.9281 25.4128 31.9585C25.4128 31.9889 25.4128 32.0193 25.4128 32.0497C25.4128 32.0801 25.4128 32.1105 25.4128 32.1409C25.4128 32.1713 25.4128 32.2018 25.4128 32.2322C25.4128 32.2626 25.4128 32.2931 25.4128 32.3235C25.4128 32.3539 25.4128 32.3844 25.4128 32.4148C25.4128 32.4453 25.4128 32.4757 25.4128 32.5062C25.4128 32.5366 25.4128 32.5671 25.4128 32.5975C25.4128 32.628 25.4128 32.6584 25.4128 32.6889C25.4128 32.7194 25.4128 32.7498 25.4128 32.7803C25.4128 32.8107 25.4128 32.8412 25.4128 32.8717C25.4128 32.9022 25.4128 32.9326 25.4128 32.9631C25.4128 32.9936 25.4128 33.0241 25.4128 33.0545C25.4128 33.085 25.4128 33.1155 25.4128 33.146C25.4128 33.1765 25.4128 33.2069 25.4128 33.2374C25.4128 33.2679 25.4128 33.2984 25.4128 33.3289C25.4128 33.3594 25.4128 33.3899 25.4128 33.4203C25.4128 33.4508 25.4128 33.4813 25.4128 33.5118C25.4128 33.5423 25.4128 33.5728 25.4128 33.6033C25.4128 33.6338 25.4128 33.6643 25.4128 33.6947C25.4128 33.7252 25.4128 33.7557 25.4128 33.7862C25.4128 33.8167 25.4128 33.8472 25.4128 33.8777C25.4128 33.9082 25.4128 33.9387 25.4128 33.9692C25.4128 33.9996 25.4128 34.0301 25.4128 34.0606C25.4128 34.0911 25.4128 34.1216 25.4128 34.1521C25.4128 34.1825 25.4128 34.213 25.4128 34.2435C25.4128 34.274 25.4128 34.3045 25.4128 34.3349C25.4128 34.3654 25.4128 34.3959 25.4128 34.4264C25.4128 34.4568 25.4128 34.4873 25.4128 34.5178C25.4128 34.5483 25.4128 34.5787 25.4128 34.6092C25.4128 34.6396 25.4128 34.6701 25.4128 34.7006C25.4128 34.731 25.4128 34.7615 25.4128 34.7919C25.4128 34.8224 25.4128 34.8528 25.4128 34.8833C25.4128 34.9137 25.4128 34.9442 25.4128 34.9746C25.4128 35.005 25.4128 35.0355 25.4128 35.0659C25.4128 35.0963 25.4128 35.1268 25.4128 35.1572C25.4128 35.1876 25.4128 35.218 25.4128 35.2485C25.4128 35.2789 25.4128 35.3093 25.4128 35.3397C25.4128 35.3701 25.4128 35.4005 25.4128 35.4309C25.4128 35.4613 25.4128 35.4917 25.4128 35.5221C25.4128 35.5525 25.4128 35.5829 25.4128 35.6132C25.4128 35.6436 25.4128 35.674 25.4128 35.7043C25.4128 35.7347 25.4128 35.7651 25.4128 35.7954C25.4128 35.8258 25.4128 35.8561 25.4128 35.8865C25.4128 35.9168 25.4128 35.9472 25.4128 35.9775C25.4128 36.0078 25.4128 36.0381 25.4128 36.0685C25.4128 36.0988 25.4128 36.1291 25.4128 36.1594C25.4128 36.1897 25.4128 36.22 25.4128 36.2503C25.4128 36.2806 25.4128 36.3109 25.4128 36.3412C25.4128 36.3714 25.4128 36.4017 25.4128 36.432C25.4128 36.4622 25.4128 36.4925 25.4128 36.5227C25.4128 36.553 25.4128 36.5832 25.4128 36.6134C25.4128 36.6437 25.4128 36.6739 25.4128 36.7041C25.4128 36.7343 25.4128 36.7645 25.4128 36.7947C25.4128 36.8249 25.4128 36.8551 25.4128 36.8853C25.4128 36.9155 25.4128 36.9457 25.4128 36.9758C25.4128 37.006 25.4128 37.0361 25.4128 37.0663C25.4128 37.0964 25.4128 37.1266 25.4128 37.1567C25.4128 37.1868 25.4128 37.2169 25.4128 37.247C25.4128 37.2771 25.4128 37.3072 25.4128 37.3373C25.4128 37.3674 25.4128 37.3975 25.4128 37.4276C25.4128 37.4576 25.4128 37.4877 25.4128 37.5177C25.4128 37.5478 25.4128 37.5778 25.4128 37.6078C25.4128 37.6379 25.4128 37.6679 25.4128 37.6979C25.4128 37.7279 25.4128 37.7579 25.4128 37.7879C25.4128 37.8178 25.4128 37.8478 25.4128 37.8778C25.4128 37.9077 25.4128 37.9377 25.4128 37.9676C25.4128 37.9975 25.4128 38.0275 25.4128 38.0574C25.4128 38.0873 25.4128 38.1172 25.4128 38.1471C25.4128 38.177 25.4128 38.2068 25.4128 38.2367C25.4128 38.2666 25.4128 38.2964 25.4128 38.3262C25.4128 38.3561 25.4128 38.3859 25.4128 38.4157C25.4128 38.4455 25.4128 38.4753 25.4128 38.5051C25.4128 38.5349 25.4128 38.5647 25.4128 38.5944C25.4128 38.6242 25.4128 38.6539 25.4128 38.6837C25.4128 38.7134 25.4128 38.7431 25.4128 38.7728C25.4128 38.8025 25.4128 38.8322 25.4128 38.8619C25.4128 38.8915 25.4128 38.9212 25.4128 38.9509C25.4128 38.9805 25.4128 39.0101 25.4128 39.0397C25.4128 39.0694 25.4128 39.099 25.4128 39.1286C25.4128 39.1581 25.4128 39.1877 25.4128 39.2173C25.4128 39.2468 25.4128 39.2764 25.4128 39.3059C25.4128 39.3354 25.4128 39.3649 25.4128 39.3944C25.4128 39.4239 25.4128 39.4534 25.4128 39.4829C25.4128 39.5123 25.4128 39.5418 25.4128 39.5712C25.4128 39.6006 25.4128 39.6301 25.4128 39.6595C25.4128 39.6889 25.4128 39.7182 25.4128 39.7476C25.4128 39.777 25.4128 39.8063 25.4128 39.8357C25.4128 39.865 25.4128 39.8943 25.4128 39.9236C25.4128 39.9529 25.4128 39.9822 25.4128 40.0114C25.4128 40.0407 25.4128 40.07 25.4128 40.0992C25.4128 40.1284 25.4128 40.1576 25.4128 40.1868C25.4128 40.216 25.4128 40.2452 25.4128 40.2743C25.4128 40.3035 25.4128 40.3326 25.4128 40.3617C25.4128 40.3909 25.4128 40.42 25.4128 40.449C25.4128 40.4781 25.4128 40.5072 25.4128 40.5362C25.4128 40.5653 25.4128 40.5943 25.4128 40.6233C25.4128 40.6523 25.4128 40.6813 25.4128 40.7103C25.4128 40.7392 25.4128 40.7682 25.4128 40.7971C25.4128 40.826 25.4128 40.855 25.4128 40.8838C25.4128 40.9127 25.4128 40.9416 25.4128 40.9705C25.4128 40.9993 25.4128 41.0281 25.4128 41.0569C25.4128 41.0857 25.4128 41.1145 25.4128 41.1433C25.4128 41.1721 25.4128 41.2008 25.4128 41.2295C25.4128 41.2583 25.4128 41.287 25.4128 41.3157C25.4128 41.3443 25.4128 41.373 25.4128 41.4016C25.4128 41.4303 25.4128 41.4589 25.4128 41.4875C25.4128 41.5161 25.4128 41.5447 25.4128 41.5732C25.4128 41.6018 25.4128 41.6303 25.4128 41.6588C25.4128 41.6873 25.4128 41.7158 25.4128 41.7443C25.4128 41.7727 25.4128 41.8012 25.4128 41.8296C25.4128 41.858 25.4128 41.8864 25.4128 41.9148C25.4128 41.9432 25.4128 41.9715 25.4128 41.9999C25.4128 42.0282 25.4128 42.0565 25.4128 42.0848C25.4128 42.1131 25.4128 42.1413 25.4128 42.1695C25.4128 42.1978 25.4128 42.226 25.4128 42.2542C25.4128 42.2824 25.4128 42.3105 25.4128 42.3387C25.4128 42.3668 25.4128 42.3949 25.4128 42.423C25.4128 42.4511 25.4128 42.4792 25.4128 42.5072C25.4128 42.5353 25.4128 42.5633 25.4128 42.5913C25.4128 42.6193 25.4128 42.6472 25.4128 42.6752C25.4128 42.7031 25.4128 42.731 25.4128 42.7589C25.4128 42.7868 25.4128 42.8147 25.4128 42.8425C25.4128 42.8703 25.4128 42.8982 25.4128 42.9259C25.4128 42.9537 25.4128 42.9815 25.4128 43.0092C25.4128 43.037 25.4128 43.0647 25.4128 43.0924C25.4128 43.12 25.4128 43.1477 25.4128 43.1753C25.4128 43.203 25.4128 43.2306 25.4128 43.2581C25.4128 43.2857 25.4128 43.3133 25.4128 43.3408C25.4128 43.3683 25.4128 43.3958 25.4128 43.4233C25.4128 43.4508 25.4128 43.4782 25.4128 43.5056C25.4128 43.533 25.4128 43.5604 25.4128 43.5878C25.4128 43.6151 25.4128 43.6425 25.4128 43.6698C25.4128 43.6971 25.4128 43.7243 25.4128 43.7516C25.4128 43.7788 25.4128 43.806 25.4128 43.8332C25.4128 43.8604 25.4128 43.8876 25.4128 43.9147C25.4128 43.9418 25.4128 43.9689 25.4128 43.996C25.4128 44.0231 25.4128 44.0501 25.4128 44.0771C25.4128 44.1042 25.4128 44.1311 25.4128 44.1581C25.4128 44.185 25.4128 44.212 25.4128 44.2389C25.4128 44.2658 25.4128 44.2926 25.4128 44.3195C25.4128 44.3463 25.4128 44.3731 25.4128 44.3999C25.4128 44.4267 25.4128 44.4534 25.4128 44.4801C25.4128 44.5068 25.4128 44.5335 25.4128 44.5602C25.4128 44.5868 25.4128 44.6134 25.4128 44.64C25.4128 44.6666 25.4128 44.6932 25.4128 44.7197C25.4128 44.7462 25.4128 44.7727 25.4128 44.7992C25.4128 44.8257 25.4128 44.8521 25.4128 44.8785C25.4128 44.9049 25.4128 44.9313 25.4128 44.9576C25.4128 44.9839 25.4128 45.0102 25.4128 45.0365C25.4128 45.0628 25.4128 45.089 25.4128 45.1152C25.4128 45.1414 25.4128 45.1676 25.4128 45.1938C25.4128 45.2199 25.4128 45.246 25.4128 45.2721C25.4128 45.2982 25.4128 45.3242 25.4128 45.3502C25.4128 45.3762 25.4128 45.4022 25.4128 45.4282C25.4128 45.4541 25.4128 45.48 25.4128 45.5059C25.4128 45.5318 25.4128 45.5576 25.4128 45.5834C25.4128 45.6092 25.4128 45.635 25.4128 45.6607C25.4128 45.6865 25.4128 45.7122 25.4128 45.7378C25.4128 45.7635 25.4128 45.7891 25.4128 45.8147C25.4128 45.8403 25.4128 45.8659 25.4128 45.8914C25.4128 45.917 25.4128 45.9425 25.4128 45.9679C25.4128 45.9934 25.4128 46.0188 25.4128 46.0442C25.4128 46.0696 25.4128 46.0949 25.4128 46.1203C25.4128 46.1456 25.4128 46.1709 25.4128 46.1961C25.4128 46.2214 25.4128 46.2466 25.4128 46.2717C25.4128 46.2969 25.4128 46.322 25.4128 46.3471C25.4128 46.3722 25.4128 46.3973 25.4128 46.4223C25.4128 46.4474 25.4128 46.4724 25.4128 46.4973C25.4128 46.5223 25.4128 46.5472 25.4128 46.5721C25.4128 46.5969 25.4128 46.6218 25.4128 46.6466C25.4128 46.6714 25.4128 46.6961 25.4128 46.7209C25.4128 46.7456 25.4128 46.7703 25.4128 46.7949C25.4128 46.8196 25.4128 46.8442 25.4128 46.8688C25.4128 46.8934 25.4128 46.9179 25.4128 46.9424C25.4128 46.9669 25.4128 46.9914 25.4128 47.0158C25.4128 47.0402 25.4128 47.0646 25.4128 47.0889C25.4128 47.1133 25.4128 47.1376 25.4128 47.1618C25.4128 47.1861 25.4128 47.2103 25.4128 47.2345C25.4128 47.2587 25.4128 47.2829 25.4128 47.307C25.4128 47.3311 25.4128 47.3551 25.4128 47.3792C25.4128 47.4032 25.4128 47.4272 25.4128 47.4511C25.4128 47.4751 25.4128 47.499 25.4128 47.5228C25.4128 47.5467 25.4128 47.5705 25.4128 47.5943C25.4128 47.6181 25.4128 47.6418 25.4128 47.6655C25.4128 47.6892 25.4128 47.7129 25.4128 47.7365C25.4128 47.7601 25.4128 47.7837 25.4128 47.8073C25.4128 47.8308 25.4128 47.8543 25.4128 47.8777C25.4128 47.9012 25.4128 47.9246 25.4128 47.948C25.4128 47.9713 25.4128 47.9947 25.4128 48.018C25.4128 48.0412 25.4128 48.0645 25.4128 48.0877C25.4128 48.1109 25.4128 48.134 25.4128 48.1572C25.4128 48.1803 25.4128 48.2034 25.4128 48.2264C25.4128 48.2494 25.4128 48.2724 25.4128 48.2953C25.4128 48.3183 25.4128 48.3412 25.4128 48.364C25.4128 48.3869 25.4128 48.4097 25.4128 48.4325C25.4128 48.4552 25.4128 48.478 25.4128 48.5006C25.4128 48.5233 25.4128 48.546 25.4128 48.5686C25.4128 48.5911 25.4128 48.6137 25.4128 48.6362C25.4128 48.6587 25.4128 48.6812 25.4128 48.7036C25.4128 48.726 25.4128 48.7484 25.4128 48.7707C25.4128 48.793 25.4128 48.8153 25.4128 48.8375C25.4128 48.8598 25.4128 48.8819 25.4128 48.9041C25.4128 48.9262 25.4128 48.9483 25.4128 48.9704C25.4128 48.9924 25.4128 49.0144 25.4128 49.0364C25.4128 49.0584 25.4128 49.0803 25.4128 49.1021C25.4128 49.124 25.4128 49.1458 25.4128 49.1676C25.4128 49.1894 25.4128 49.2111 25.4128 49.2328C25.4128 49.2545 25.4128 49.2761 25.4128 49.2977C25.4128 49.3193 25.4128 49.3408 25.4128 49.3623C25.4128 49.3838 25.4128 49.4053 25.4128 49.4267C25.4128 49.448 25.4128 49.4694 25.4128 49.4907C25.4128 49.512 25.4128 49.5333 25.4128 49.5545C25.4128 49.5757 25.4128 49.5968 25.4128 49.6179C25.4128 49.6391 25.4128 49.6601 25.4128 49.6811C25.4128 49.7021 25.4128 49.7231 25.4128 49.744C25.4128 49.7649 25.4128 49.7858 25.4128 49.8066C25.4128 49.8275 25.4128 49.8482 25.4128 49.8689C25.4128 49.8897 25.4128 49.9103 25.4128 49.931C25.4128 49.9516 25.4128 49.9722 25.4128 49.9927C25.4128 50.0132 25.4128 50.0337 25.4128 50.0541C25.4128 50.0745 25.4128 50.0949 25.4128 50.1152C25.4128 50.1355 25.4128 50.1558 25.4128 50.176C25.4128 50.1963 25.4128 50.2164 25.4128 50.2365C25.4128 50.2567 25.4128 50.2767 25.4128 50.2968C25.4128 50.3168 25.4128 50.3367 25.4128 50.3567C25.4128 50.3766 25.4128 50.3964 25.4128 50.4162C25.4128 50.4361 25.4128 50.4558 25.4128 50.4755C25.4128 50.4952 25.4128 50.5149 25.4128 50.5345C25.4128 50.5541 25.4128 50.5737 25.4128 50.5932C25.4128 50.6127 25.4128 50.6321 25.4128 50.6515C25.4128 50.6709 25.4128 50.6903 25.4128 50.7096C25.4128 50.7289 25.4128 50.7481 25.4128 50.7673C25.4128 50.7865 25.4128 50.8056 25.4128 50.8247C25.4128 50.8438 25.4128 50.8628 25.4128 50.8818C25.4128 50.9007 25.4128 50.9197 25.4128 50.9385C25.4128 50.9574 25.4128 50.9762 25.4128 50.995C25.4128 51.0137 25.4128 51.0324 25.4128 51.0511C25.4128 51.0697 25.4128 51.0883 25.4128 51.1069C25.4128 51.1254 25.4128 51.1439 25.4128 51.1623C25.4128 51.1808 25.4128 51.1991 25.4128 51.2175C25.4128 51.2358 25.4128 51.254 25.4128 51.2723C25.4128 51.2905 25.4128 51.3086 25.4128 51.3267C25.4128 51.3448 25.4128 51.3629 25.4128 51.3809C25.4128 51.3989 25.4128 51.4168 25.4128 51.4347C25.4128 51.4525 25.4128 51.4704 25.4128 51.4881C25.4128 51.5059 25.4128 51.5236 25.4128 51.5413C25.4128 51.5589 25.4128 51.5765 25.4128 51.5941C25.4128 51.6116 25.4128 51.6291 25.4128 51.6465C25.4128 51.6639 25.4128 51.6813 25.4128 51.6986C25.4128 51.7159 25.4128 51.7332 25.4128 51.7504C25.4128 51.7676 25.4128 51.7847 25.4128 51.8018C25.4128 51.8189 25.4128 51.8359 25.4128 51.8529C25.4128 51.8699 25.4128 51.8868 25.4128 51.9036C25.4128 51.9205 25.4128 51.9373 25.4128 51.954C25.4128 51.9707 25.4128 51.9874 25.4128 52.004C25.4128 52.0206 25.4128 52.0372 25.4128 52.0537C25.4128 52.0702 25.4128 52.0866 25.4128 52.103C25.4128 52.1194 25.4128 52.1357 25.4128 52.152C25.4128 52.1682 25.4128 52.1844 25.4128 52.2006C25.4128 52.2167 25.4128 52.2328 25.4128 52.2488C25.4128 52.2649 25.4128 52.2808 25.4128 52.2967C25.4128 52.3126 25.4128 52.3285 25.4128 52.3443C25.4128 52.36 25.4128 52.3758 25.4128 52.3914C25.4128 52.4071 25.4128 52.4227 25.4128 52.4382C25.4128 52.4538 25.4128 52.4692 25.4128 52.4847C25.4128 52.5001 25.4128 52.5154 25.4128 52.5307C25.4128 52.546 25.4128 52.5613 25.4128 52.5764C25.4128 52.5916 25.4128 52.6067 25.4128 52.6218C25.4128 52.6368 25.4128 52.6518 25.4128 52.6667C25.4128 52.6816 25.4128 52.6965 25.4128 52.7113C25.4128 52.7261 25.4128 52.7408 25.4128 52.7555C25.4128 52.7702 25.4128 52.7848 25.4128 52.7994C25.4128 52.8139 25.4128 52.8284 25.4128 52.8428C25.4128 52.8572 25.4128 52.8716 25.4128 52.8859C25.4128 52.9002 25.4128 52.9144 25.4128 52.9286C25.4128 52.9428 25.4128 52.9569 25.4128 52.9709C25.4128 52.9849 25.4128 52.9989 25.4128 53.0128C25.4128 53.0267 25.4128 53.0406 25.4128 53.0544C25.4128 53.0682 25.4128 53.0819 25.4128 53.0955C25.4128 53.1092 25.4128 53.1228 25.4128 53.1363C25.4128 53.1498 25.4128 53.1633 25.4128 53.1767C25.4128 53.1901 25.4128 53.2034 25.4128 53.2167C25.4128 53.2299 25.4128 53.2431 25.4128 53.2563C25.4128 53.2694 25.4128 53.2825 25.4128 53.2955C25.4128 53.3085 25.4128 53.3214 25.4128 53.3343C25.4128 53.3472 25.4128 53.36 25.4128 53.3727C25.4128 53.3854 25.4128 53.3981 25.4128 53.4107C25.4128 53.4233 25.4128 53.4359 25.4128 53.4483C25.4128 53.4608 25.4128 53.4732 25.4128 53.4855C25.4128 53.4979 25.4128 53.5102 25.4128 53.5224C25.4128 53.5346 25.4128 53.5467 25.4128 53.5588C25.4128 53.5708 25.4128 53.5828 25.4128 53.5948C25.4128 53.6067 25.4128 53.6185 25.4128 53.6303C25.4128 53.6421 25.4128 53.6539 25.4128 53.6655C25.4128 53.6772 25.4128 53.6888 25.4128 53.7003C25.4128 53.7118 25.4128 53.7233 25.4128 53.7347C25.4128 53.746 25.4128 53.7574 25.4128 53.7686C25.4128 53.7799 25.4128 53.791 25.4128 53.8021C25.4128 53.8132 25.4128 53.8243 25.4128 53.8353C25.4128 53.8462 25.4128 53.8571 25.4128 53.8679C25.4128 53.8788 25.4128 53.8895 25.4128 53.9002C25.4128 53.9109 25.4128 53.9215 25.4128 53.9321C25.4128 53.9426 25.4128 53.9531 25.4128 53.9635C25.4128 53.9739 25.4128 53.9843 25.4128 53.9945C25.4128 54.0048 25.4128 54.015 25.4128 54.0251C25.4128 54.0352 25.4128 54.0453 25.4128 54.0553C25.4128 54.0652 25.4128 54.0752 25.4128 54.085C25.4128 54.0948 25.4128 54.1046 25.4128 54.1143C25.4128 54.124 25.4128 54.1336 25.4128 54.1432C25.4128 54.1527 25.4128 54.1622 25.4128 54.1716C25.4128 54.181 25.4128 54.1903 25.4128 54.1996C25.4128 54.2089 25.4128 54.218 25.4128 54.2272C25.4128 54.2363 25.4128 54.2453 25.4128 54.2543C25.4128 54.2633 25.4128 54.2722 25.4128 54.281C25.4128 54.2898 25.4128 54.2986 25.4128 54.3072C25.4128 54.3159 25.4128 54.3245 25.4128 54.333C25.4128 54.3416 25.4128 54.35 25.4128 54.3584C25.4128 54.3668 25.4128 54.3751 25.4128 54.3833C25.4128 54.3915 25.4128 54.3997 25.4128 54.4078C25.4128 54.4159 25.4128 54.4239 25.4128 54.4318C25.4128 54.4397 25.4128 54.4476 25.4128 54.4554C25.4128 54.4632 25.4128 54.4709 25.4128 54.4785C25.4128 54.4861 25.4128 54.4937 25.4128 54.5012C25.4128 54.5087 25.4128 54.5161 25.4128 54.5234C25.4128 54.5307 25.4128 54.538 25.4128 54.5452C25.4128 54.5523 25.4128 54.5595 25.4128 54.5665C25.4128 54.5735 25.4128 54.5805 25.4128 54.5873C25.4128 54.5942 25.4128 54.601 25.4128 54.6077C25.4128 54.6144 25.4128 54.6211 25.4128 54.6276C25.4128 54.6342 25.4128 54.6407 25.4128 54.6471C25.4128 54.6535 25.4128 54.6599 25.4128 54.6661C25.4128 54.6724 25.4128 54.6785 25.4128 54.6846C25.4128 54.6907 25.4128 54.6968 25.4128 54.7027C25.4128 54.7087 25.4128 54.7145 25.4128 54.7203C25.4128 54.7261 25.4128 54.7318 25.4128 54.7374C25.4128 54.7431 25.4128 54.7486 25.4128 54.7541C25.4128 54.7596 25.4128 54.765 25.4128 54.7703C25.4128 54.7756 25.4128 54.7808 25.4128 54.786C25.4128 54.7912 25.4128 54.7962 25.4128 54.8012C25.4128 54.8062 25.4128 54.8111 25.4128 54.816C25.4128 54.8208 25.4128 54.8256 25.4128 54.8303C25.4128 54.8349 25.4128 54.8395 25.4128 54.8441C25.4128 54.8486 25.4128 54.853 25.4128 54.8574C25.4128 54.8617 25.4128 54.866 25.4128 54.8702C25.4128 54.8744 25.4128 54.8785 25.4128 54.8826C25.4128 54.8866 25.4128 54.8905 25.4128 54.8944C25.4128 54.8983 25.4128 54.9021 25.4128 54.9058C25.4128 54.9095 25.4128 54.9131 25.4128 54.9167C25.4128 54.9202 25.4128 54.9237 25.4128 54.9271H29.4128C29.4128 54.9237 29.4128 54.9202 29.4128 54.9167C29.4128 54.9131 29.4128 54.9095 29.4128 54.9058C29.4128 54.9021 29.4128 54.8983 29.4128 54.8944C29.4128 54.8905 29.4128 54.8866 29.4128 54.8826C29.4128 54.8785 29.4128 54.8744 29.4128 54.8702C29.4128 54.866 29.4128 54.8617 29.4128 54.8574C29.4128 54.853 29.4128 54.8486 29.4128 54.8441C29.4128 54.8395 29.4128 54.8349 29.4128 54.8303C29.4128 54.8256 29.4128 54.8208 29.4128 54.816C29.4128 54.8111 29.4128 54.8062 29.4128 54.8012C29.4128 54.7962 29.4128 54.7912 29.4128 54.786C29.4128 54.7808 29.4128 54.7756 29.4128 54.7703C29.4128 54.765 29.4128 54.7596 29.4128 54.7541C29.4128 54.7486 29.4128 54.7431 29.4128 54.7374C29.4128 54.7318 29.4128 54.7261 29.4128 54.7203C29.4128 54.7145 29.4128 54.7087 29.4128 54.7027C29.4128 54.6968 29.4128 54.6907 29.4128 54.6846C29.4128 54.6785 29.4128 54.6724 29.4128 54.6661C29.4128 54.6599 29.4128 54.6535 29.4128 54.6471C29.4128 54.6407 29.4128 54.6342 29.4128 54.6276C29.4128 54.6211 29.4128 54.6144 29.4128 54.6077C29.4128 54.601 29.4128 54.5942 29.4128 54.5873C29.4128 54.5805 29.4128 54.5735 29.4128 54.5665C29.4128 54.5595 29.4128 54.5523 29.4128 54.5452C29.4128 54.538 29.4128 54.5307 29.4128 54.5234C29.4128 54.5161 29.4128 54.5087 29.4128 54.5012C29.4128 54.4937 29.4128 54.4861 29.4128 54.4785C29.4128 54.4709 29.4128 54.4632 29.4128 54.4554C29.4128 54.4476 29.4128 54.4397 29.4128 54.4318C29.4128 54.4239 29.4128 54.4159 29.4128 54.4078C29.4128 54.3997 29.4128 54.3915 29.4128 54.3833C29.4128 54.3751 29.4128 54.3668 29.4128 54.3584C29.4128 54.35 29.4128 54.3416 29.4128 54.333C29.4128 54.3245 29.4128 54.3159 29.4128 54.3072C29.4128 54.2986 29.4128 54.2898 29.4128 54.281C29.4128 54.2722 29.4128 54.2633 29.4128 54.2543C29.4128 54.2453 29.4128 54.2363 29.4128 54.2272C29.4128 54.218 29.4128 54.2089 29.4128 54.1996C29.4128 54.1903 29.4128 54.181 29.4128 54.1716C29.4128 54.1622 29.4128 54.1527 29.4128 54.1432C29.4128 54.1336 29.4128 54.124 29.4128 54.1143C29.4128 54.1046 29.4128 54.0948 29.4128 54.085C29.4128 54.0752 29.4128 54.0652 29.4128 54.0553C29.4128 54.0453 29.4128 54.0352 29.4128 54.0251C29.4128 54.015 29.4128 54.0048 29.4128 53.9945C29.4128 53.9843 29.4128 53.9739 29.4128 53.9635C29.4128 53.9531 29.4128 53.9426 29.4128 53.9321C29.4128 53.9215 29.4128 53.9109 29.4128 53.9002C29.4128 53.8895 29.4128 53.8788 29.4128 53.8679C29.4128 53.8571 29.4128 53.8462 29.4128 53.8353C29.4128 53.8243 29.4128 53.8132 29.4128 53.8021C29.4128 53.791 29.4128 53.7799 29.4128 53.7686C29.4128 53.7574 29.4128 53.746 29.4128 53.7347C29.4128 53.7233 29.4128 53.7118 29.4128 53.7003C29.4128 53.6888 29.4128 53.6772 29.4128 53.6655C29.4128 53.6539 29.4128 53.6421 29.4128 53.6303C29.4128 53.6185 29.4128 53.6067 29.4128 53.5948C29.4128 53.5828 29.4128 53.5708 29.4128 53.5588C29.4128 53.5467 29.4128 53.5346 29.4128 53.5224C29.4128 53.5102 29.4128 53.4979 29.4128 53.4855C29.4128 53.4732 29.4128 53.4608 29.4128 53.4483C29.4128 53.4359 29.4128 53.4233 29.4128 53.4107C29.4128 53.3981 29.4128 53.3854 29.4128 53.3727C29.4128 53.36 29.4128 53.3472 29.4128 53.3343C29.4128 53.3214 29.4128 53.3085 29.4128 53.2955C29.4128 53.2825 29.4128 53.2694 29.4128 53.2563C29.4128 53.2431 29.4128 53.2299 29.4128 53.2167C29.4128 53.2034 29.4128 53.1901 29.4128 53.1767C29.4128 53.1633 29.4128 53.1498 29.4128 53.1363C29.4128 53.1228 29.4128 53.1092 29.4128 53.0955C29.4128 53.0819 29.4128 53.0682 29.4128 53.0544C29.4128 53.0406 29.4128 53.0267 29.4128 53.0128C29.4128 52.9989 29.4128 52.9849 29.4128 52.9709C29.4128 52.9569 29.4128 52.9428 29.4128 52.9286C29.4128 52.9144 29.4128 52.9002 29.4128 52.8859C29.4128 52.8716 29.4128 52.8572 29.4128 52.8428C29.4128 52.8284 29.4128 52.8139 29.4128 52.7994C29.4128 52.7848 29.4128 52.7702 29.4128 52.7555C29.4128 52.7408 29.4128 52.7261 29.4128 52.7113C29.4128 52.6965 29.4128 52.6816 29.4128 52.6667C29.4128 52.6518 29.4128 52.6368 29.4128 52.6218C29.4128 52.6067 29.4128 52.5916 29.4128 52.5764C29.4128 52.5613 29.4128 52.546 29.4128 52.5307C29.4128 52.5154 29.4128 52.5001 29.4128 52.4847C29.4128 52.4692 29.4128 52.4538 29.4128 52.4382C29.4128 52.4227 29.4128 52.4071 29.4128 52.3914C29.4128 52.3758 29.4128 52.36 29.4128 52.3443C29.4128 52.3285 29.4128 52.3126 29.4128 52.2967C29.4128 52.2808 29.4128 52.2649 29.4128 52.2488C29.4128 52.2328 29.4128 52.2167 29.4128 52.2006C29.4128 52.1844 29.4128 52.1682 29.4128 52.152C29.4128 52.1357 29.4128 52.1194 29.4128 52.103C29.4128 52.0866 29.4128 52.0702 29.4128 52.0537C29.4128 52.0372 29.4128 52.0206 29.4128 52.004C29.4128 51.9874 29.4128 51.9707 29.4128 51.954C29.4128 51.9373 29.4128 51.9205 29.4128 51.9036C29.4128 51.8868 29.4128 51.8699 29.4128 51.8529C29.4128 51.8359 29.4128 51.8189 29.4128 51.8018C29.4128 51.7847 29.4128 51.7676 29.4128 51.7504C29.4128 51.7332 29.4128 51.7159 29.4128 51.6986C29.4128 51.6813 29.4128 51.6639 29.4128 51.6465C29.4128 51.6291 29.4128 51.6116 29.4128 51.5941C29.4128 51.5765 29.4128 51.5589 29.4128 51.5413C29.4128 51.5236 29.4128 51.5059 29.4128 51.4881C29.4128 51.4704 29.4128 51.4525 29.4128 51.4347C29.4128 51.4168 29.4128 51.3989 29.4128 51.3809C29.4128 51.3629 29.4128 51.3448 29.4128 51.3267C29.4128 51.3086 29.4128 51.2905 29.4128 51.2723C29.4128 51.254 29.4128 51.2358 29.4128 51.2175C29.4128 51.1991 29.4128 51.1808 29.4128 51.1623C29.4128 51.1439 29.4128 51.1254 29.4128 51.1069C29.4128 51.0883 29.4128 51.0697 29.4128 51.0511C29.4128 51.0324 29.4128 51.0137 29.4128 50.995C29.4128 50.9762 29.4128 50.9574 29.4128 50.9385C29.4128 50.9197 29.4128 50.9007 29.4128 50.8818C29.4128 50.8628 29.4128 50.8438 29.4128 50.8247C29.4128 50.8056 29.4128 50.7865 29.4128 50.7673C29.4128 50.7481 29.4128 50.7289 29.4128 50.7096C29.4128 50.6903 29.4128 50.6709 29.4128 50.6515C29.4128 50.6321 29.4128 50.6127 29.4128 50.5932C29.4128 50.5737 29.4128 50.5541 29.4128 50.5345C29.4128 50.5149 29.4128 50.4952 29.4128 50.4755C29.4128 50.4558 29.4128 50.4361 29.4128 50.4162C29.4128 50.3964 29.4128 50.3766 29.4128 50.3567C29.4128 50.3367 29.4128 50.3168 29.4128 50.2968C29.4128 50.2767 29.4128 50.2567 29.4128 50.2365C29.4128 50.2164 29.4128 50.1963 29.4128 50.176C29.4128 50.1558 29.4128 50.1355 29.4128 50.1152C29.4128 50.0949 29.4128 50.0745 29.4128 50.0541C29.4128 50.0337 29.4128 50.0132 29.4128 49.9927C29.4128 49.9722 29.4128 49.9516 29.4128 49.931C29.4128 49.9103 29.4128 49.8897 29.4128 49.8689C29.4128 49.8482 29.4128 49.8275 29.4128 49.8066C29.4128 49.7858 29.4128 49.7649 29.4128 49.744C29.4128 49.7231 29.4128 49.7021 29.4128 49.6811C29.4128 49.6601 29.4128 49.6391 29.4128 49.6179C29.4128 49.5968 29.4128 49.5757 29.4128 49.5545C29.4128 49.5333 29.4128 49.512 29.4128 49.4907C29.4128 49.4694 29.4128 49.448 29.4128 49.4267C29.4128 49.4053 29.4128 49.3838 29.4128 49.3623C29.4128 49.3408 29.4128 49.3193 29.4128 49.2977C29.4128 49.2761 29.4128 49.2545 29.4128 49.2328C29.4128 49.2111 29.4128 49.1894 29.4128 49.1676C29.4128 49.1458 29.4128 49.124 29.4128 49.1021C29.4128 49.0803 29.4128 49.0584 29.4128 49.0364C29.4128 49.0144 29.4128 48.9924 29.4128 48.9704C29.4128 48.9483 29.4128 48.9262 29.4128 48.9041C29.4128 48.8819 29.4128 48.8598 29.4128 48.8375C29.4128 48.8153 29.4128 48.793 29.4128 48.7707C29.4128 48.7484 29.4128 48.726 29.4128 48.7036C29.4128 48.6812 29.4128 48.6587 29.4128 48.6362C29.4128 48.6137 29.4128 48.5911 29.4128 48.5686C29.4128 48.546 29.4128 48.5233 29.4128 48.5006C29.4128 48.478 29.4128 48.4552 29.4128 48.4325C29.4128 48.4097 29.4128 48.3869 29.4128 48.364C29.4128 48.3412 29.4128 48.3183 29.4128 48.2953C29.4128 48.2724 29.4128 48.2494 29.4128 48.2264C29.4128 48.2034 29.4128 48.1803 29.4128 48.1572C29.4128 48.134 29.4128 48.1109 29.4128 48.0877C29.4128 48.0645 29.4128 48.0412 29.4128 48.018C29.4128 47.9947 29.4128 47.9713 29.4128 47.948C29.4128 47.9246 29.4128 47.9012 29.4128 47.8777C29.4128 47.8543 29.4128 47.8308 29.4128 47.8073C29.4128 47.7837 29.4128 47.7601 29.4128 47.7365C29.4128 47.7129 29.4128 47.6892 29.4128 47.6655C29.4128 47.6418 29.4128 47.6181 29.4128 47.5943C29.4128 47.5705 29.4128 47.5467 29.4128 47.5228C29.4128 47.499 29.4128 47.4751 29.4128 47.4511C29.4128 47.4272 29.4128 47.4032 29.4128 47.3792C29.4128 47.3551 29.4128 47.3311 29.4128 47.307C29.4128 47.2829 29.4128 47.2587 29.4128 47.2345C29.4128 47.2103 29.4128 47.1861 29.4128 47.1618C29.4128 47.1376 29.4128 47.1133 29.4128 47.0889C29.4128 47.0646 29.4128 47.0402 29.4128 47.0158C29.4128 46.9914 29.4128 46.9669 29.4128 46.9424C29.4128 46.9179 29.4128 46.8934 29.4128 46.8688C29.4128 46.8442 29.4128 46.8196 29.4128 46.7949C29.4128 46.7703 29.4128 46.7456 29.4128 46.7209C29.4128 46.6961 29.4128 46.6714 29.4128 46.6466C29.4128 46.6218 29.4128 46.5969 29.4128 46.5721C29.4128 46.5472 29.4128 46.5223 29.4128 46.4973C29.4128 46.4724 29.4128 46.4474 29.4128 46.4223C29.4128 46.3973 29.4128 46.3722 29.4128 46.3471C29.4128 46.322 29.4128 46.2969 29.4128 46.2717C29.4128 46.2466 29.4128 46.2214 29.4128 46.1961C29.4128 46.1709 29.4128 46.1456 29.4128 46.1203C29.4128 46.0949 29.4128 46.0696 29.4128 46.0442C29.4128 46.0188 29.4128 45.9934 29.4128 45.9679C29.4128 45.9425 29.4128 45.917 29.4128 45.8914C29.4128 45.8659 29.4128 45.8403 29.4128 45.8147C29.4128 45.7891 29.4128 45.7635 29.4128 45.7378C29.4128 45.7122 29.4128 45.6865 29.4128 45.6607C29.4128 45.635 29.4128 45.6092 29.4128 45.5834C29.4128 45.5576 29.4128 45.5318 29.4128 45.5059C29.4128 45.48 29.4128 45.4541 29.4128 45.4282C29.4128 45.4022 29.4128 45.3762 29.4128 45.3502C29.4128 45.3242 29.4128 45.2982 29.4128 45.2721C29.4128 45.246 29.4128 45.2199 29.4128 45.1938C29.4128 45.1676 29.4128 45.1414 29.4128 45.1152C29.4128 45.089 29.4128 45.0628 29.4128 45.0365C29.4128 45.0102 29.4128 44.9839 29.4128 44.9576C29.4128 44.9313 29.4128 44.9049 29.4128 44.8785C29.4128 44.8521 29.4128 44.8257 29.4128 44.7992C29.4128 44.7727 29.4128 44.7462 29.4128 44.7197C29.4128 44.6932 29.4128 44.6666 29.4128 44.64C29.4128 44.6134 29.4128 44.5868 29.4128 44.5602C29.4128 44.5335 29.4128 44.5068 29.4128 44.4801C29.4128 44.4534 29.4128 44.4267 29.4128 44.3999C29.4128 44.3731 29.4128 44.3463 29.4128 44.3195C29.4128 44.2926 29.4128 44.2658 29.4128 44.2389C29.4128 44.212 29.4128 44.185 29.4128 44.1581C29.4128 44.1311 29.4128 44.1042 29.4128 44.0771C29.4128 44.0501 29.4128 44.0231 29.4128 43.996C29.4128 43.9689 29.4128 43.9418 29.4128 43.9147C29.4128 43.8876 29.4128 43.8604 29.4128 43.8332C29.4128 43.806 29.4128 43.7788 29.4128 43.7516C29.4128 43.7243 29.4128 43.6971 29.4128 43.6698C29.4128 43.6425 29.4128 43.6151 29.4128 43.5878C29.4128 43.5604 29.4128 43.533 29.4128 43.5056C29.4128 43.4782 29.4128 43.4508 29.4128 43.4233C29.4128 43.3958 29.4128 43.3683 29.4128 43.3408C29.4128 43.3133 29.4128 43.2857 29.4128 43.2581C29.4128 43.2306 29.4128 43.203 29.4128 43.1753C29.4128 43.1477 29.4128 43.12 29.4128 43.0924C29.4128 43.0647 29.4128 43.037 29.4128 43.0092C29.4128 42.9815 29.4128 42.9537 29.4128 42.9259C29.4128 42.8982 29.4128 42.8703 29.4128 42.8425C29.4128 42.8147 29.4128 42.7868 29.4128 42.7589C29.4128 42.731 29.4128 42.7031 29.4128 42.6752C29.4128 42.6472 29.4128 42.6193 29.4128 42.5913C29.4128 42.5633 29.4128 42.5353 29.4128 42.5072C29.4128 42.4792 29.4128 42.4511 29.4128 42.423C29.4128 42.3949 29.4128 42.3668 29.4128 42.3387C29.4128 42.3105 29.4128 42.2824 29.4128 42.2542C29.4128 42.226 29.4128 42.1978 29.4128 42.1695C29.4128 42.1413 29.4128 42.1131 29.4128 42.0848C29.4128 42.0565 29.4128 42.0282 29.4128 41.9999C29.4128 41.9715 29.4128 41.9432 29.4128 41.9148C29.4128 41.8864 29.4128 41.858 29.4128 41.8296C29.4128 41.8012 29.4128 41.7727 29.4128 41.7443C29.4128 41.7158 29.4128 41.6873 29.4128 41.6588C29.4128 41.6303 29.4128 41.6018 29.4128 41.5732C29.4128 41.5447 29.4128 41.5161 29.4128 41.4875C29.4128 41.4589 29.4128 41.4303 29.4128 41.4016C29.4128 41.373 29.4128 41.3443 29.4128 41.3157C29.4128 41.287 29.4128 41.2583 29.4128 41.2295C29.4128 41.2008 29.4128 41.1721 29.4128 41.1433C29.4128 41.1145 29.4128 41.0857 29.4128 41.0569C29.4128 41.0281 29.4128 40.9993 29.4128 40.9705C29.4128 40.9416 29.4128 40.9127 29.4128 40.8838C29.4128 40.855 29.4128 40.826 29.4128 40.7971C29.4128 40.7682 29.4128 40.7392 29.4128 40.7103C29.4128 40.6813 29.4128 40.6523 29.4128 40.6233C29.4128 40.5943 29.4128 40.5653 29.4128 40.5362C29.4128 40.5072 29.4128 40.4781 29.4128 40.449C29.4128 40.42 29.4128 40.3909 29.4128 40.3617C29.4128 40.3326 29.4128 40.3035 29.4128 40.2743C29.4128 40.2452 29.4128 40.216 29.4128 40.1868C29.4128 40.1576 29.4128 40.1284 29.4128 40.0992C29.4128 40.07 29.4128 40.0407 29.4128 40.0114C29.4128 39.9822 29.4128 39.9529 29.4128 39.9236C29.4128 39.8943 29.4128 39.865 29.4128 39.8357C29.4128 39.8063 29.4128 39.777 29.4128 39.7476C29.4128 39.7182 29.4128 39.6889 29.4128 39.6595C29.4128 39.6301 29.4128 39.6006 29.4128 39.5712C29.4128 39.5418 29.4128 39.5123 29.4128 39.4829C29.4128 39.4534 29.4128 39.4239 29.4128 39.3944C29.4128 39.3649 29.4128 39.3354 29.4128 39.3059C29.4128 39.2764 29.4128 39.2468 29.4128 39.2173C29.4128 39.1877 29.4128 39.1581 29.4128 39.1286C29.4128 39.099 29.4128 39.0694 29.4128 39.0397C29.4128 39.0101 29.4128 38.9805 29.4128 38.9509C29.4128 38.9212 29.4128 38.8915 29.4128 38.8619C29.4128 38.8322 29.4128 38.8025 29.4128 38.7728C29.4128 38.7431 29.4128 38.7134 29.4128 38.6837C29.4128 38.6539 29.4128 38.6242 29.4128 38.5944C29.4128 38.5647 29.4128 38.5349 29.4128 38.5051C29.4128 38.4753 29.4128 38.4455 29.4128 38.4157C29.4128 38.3859 29.4128 38.3561 29.4128 38.3262C29.4128 38.2964 29.4128 38.2666 29.4128 38.2367C29.4128 38.2068 29.4128 38.177 29.4128 38.1471C29.4128 38.1172 29.4128 38.0873 29.4128 38.0574C29.4128 38.0275 29.4128 37.9975 29.4128 37.9676C29.4128 37.9377 29.4128 37.9077 29.4128 37.8778C29.4128 37.8478 29.4128 37.8178 29.4128 37.7879C29.4128 37.7579 29.4128 37.7279 29.4128 37.6979C29.4128 37.6679 29.4128 37.6379 29.4128 37.6078C29.4128 37.5778 29.4128 37.5478 29.4128 37.5177C29.4128 37.4877 29.4128 37.4576 29.4128 37.4276C29.4128 37.3975 29.4128 37.3674 29.4128 37.3373C29.4128 37.3072 29.4128 37.2771 29.4128 37.247C29.4128 37.2169 29.4128 37.1868 29.4128 37.1567C29.4128 37.1266 29.4128 37.0964 29.4128 37.0663C29.4128 37.0361 29.4128 37.006 29.4128 36.9758C29.4128 36.9457 29.4128 36.9155 29.4128 36.8853C29.4128 36.8551 29.4128 36.8249 29.4128 36.7947C29.4128 36.7645 29.4128 36.7343 29.4128 36.7041C29.4128 36.6739 29.4128 36.6437 29.4128 36.6134C29.4128 36.5832 29.4128 36.553 29.4128 36.5227C29.4128 36.4925 29.4128 36.4622 29.4128 36.432C29.4128 36.4017 29.4128 36.3714 29.4128 36.3412C29.4128 36.3109 29.4128 36.2806 29.4128 36.2503C29.4128 36.22 29.4128 36.1897 29.4128 36.1594C29.4128 36.1291 29.4128 36.0988 29.4128 36.0685C29.4128 36.0381 29.4128 36.0078 29.4128 35.9775C29.4128 35.9472 29.4128 35.9168 29.4128 35.8865C29.4128 35.8561 29.4128 35.8258 29.4128 35.7954C29.4128 35.7651 29.4128 35.7347 29.4128 35.7043C29.4128 35.674 29.4128 35.6436 29.4128 35.6132C29.4128 35.5829 29.4128 35.5525 29.4128 35.5221C29.4128 35.4917 29.4128 35.4613 29.4128 35.4309C29.4128 35.4005 29.4128 35.3701 29.4128 35.3397C29.4128 35.3093 29.4128 35.2789 29.4128 35.2485C29.4128 35.218 29.4128 35.1876 29.4128 35.1572C29.4128 35.1268 29.4128 35.0963 29.4128 35.0659C29.4128 35.0355 29.4128 35.005 29.4128 34.9746C29.4128 34.9442 29.4128 34.9137 29.4128 34.8833C29.4128 34.8528 29.4128 34.8224 29.4128 34.7919C29.4128 34.7615 29.4128 34.731 29.4128 34.7006C29.4128 34.6701 29.4128 34.6396 29.4128 34.6092C29.4128 34.5787 29.4128 34.5483 29.4128 34.5178C29.4128 34.4873 29.4128 34.4568 29.4128 34.4264C29.4128 34.3959 29.4128 34.3654 29.4128 34.3349C29.4128 34.3045 29.4128 34.274 29.4128 34.2435C29.4128 34.213 29.4128 34.1825 29.4128 34.1521C29.4128 34.1216 29.4128 34.0911 29.4128 34.0606C29.4128 34.0301 29.4128 33.9996 29.4128 33.9692C29.4128 33.9387 29.4128 33.9082 29.4128 33.8777C29.4128 33.8472 29.4128 33.8167 29.4128 33.7862C29.4128 33.7557 29.4128 33.7252 29.4128 33.6947C29.4128 33.6643 29.4128 33.6338 29.4128 33.6033C29.4128 33.5728 29.4128 33.5423 29.4128 33.5118C29.4128 33.4813 29.4128 33.4508 29.4128 33.4203C29.4128 33.3899 29.4128 33.3594 29.4128 33.3289C29.4128 33.2984 29.4128 33.2679 29.4128 33.2374C29.4128 33.2069 29.4128 33.1765 29.4128 33.146C29.4128 33.1155 29.4128 33.085 29.4128 33.0545C29.4128 33.0241 29.4128 32.9936 29.4128 32.9631C29.4128 32.9326 29.4128 32.9022 29.4128 32.8717C29.4128 32.8412 29.4128 32.8107 29.4128 32.7803C29.4128 32.7498 29.4128 32.7194 29.4128 32.6889C29.4128 32.6584 29.4128 32.628 29.4128 32.5975C29.4128 32.5671 29.4128 32.5366 29.4128 32.5062C29.4128 32.4757 29.4128 32.4453 29.4128 32.4148C29.4128 32.3844 29.4128 32.3539 29.4128 32.3235C29.4128 32.2931 29.4128 32.2626 29.4128 32.2322C29.4128 32.2018 29.4128 32.1713 29.4128 32.1409C29.4128 32.1105 29.4128 32.0801 29.4128 32.0497C29.4128 32.0193 29.4128 31.9889 29.4128 31.9585C29.4128 31.9281 29.4128 31.8977 29.4128 31.8673C29.4128 31.8369 29.4128 31.8065 29.4128 31.7761C29.4128 31.7457 29.4128 31.7153 29.4128 31.685C29.4128 31.6546 29.4128 31.6242 29.4128 31.5939C29.4128 31.5635 29.4128 31.5331 29.4128 31.5028C29.4128 31.4724 29.4128 31.4421 29.4128 31.4118C29.4128 31.3814 29.4128 31.3511 29.4128 31.3208C29.4128 31.2904 29.4128 31.2601 29.4128 31.2298C29.4128 31.1995 29.4128 31.1692 29.4128 31.1389C29.4128 31.1086 29.4128 31.0783 29.4128 31.048C29.4128 31.0177 29.4128 30.9875 29.4128 30.9572C29.4128 30.9269 29.4128 30.8967 29.4128 30.8664C29.4128 30.8361 29.4128 30.8059 29.4128 30.7757C29.4128 30.7454 29.4128 30.7152 29.4128 30.685C29.4128 30.6547 29.4128 30.6245 29.4128 30.5943C29.4128 30.5641 29.4128 30.5339 29.4128 30.5037C29.4128 30.4735 29.4128 30.4434 29.4128 30.4132C29.4128 30.383 29.4128 30.3528 29.4128 30.3227C29.4128 30.2925 29.4128 30.2624 29.4128 30.2323C29.4128 30.2021 29.4128 30.172 29.4128 30.1419C29.4128 30.1118 29.4128 30.0816 29.4128 30.0516C29.4128 30.0215 29.4128 29.9914 29.4128 29.9613C29.4128 29.9312 29.4128 29.9011 29.4128 29.8711C29.4128 29.841 29.4128 29.811 29.4128 29.7809C29.4128 29.7509 29.4128 29.7209 29.4128 29.6909C29.4128 29.6609 29.4128 29.6309 29.4128 29.6009C29.4128 29.5709 29.4128 29.5409 29.4128 29.5109C29.4128 29.4809 29.4128 29.451 29.4128 29.421C29.4128 29.3911 29.4128 29.3612 29.4128 29.3312C29.4128 29.3013 29.4128 29.2714 29.4128 29.2415C29.4128 29.2116 29.4128 29.1817 29.4128 29.1518C29.4128 29.122 29.4128 29.0921 29.4128 29.0623C29.4128 29.0324 29.4128 29.0026 29.4128 28.9727C29.4128 28.9429 29.4128 28.9131 29.4128 28.8833C29.4128 28.8535 29.4128 28.8237 29.4128 28.7939C29.4128 28.7642 29.4128 28.7344 29.4128 28.7047C29.4128 28.6749 29.4128 28.6452 29.4128 28.6155C29.4128 28.5858 29.4128 28.5561 29.4128 28.5264C29.4128 28.4967 29.4128 28.467 29.4128 28.4373C29.4128 28.4077 29.4128 28.378 29.4128 28.3484C29.4128 28.3188 29.4128 28.2891 29.4128 28.2595C29.4128 28.2299 29.4128 28.2004 29.4128 28.1708C29.4128 28.1412 29.4128 28.1117 29.4128 28.0821C29.4128 28.0526 29.4128 28.023 29.4128 27.9935C29.4128 27.964 29.4128 27.9345 29.4128 27.905C29.4128 27.8756 29.4128 27.8461 29.4128 27.8166C29.4128 27.7872 29.4128 27.7578 29.4128 27.7283C29.4128 27.6989 29.4128 27.6695 29.4128 27.6402C29.4128 27.6108 29.4128 27.5814 29.4128 27.5521C29.4128 27.5227 29.4128 27.4934 29.4128 27.4641C29.4128 27.4347 29.4128 27.4054 29.4128 27.3762C29.4128 27.3469 29.4128 27.3176 29.4128 27.2884C29.4128 27.2591 29.4128 27.2299 29.4128 27.2007C29.4128 27.1715 29.4128 27.1423 29.4128 27.1131C29.4128 27.0839 29.4128 27.0548 29.4128 27.0256C29.4128 26.9965 29.4128 26.9674 29.4128 26.9383C29.4128 26.9092 29.4128 26.8801 29.4128 26.851C29.4128 26.822 29.4128 26.7929 29.4128 26.7639C29.4128 26.7349 29.4128 26.7059 29.4128 26.6769C29.4128 26.6479 29.4128 26.6189 29.4128 26.59C29.4128 26.561 29.4128 26.5321 29.4128 26.5032C29.4128 26.4743 29.4128 26.4454 29.4128 26.4165C29.4128 26.3876 29.4128 26.3588 29.4128 26.33C29.4128 26.3011 29.4128 26.2723 29.4128 26.2435C29.4128 26.2147 29.4128 26.186 29.4128 26.1572C29.4128 26.1285 29.4128 26.0998 29.4128 26.071C29.4128 26.0423 29.4128 26.0137 29.4128 25.985C29.4128 25.9563 29.4128 25.9277 29.4128 25.8991C29.4128 25.8704 29.4128 25.8419 29.4128 25.8133C29.4128 25.7847 29.4128 25.7561 29.4128 25.7276C29.4128 25.6991 29.4128 25.6706 29.4128 25.6421C29.4128 25.6136 29.4128 25.5851 29.4128 25.5567C29.4128 25.5282 29.4128 25.4998 29.4128 25.4714C29.4128 25.443 29.4128 25.4146 29.4128 25.3863C29.4128 25.3579 29.4128 25.3296 29.4128 25.3013C29.4128 25.273 29.4128 25.2447 29.4128 25.2165C29.4128 25.1882 29.4128 25.16 29.4128 25.1317C29.4128 25.1035 29.4128 25.0753 29.4128 25.0472C29.4128 25.019 29.4128 24.9909 29.4128 24.9628C29.4128 24.9346 29.4128 24.9066 29.4128 24.8785C29.4128 24.8504 29.4128 24.8224 29.4128 24.7944C29.4128 24.7663 29.4128 24.7384 29.4128 24.7104C29.4128 24.6824 29.4128 24.6545 29.4128 24.6266C29.4128 24.5986 29.4128 24.5707 29.4128 24.5429C29.4128 24.515 29.4128 24.4872 29.4128 24.4594C29.4128 24.4315 29.4128 24.4038 29.4128 24.376C29.4128 24.3482 29.4128 24.3205 29.4128 24.2928C29.4128 24.2651 29.4128 24.2374 29.4128 24.2097C29.4128 24.1821 29.4128 24.1544 29.4128 24.1268C29.4128 24.0992 29.4128 24.0716 29.4128 24.0441C29.4128 24.0165 29.4128 23.989 29.4128 23.9615C29.4128 23.934 29.4128 23.9066 29.4128 23.8791C29.4128 23.8517 29.4128 23.8243 29.4128 23.7969C29.4128 23.7695 29.4128 23.7421 29.4128 23.7148C29.4128 23.6875 29.4128 23.6602 29.4128 23.6329C29.4128 23.6056 29.4128 23.5784 29.4128 23.5511C29.4128 23.5239 29.4128 23.4967 29.4128 23.4696C29.4128 23.4424 29.4128 23.4153 29.4128 23.3882C29.4128 23.3611 29.4128 23.334 29.4128 23.307C29.4128 23.2799 29.4128 23.2529 29.4128 23.2259C29.4128 23.1989 29.4128 23.172 29.4128 23.145C29.4128 23.1181 29.4128 23.0912 29.4128 23.0644C29.4128 23.0375 29.4128 23.0107 29.4128 22.9838C29.4128 22.957 29.4128 22.9303 29.4128 22.9035C29.4128 22.8768 29.4128 22.8501 29.4128 22.8234C29.4128 22.7967 29.4128 22.77 29.4128 22.7434C29.4128 22.7168 29.4128 22.6902 29.4128 22.6636C29.4128 22.6371 29.4128 22.6105 29.4128 22.584C29.4128 22.5576 29.4128 22.5311 29.4128 22.5047C29.4128 22.4782 29.4128 22.4518 29.4128 22.4254C29.4128 22.3991 29.4128 22.3727 29.4128 22.3464C29.4128 22.3201 29.4128 22.2938 29.4128 22.2676C29.4128 22.2414 29.4128 22.2152 29.4128 22.189C29.4128 22.1628 29.4128 22.1367 29.4128 22.1105C29.4128 22.0844 29.4128 22.0584 29.4128 22.0323C29.4128 22.0063 29.4128 21.9803 29.4128 21.9543C29.4128 21.9283 29.4128 21.9024 29.4128 21.8764C29.4128 21.8505 29.4128 21.8247 29.4128 21.7988C29.4128 21.773 29.4128 21.7472 29.4128 21.7214C29.4128 21.6956 29.4128 21.6699 29.4128 21.6442C29.4128 21.6185 29.4128 21.5928 29.4128 21.5672C29.4128 21.5415 29.4128 21.5159 29.4128 21.4903C29.4128 21.4648 29.4128 21.4392 29.4128 21.4138C29.4128 21.3883 29.4128 21.3628 29.4128 21.3374C29.4128 21.3119 29.4128 21.2866 29.4128 21.2612C29.4128 21.2358 29.4128 21.2105 29.4128 21.1852C29.4128 21.16 29.4128 21.1347 29.4128 21.1095C29.4128 21.0843 29.4128 21.0591 29.4128 21.034C29.4128 21.0088 29.4128 20.9837 29.4128 20.9587C29.4128 20.9336 29.4128 20.9086 29.4128 20.8836C29.4128 20.8586 29.4128 20.8336 29.4128 20.8087C29.4128 20.7838 29.4128 20.7589 29.4128 20.7341C29.4128 20.7092 29.4128 20.6844 29.4128 20.6597C29.4128 20.6349 29.4128 20.6102 29.4128 20.5855C29.4128 20.5608 29.4128 20.5361 29.4128 20.5115C29.4128 20.4869 29.4128 20.4623 29.4128 20.4378C29.4128 20.4132 29.4128 20.3887 29.4128 20.3643C29.4128 20.3398 29.4128 20.3154 29.4128 20.291C29.4128 20.2666 29.4128 20.2423 29.4128 20.218C29.4128 20.1937 29.4128 20.1694 29.4128 20.1452C29.4128 20.1209 29.4128 20.0968 29.4128 20.0726C29.4128 20.0485 29.4128 20.0244 29.4128 20.0003C29.4128 19.9762 29.4128 19.9522 29.4128 19.9282C29.4128 19.9042 29.4128 19.8803 29.4128 19.8564C29.4128 19.8325 29.4128 19.8086 29.4128 19.7848C29.4128 19.7609 29.4128 19.7371 29.4128 19.7134C29.4128 19.6897 29.4128 19.666 29.4128 19.6423C29.4128 19.6186 29.4128 19.595 29.4128 19.5714C29.4128 19.5478 29.4128 19.5243 29.4128 19.5008C29.4128 19.4773 29.4128 19.4539 29.4128 19.4304C29.4128 19.407 29.4128 19.3837 29.4128 19.3603C29.4128 19.337 29.4128 19.3137 29.4128 19.2905C29.4128 19.2672 29.4128 19.244 29.4128 19.2209C29.4128 19.1977 29.4128 19.1746 29.4128 19.1515C29.4128 19.1284 29.4128 19.1054 29.4128 19.0824C29.4128 19.0594 29.4128 19.0365 29.4128 19.0136C29.4128 18.9907 29.4128 18.9678 29.4128 18.945C29.4128 18.9222 29.4128 18.8994 29.4128 18.8767C29.4128 18.854 29.4128 18.8313 29.4128 18.8087C29.4128 18.786 29.4128 18.7634 29.4128 18.7409C29.4128 18.7183 29.4128 18.6958 29.4128 18.6734C29.4128 18.6509 29.4128 18.6285 29.4128 18.6061C29.4128 18.5837 29.4128 18.5614 29.4128 18.5391H25.4128ZM25.4128 54.9271C25.4128 55.8698 25.8595 56.6036 26.3798 57.0911C26.8665 57.5472 27.4497 57.8284 27.9581 58.0095C28.982 58.3742 30.2079 58.5092 31.3227 58.4995C32.4403 58.4898 33.6543 58.3329 34.6623 57.968C35.1608 57.7876 35.731 57.513 36.2093 57.0778C36.7132 56.6194 37.198 55.8939 37.198 54.9271H33.198C33.198 54.4674 33.4395 54.1901 33.5176 54.119C33.5702 54.0711 33.5322 54.1231 33.3008 54.2069C32.849 54.3704 32.1167 54.4925 31.288 54.4997C30.4566 54.5069 29.7361 54.3967 29.3003 54.2414C29.0788 54.1625 29.0538 54.1151 29.1148 54.1723C29.2093 54.2609 29.4128 54.5254 29.4128 54.9271H25.4128ZM27.4128 20.5391H35.198V16.5391H27.4128V20.5391ZM35.198 20.5391H37.9228V16.5391H35.198V20.5391ZM37.198 54.9271C37.198 54.9239 37.198 54.9206 37.198 54.9173C37.198 54.914 37.198 54.9105 37.198 54.907C37.198 54.9035 37.198 54.9 37.198 54.8963C37.198 54.8926 37.198 54.8889 37.198 54.8851C37.198 54.8812 37.198 54.8773 37.198 54.8733C37.198 54.8693 37.198 54.8653 37.198 54.8611C37.198 54.857 37.198 54.8527 37.198 54.8484C37.198 54.8441 37.198 54.8397 37.198 54.8352C37.198 54.8307 37.198 54.8262 37.198 54.8215C37.198 54.8169 37.198 54.8122 37.198 54.8074C37.198 54.8026 37.198 54.7977 37.198 54.7927C37.198 54.7878 37.198 54.7827 37.198 54.7776C37.198 54.7725 37.198 54.7673 37.198 54.762C37.198 54.7567 37.198 54.7514 37.198 54.7459C37.198 54.7405 37.198 54.735 37.198 54.7294C37.198 54.7238 37.198 54.7181 37.198 54.7124C37.198 54.7066 37.198 54.7008 37.198 54.6949C37.198 54.689 37.198 54.683 37.198 54.6769C37.198 54.6708 37.198 54.6647 37.198 54.6585C37.198 54.6522 37.198 54.6459 37.198 54.6396C37.198 54.6332 37.198 54.6267 37.198 54.6202C37.198 54.6136 37.198 54.607 37.198 54.6003C37.198 54.5937 37.198 54.5869 37.198 54.58C37.198 54.5732 37.198 54.5663 37.198 54.5593C37.198 54.5523 37.198 54.5452 37.198 54.5381C37.198 54.5309 37.198 54.5237 37.198 54.5164C37.198 54.5091 37.198 54.5017 37.198 54.4942C37.198 54.4868 37.198 54.4792 37.198 54.4716C37.198 54.464 37.198 54.4563 37.198 54.4486C37.198 54.4408 37.198 54.433 37.198 54.4251C37.198 54.4172 37.198 54.4092 37.198 54.4011C37.198 54.3931 37.198 54.3849 37.198 54.3767C37.198 54.3685 37.198 54.3602 37.198 54.3519C37.198 54.3435 37.198 54.3351 37.198 54.3266C37.198 54.3181 37.198 54.3095 37.198 54.3008C37.198 54.2922 37.198 54.2834 37.198 54.2746C37.198 54.2658 37.198 54.257 37.198 54.248C37.198 54.2391 37.198 54.23 37.198 54.2209C37.198 54.2118 37.198 54.2027 37.198 54.1934C37.198 54.1842 37.198 54.1749 37.198 54.1655C37.198 54.1561 37.198 54.1466 37.198 54.1371C37.198 54.1276 37.198 54.118 37.198 54.1083C37.198 54.0986 37.198 54.0888 37.198 54.079C37.198 54.0692 37.198 54.0593 37.198 54.0493C37.198 54.0394 37.198 54.0293 37.198 54.0192C37.198 54.0091 37.198 53.9989 37.198 53.9887C37.198 53.9784 37.198 53.9681 37.198 53.9577C37.198 53.9473 37.198 53.9368 37.198 53.9263C37.198 53.9158 37.198 53.9052 37.198 53.8945C37.198 53.8838 37.198 53.873 37.198 53.8622C37.198 53.8514 37.198 53.8405 37.198 53.8296C37.198 53.8186 37.198 53.8076 37.198 53.7965C37.198 53.7854 37.198 53.7742 37.198 53.763C37.198 53.7517 37.198 53.7404 37.198 53.729C37.198 53.7177 37.198 53.7062 37.198 53.6947C37.198 53.6832 37.198 53.6716 37.198 53.66C37.198 53.6483 37.198 53.6366 37.198 53.6248C37.198 53.613 37.198 53.6011 37.198 53.5892C37.198 53.5773 37.198 53.5653 37.198 53.5532C37.198 53.5412 37.198 53.529 37.198 53.5168C37.198 53.5046 37.198 53.4924 37.198 53.48C37.198 53.4677 37.198 53.4553 37.198 53.4428C37.198 53.4304 37.198 53.4178 37.198 53.4052C37.198 53.3926 37.198 53.38 37.198 53.3672C37.198 53.3545 37.198 53.3417 37.198 53.3288C37.198 53.3159 37.198 53.303 37.198 53.29C37.198 53.277 37.198 53.2639 37.198 53.2508C37.198 53.2377 37.198 53.2245 37.198 53.2112C37.198 53.1979 37.198 53.1846 37.198 53.1712C37.198 53.1578 37.198 53.1443 37.198 53.1308C37.198 53.1173 37.198 53.1037 37.198 53.09C37.198 53.0764 37.198 53.0626 37.198 53.0488C37.198 53.0351 37.198 53.0212 37.198 53.0073C37.198 52.9934 37.198 52.9794 37.198 52.9653C37.198 52.9513 37.198 52.9372 37.198 52.923C37.198 52.9088 37.198 52.8946 37.198 52.8803C37.198 52.866 37.198 52.8516 37.198 52.8372C37.198 52.8228 37.198 52.8083 37.198 52.7937C37.198 52.7792 37.198 52.7645 37.198 52.7499C37.198 52.7352 37.198 52.7204 37.198 52.7056C37.198 52.6908 37.198 52.6759 37.198 52.661C37.198 52.6461 37.198 52.6311 37.198 52.616C37.198 52.601 37.198 52.5858 37.198 52.5707C37.198 52.5555 37.198 52.5402 37.198 52.5249C37.198 52.5096 37.198 52.4943 37.198 52.4788C37.198 52.4634 37.198 52.4479 37.198 52.4324C37.198 52.4168 37.198 52.4012 37.198 52.3855C37.198 52.3698 37.198 52.3541 37.198 52.3383C37.198 52.3225 37.198 52.3066 37.198 52.2907C37.198 52.2748 37.198 52.2588 37.198 52.2428C37.198 52.2268 37.198 52.2107 37.198 52.1945C37.198 52.1783 37.198 52.1621 37.198 52.1458C37.198 52.1296 37.198 52.1132 37.198 52.0968C37.198 52.0804 37.198 52.064 37.198 52.0475C37.198 52.0309 37.198 52.0144 37.198 51.9977C37.198 51.9811 37.198 51.9644 37.198 51.9477C37.198 51.9309 37.198 51.9141 37.198 51.8972C37.198 51.8804 37.198 51.8634 37.198 51.8464C37.198 51.8295 37.198 51.8124 37.198 51.7953C37.198 51.7782 37.198 51.7611 37.198 51.7438C37.198 51.7266 37.198 51.7093 37.198 51.692C37.198 51.6747 37.198 51.6573 37.198 51.6398C37.198 51.6224 37.198 51.6049 37.198 51.5873C37.198 51.5698 37.198 51.5521 37.198 51.5345C37.198 51.5168 37.198 51.4991 37.198 51.4813C37.198 51.4635 37.198 51.4456 37.198 51.4277C37.198 51.4098 37.198 51.3919 37.198 51.3739C37.198 51.3558 37.198 51.3378 37.198 51.3196C37.198 51.3015 37.198 51.2833 37.198 51.2651C37.198 51.2469 37.198 51.2286 37.198 51.2102C37.198 51.1919 37.198 51.1735 37.198 51.155C37.198 51.1366 37.198 51.118 37.198 51.0995C37.198 51.0809 37.198 51.0623 37.198 51.0436C37.198 51.0249 37.198 51.0062 37.198 50.9874C37.198 50.9686 37.198 50.9498 37.198 50.9309C37.198 50.912 37.198 50.8931 37.198 50.8741C37.198 50.855 37.198 50.836 37.198 50.8169C37.198 50.7978 37.198 50.7786 37.198 50.7594C37.198 50.7402 37.198 50.7209 37.198 50.7016C37.198 50.6823 37.198 50.6629 37.198 50.6435C37.198 50.624 37.198 50.6046 37.198 50.585C37.198 50.5655 37.198 50.5459 37.198 50.5263C37.198 50.5066 37.198 50.4869 37.198 50.4672C37.198 50.4475 37.198 50.4277 37.198 50.4078C37.198 50.388 37.198 50.3681 37.198 50.3481C37.198 50.3282 37.198 50.3082 37.198 50.2881C37.198 50.2681 37.198 50.248 37.198 50.2278C37.198 50.2077 37.198 50.1875 37.198 50.1672C37.198 50.1469 37.198 50.1266 37.198 50.1063C37.198 50.0859 37.198 50.0655 37.198 50.0451C37.198 50.0246 37.198 50.0041 37.198 49.9835C37.198 49.963 37.198 49.9424 37.198 49.9217C37.198 49.9011 37.198 49.8804 37.198 49.8596C37.198 49.8388 37.198 49.818 37.198 49.7972C37.198 49.7763 37.198 49.7554 37.198 49.7345C37.198 49.7135 37.198 49.6925 37.198 49.6715C37.198 49.6504 37.198 49.6293 37.198 49.6082C37.198 49.587 37.198 49.5658 37.198 49.5446C37.198 49.5233 37.198 49.502 37.198 49.4807C37.198 49.4594 37.198 49.438 37.198 49.4165C37.198 49.3951 37.198 49.3736 37.198 49.3521C37.198 49.3305 37.198 49.309 37.198 49.2873C37.198 49.2657 37.198 49.244 37.198 49.2223C37.198 49.2006 37.198 49.1788 37.198 49.157C37.198 49.1352 37.198 49.1133 37.198 49.0914C37.198 49.0695 37.198 49.0476 37.198 49.0256C37.198 49.0035 37.198 48.9815 37.198 48.9594C37.198 48.9373 37.198 48.9152 37.198 48.893C37.198 48.8708 37.198 48.8486 37.198 48.8263C37.198 48.804 37.198 48.7817 37.198 48.7593C37.198 48.737 37.198 48.7146 37.198 48.6921C37.198 48.6696 37.198 48.6471 37.198 48.6246C37.198 48.602 37.198 48.5794 37.198 48.5568C37.198 48.5342 37.198 48.5115 37.198 48.4888C37.198 48.466 37.198 48.4433 37.198 48.4205C37.198 48.3977 37.198 48.3748 37.198 48.3519C37.198 48.329 37.198 48.306 37.198 48.2831C37.198 48.2601 37.198 48.237 37.198 48.214C37.198 48.1909 37.198 48.1678 37.198 48.1446C37.198 48.1214 37.198 48.0982 37.198 48.075C37.198 48.0518 37.198 48.0285 37.198 48.0051C37.198 47.9818 37.198 47.9584 37.198 47.935C37.198 47.9116 37.198 47.8881 37.198 47.8646C37.198 47.8411 37.198 47.8176 37.198 47.794C37.198 47.7704 37.198 47.7468 37.198 47.7231C37.198 47.6994 37.198 47.6757 37.198 47.652C37.198 47.6282 37.198 47.6044 37.198 47.5806C37.198 47.5568 37.198 47.5329 37.198 47.509C37.198 47.4851 37.198 47.4611 37.198 47.4371C37.198 47.4131 37.198 47.3891 37.198 47.365C37.198 47.3409 37.198 47.3168 37.198 47.2927C37.198 47.2685 37.198 47.2443 37.198 47.2201C37.198 47.1958 37.198 47.1716 37.198 47.1472C37.198 47.1229 37.198 47.0986 37.198 47.0742C37.198 47.0498 37.198 47.0253 37.198 47.0009C37.198 46.9764 37.198 46.9519 37.198 46.9273C37.198 46.9028 37.198 46.8782 37.198 46.8536C37.198 46.8289 37.198 46.8043 37.198 46.7796C37.198 46.7549 37.198 46.7301 37.198 46.7053C37.198 46.6806 37.198 46.6557 37.198 46.6309C37.198 46.606 37.198 46.5811 37.198 46.5562C37.198 46.5313 37.198 46.5063 37.198 46.4813C37.198 46.4563 37.198 46.4312 37.198 46.4062C37.198 46.3811 37.198 46.356 37.198 46.3308C37.198 46.3057 37.198 46.2805 37.198 46.2552C37.198 46.23 37.198 46.2047 37.198 46.1794C37.198 46.1541 37.198 46.1288 37.198 46.1034C37.198 46.0781 37.198 46.0527 37.198 46.0272C37.198 46.0018 37.198 45.9763 37.198 45.9508C37.198 45.9252 37.198 45.8997 37.198 45.8741C37.198 45.8485 37.198 45.8229 37.198 45.7972C37.198 45.7716 37.198 45.7459 37.198 45.7202C37.198 45.6944 37.198 45.6687 37.198 45.6429C37.198 45.6171 37.198 45.5913 37.198 45.5654C37.198 45.5395 37.198 45.5136 37.198 45.4877C37.198 45.4618 37.198 45.4358 37.198 45.4098C37.198 45.3838 37.198 45.3578 37.198 45.3317C37.198 45.3056 37.198 45.2795 37.198 45.2534C37.198 45.2273 37.198 45.2011 37.198 45.1749C37.198 45.1487 37.198 45.1225 37.198 45.0962C37.198 45.0699 37.198 45.0436 37.198 45.0173C37.198 44.991 37.198 44.9646 37.198 44.9382C37.198 44.9118 37.198 44.8854 37.198 44.8589C37.198 44.8325 37.198 44.806 37.198 44.7794C37.198 44.7529 37.198 44.7264 37.198 44.6998C37.198 44.6732 37.198 44.6466 37.198 44.6199C37.198 44.5933 37.198 44.5666 37.198 44.5399C37.198 44.5131 37.198 44.4864 37.198 44.4596C37.198 44.4329 37.198 44.4061 37.198 44.3792C37.198 44.3524 37.198 44.3255 37.198 44.2986C37.198 44.2717 37.198 44.2448 37.198 44.2178C37.198 44.1909 37.198 44.1639 37.198 44.1369C37.198 44.1099 37.198 44.0828 37.198 44.0557C37.198 44.0287 37.198 44.0016 37.198 43.9744C37.198 43.9473 37.198 43.9201 37.198 43.8929C37.198 43.8657 37.198 43.8385 37.198 43.8113C37.198 43.784 37.198 43.7567 37.198 43.7294C37.198 43.7021 37.198 43.6748 37.198 43.6474C37.198 43.6201 37.198 43.5927 37.198 43.5652C37.198 43.5378 37.198 43.5104 37.198 43.4829C37.198 43.4554 37.198 43.4279 37.198 43.4004C37.198 43.3729 37.198 43.3453 37.198 43.3177C37.198 43.2901 37.198 43.2625 37.198 43.2349C37.198 43.2072 37.198 43.1796 37.198 43.1519C37.198 43.1242 37.198 43.0965 37.198 43.0687C37.198 43.041 37.198 43.0132 37.198 42.9854C37.198 42.9576 37.198 42.9298 37.198 42.9019C37.198 42.8741 37.198 42.8462 37.198 42.8183C37.198 42.7904 37.198 42.7624 37.198 42.7345C37.198 42.7065 37.198 42.6785 37.198 42.6505C37.198 42.6225 37.198 42.5945 37.198 42.5664C37.198 42.5384 37.198 42.5103 37.198 42.4822C37.198 42.4541 37.198 42.426 37.198 42.3978C37.198 42.3696 37.198 42.3415 37.198 42.3133C37.198 42.2851 37.198 42.2568 37.198 42.2286C37.198 42.2003 37.198 42.172 37.198 42.1437C37.198 42.1154 37.198 42.0871 37.198 42.0588C37.198 42.0304 37.198 42.0021 37.198 41.9737C37.198 41.9453 37.198 41.9169 37.198 41.8884C37.198 41.86 37.198 41.8315 37.198 41.803C37.198 41.7745 37.198 41.746 37.198 41.7175C37.198 41.689 37.198 41.6604 37.198 41.6318C37.198 41.6033 37.198 41.5747 37.198 41.546C37.198 41.5174 37.198 41.4888 37.198 41.4601C37.198 41.4314 37.198 41.4028 37.198 41.3741C37.198 41.3453 37.198 41.3166 37.198 41.2879C37.198 41.2591 37.198 41.2303 37.198 41.2015C37.198 41.1728 37.198 41.1439 37.198 41.1151C37.198 41.0863 37.198 41.0574 37.198 41.0285C37.198 40.9997 37.198 40.9708 37.198 40.9419C37.198 40.9129 37.198 40.884 37.198 40.855C37.198 40.8261 37.198 40.7971 37.198 40.7681C37.198 40.7391 37.198 40.7101 37.198 40.6811C37.198 40.652 37.198 40.623 37.198 40.5939C37.198 40.5648 37.198 40.5357 37.198 40.5066C37.198 40.4775 37.198 40.4484 37.198 40.4192C37.198 40.3901 37.198 40.3609 37.198 40.3317C37.198 40.3025 37.198 40.2733 37.198 40.2441C37.198 40.2149 37.198 40.1856 37.198 40.1564C37.198 40.1271 37.198 40.0978 37.198 40.0685C37.198 40.0392 37.198 40.0099 37.198 39.9806C37.198 39.9513 37.198 39.9219 37.198 39.8926C37.198 39.8632 37.198 39.8338 37.198 39.8044C37.198 39.775 37.198 39.7456 37.198 39.7162C37.198 39.6867 37.198 39.6573 37.198 39.6278C37.198 39.5983 37.198 39.5689 37.198 39.5394C37.198 39.5098 37.198 39.4803 37.198 39.4508C37.198 39.4213 37.198 39.3917 37.198 39.3622C37.198 39.3326 37.198 39.303 37.198 39.2734C37.198 39.2438 37.198 39.2142 37.198 39.1846C37.198 39.155 37.198 39.1253 37.198 39.0957C37.198 39.066 37.198 39.0363 37.198 39.0066C37.198 38.977 37.198 38.9473 37.198 38.9175C37.198 38.8878 37.198 38.8581 37.198 38.8284C37.198 38.7986 37.198 38.7689 37.198 38.7391C37.198 38.7093 37.198 38.6795 37.198 38.6497C37.198 38.6199 37.198 38.5901 37.198 38.5603C37.198 38.5305 37.198 38.5006 37.198 38.4708C37.198 38.4409 37.198 38.411 37.198 38.3812C37.198 38.3513 37.198 38.3214 37.198 38.2915C37.198 38.2616 37.198 38.2316 37.198 38.2017C37.198 38.1718 37.198 38.1418 37.198 38.1119C37.198 38.0819 37.198 38.052 37.198 38.022C37.198 37.992 37.198 37.962 37.198 37.932C37.198 37.902 37.198 37.872 37.198 37.842C37.198 37.8119 37.198 37.7819 37.198 37.7518C37.198 37.7218 37.198 37.6917 37.198 37.6617C37.198 37.6316 37.198 37.6015 37.198 37.5714C37.198 37.5413 37.198 37.5112 37.198 37.4811C37.198 37.451 37.198 37.4209 37.198 37.3907C37.198 37.3606 37.198 37.3304 37.198 37.3003C37.198 37.2701 37.198 37.24 37.198 37.2098C37.198 37.1796 37.198 37.1494 37.198 37.1192C37.198 37.089 37.198 37.0588 37.198 37.0286C37.198 36.9984 37.198 36.9682 37.198 36.9379C37.198 36.9077 37.198 36.8775 37.198 36.8472C37.198 36.817 37.198 36.7867 37.198 36.7564C37.198 36.7262 37.198 36.6959 37.198 36.6656C37.198 36.6353 37.198 36.605 37.198 36.5747C37.198 36.5444 37.198 36.5141 37.198 36.4838C37.198 36.4535 37.198 36.4232 37.198 36.3928C37.198 36.3625 37.198 36.3322 37.198 36.3018C37.198 36.2715 37.198 36.2411 37.198 36.2108C37.198 36.1804 37.198 36.15 37.198 36.1197C37.198 36.0893 37.198 36.0589 37.198 36.0285C37.198 35.9981 37.198 35.9677 37.198 35.9373C37.198 35.9069 37.198 35.8765 37.198 35.8461C37.198 35.8157 37.198 35.7853 37.198 35.7549C37.198 35.7244 37.198 35.694 37.198 35.6636C37.198 35.6331 37.198 35.6027 37.198 35.5722C37.198 35.5418 37.198 35.5113 37.198 35.4809C37.198 35.4504 37.198 35.42 37.198 35.3895C37.198 35.359 37.198 35.3286 37.198 35.2981C37.198 35.2676 37.198 35.2371 37.198 35.2066C37.198 35.1762 37.198 35.1457 37.198 35.1152C37.198 35.0847 37.198 35.0542 37.198 35.0237C37.198 34.9932 37.198 34.9627 37.198 34.9322C37.198 34.9017 37.198 34.8712 37.198 34.8407C37.198 34.8101 37.198 34.7796 37.198 34.7491C37.198 34.7186 37.198 34.6881 37.198 34.6575C37.198 34.627 37.198 34.5965 37.198 34.5659C37.198 34.5354 37.198 34.5049 37.198 34.4743C37.198 34.4438 37.198 34.4133 37.198 34.3827C37.198 34.3522 37.198 34.3216 37.198 34.2911C37.198 34.2606 37.198 34.23 37.198 34.1995C37.198 34.1689 37.198 34.1384 37.198 34.1078C37.198 34.0773 37.198 34.0467 37.198 34.0162C37.198 33.9856 37.198 33.9551 37.198 33.9245C37.198 33.8939 37.198 33.8634 37.198 33.8328C37.198 33.8023 37.198 33.7717 37.198 33.7412C37.198 33.7106 37.198 33.6801 37.198 33.6495C37.198 33.6189 37.198 33.5884 37.198 33.5578C37.198 33.5273 37.198 33.4967 37.198 33.4662C37.198 33.4356 37.198 33.405 37.198 33.3745C37.198 33.3439 37.198 33.3134 37.198 33.2828C37.198 33.2523 37.198 33.2217 37.198 33.1912C37.198 33.1606 37.198 33.1301 37.198 33.0995C37.198 33.069 37.198 33.0384 37.198 33.0079C37.198 32.9773 37.198 32.9468 37.198 32.9163C37.198 32.8857 37.198 32.8552 37.198 32.8246C37.198 32.7941 37.198 32.7636 37.198 32.733C37.198 32.7025 37.198 32.672 37.198 32.6415C37.198 32.6109 37.198 32.5804 37.198 32.5499C37.198 32.5194 37.198 32.4889 37.198 32.4583C37.198 32.4278 37.198 32.3973 37.198 32.3668C37.198 32.3363 37.198 32.3058 37.198 32.2753C37.198 32.2448 37.198 32.2143 37.198 32.1838C37.198 32.1533 37.198 32.1228 37.198 32.0923C37.198 32.0619 37.198 32.0314 37.198 32.0009C37.198 31.9704 37.198 31.9399 37.198 31.9095C37.198 31.879 37.198 31.8486 37.198 31.8181C37.198 31.7876 37.198 31.7572 37.198 31.7267C37.198 31.6963 37.198 31.6659 37.198 31.6354C37.198 31.605 37.198 31.5746 37.198 31.5441C37.198 31.5137 37.198 31.4833 37.198 31.4529C37.198 31.4225 37.198 31.3921 37.198 31.3617C37.198 31.3313 37.198 31.3009 37.198 31.2705C37.198 31.2401 37.198 31.2097 37.198 31.1793C37.198 31.149 37.198 31.1186 37.198 31.0882C37.198 31.0579 37.198 31.0275 37.198 30.9972C37.198 30.9668 37.198 30.9365 37.198 30.9061C37.198 30.8758 37.198 30.8455 37.198 30.8152C37.198 30.7849 37.198 30.7545 37.198 30.7242C37.198 30.6939 37.198 30.6637 37.198 30.6334C37.198 30.6031 37.198 30.5728 37.198 30.5425C37.198 30.5123 37.198 30.482 37.198 30.4518C37.198 30.4215 37.198 30.3913 37.198 30.361C37.198 30.3308 37.198 30.3006 37.198 30.2704C37.198 30.2402 37.198 30.2099 37.198 30.1798C37.198 30.1496 37.198 30.1194 37.198 30.0892C37.198 30.059 37.198 30.0288 37.198 29.9987C37.198 29.9685 37.198 29.9384 37.198 29.9083C37.198 29.8781 37.198 29.848 37.198 29.8179C37.198 29.7878 37.198 29.7577 37.198 29.7276C37.198 29.6975 37.198 29.6674 37.198 29.6373C37.198 29.6072 37.198 29.5772 37.198 29.5471C37.198 29.5171 37.198 29.487 37.198 29.457C37.198 29.427 37.198 29.397 37.198 29.367C37.198 29.3369 37.198 29.307 37.198 29.277C37.198 29.247 37.198 29.217 37.198 29.1871C37.198 29.1571 37.198 29.1272 37.198 29.0972C37.198 29.0673 37.198 29.0374 37.198 29.0075C37.198 28.9776 37.198 28.9477 37.198 28.9178C37.198 28.8879 37.198 28.858 37.198 28.8282C37.198 28.7983 37.198 28.7685 37.198 28.7387C37.198 28.7088 37.198 28.679 37.198 28.6492C37.198 28.6194 37.198 28.5896 37.198 28.5599C37.198 28.5301 37.198 28.5003 37.198 28.4706C37.198 28.4408 37.198 28.4111 37.198 28.3814C37.198 28.3517 37.198 28.322 37.198 28.2923C37.198 28.2626 37.198 28.2329 37.198 28.2033C37.198 28.1736 37.198 28.144 37.198 28.1143C37.198 28.0847 37.198 28.0551 37.198 28.0255C37.198 27.9959 37.198 27.9663 37.198 27.9368C37.198 27.9072 37.198 27.8777 37.198 27.8481C37.198 27.8186 37.198 27.7891 37.198 27.7596C37.198 27.7301 37.198 27.7006 37.198 27.6711C37.198 27.6416 37.198 27.6122 37.198 27.5828C37.198 27.5533 37.198 27.5239 37.198 27.4945C37.198 27.4651 37.198 27.4357 37.198 27.4064C37.198 27.377 37.198 27.3476 37.198 27.3183C37.198 27.289 37.198 27.2597 37.198 27.2304C37.198 27.2011 37.198 27.1718 37.198 27.1425C37.198 27.1133 37.198 27.084 37.198 27.0548C37.198 27.0256 37.198 26.9964 37.198 26.9672C37.198 26.938 37.198 26.9088 37.198 26.8797C37.198 26.8505 37.198 26.8214 37.198 26.7923C37.198 26.7632 37.198 26.7341 37.198 26.705C37.198 26.6759 37.198 26.6469 37.198 26.6178C37.198 26.5888 37.198 26.5598 37.198 26.5308C37.198 26.5018 37.198 26.4728 37.198 26.4438C37.198 26.4149 37.198 26.3859 37.198 26.357C37.198 26.3281 37.198 26.2992 37.198 26.2703C37.198 26.2415 37.198 26.2126 37.198 26.1838C37.198 26.1549 37.198 26.1261 37.198 26.0973C37.198 26.0685 37.198 26.0398 37.198 26.011C37.198 25.9823 37.198 25.9535 37.198 25.9248C37.198 25.8961 37.198 25.8674 37.198 25.8388C37.198 25.8101 37.198 25.7815 37.198 25.7528C37.198 25.7242 37.198 25.6956 37.198 25.667C37.198 25.6385 37.198 25.6099 37.198 25.5814C37.198 25.5528 37.198 25.5243 37.198 25.4958C37.198 25.4674 37.198 25.4389 37.198 25.4104C37.198 25.382 37.198 25.3536 37.198 25.3252C37.198 25.2968 37.198 25.2684 37.198 25.2401C37.198 25.2117 37.198 25.1834 37.198 25.1551C37.198 25.1268 37.198 25.0985 37.198 25.0703C37.198 25.042 37.198 25.0138 37.198 24.9856C37.198 24.9574 37.198 24.9292 37.198 24.901C37.198 24.8729 37.198 24.8447 37.198 24.8166C37.198 24.7885 37.198 24.7604 37.198 24.7324C37.198 24.7043 37.198 24.6763 37.198 24.6483C37.198 24.6203 37.198 24.5923 37.198 24.5643C37.198 24.5364 37.198 24.5085 37.198 24.4806C37.198 24.4526 37.198 24.4248 37.198 24.3969C37.198 24.3691 37.198 24.3412 37.198 24.3134C37.198 24.2856 37.198 24.2579 37.198 24.2301C37.198 24.2024 37.198 24.1746 37.198 24.1469C37.198 24.1192 37.198 24.0916 37.198 24.0639C37.198 24.0363 37.198 24.0087 37.198 23.9811C37.198 23.9535 37.198 23.9259 37.198 23.8984C37.198 23.8709 37.198 23.8434 37.198 23.8159C37.198 23.7884 37.198 23.761 37.198 23.7335C37.198 23.7061 37.198 23.6787 37.198 23.6514C37.198 23.624 37.198 23.5967 37.198 23.5693C37.198 23.542 37.198 23.5148 37.198 23.4875C37.198 23.4603 37.198 23.433 37.198 23.4058C37.198 23.3786 37.198 23.3515 37.198 23.3243C37.198 23.2972 37.198 23.2701 37.198 23.243C37.198 23.216 37.198 23.1889 37.198 23.1619C37.198 23.1349 37.198 23.1079 37.198 23.0809C37.198 23.054 37.198 23.027 37.198 23.0001C37.198 22.9732 37.198 22.9464 37.198 22.9195C37.198 22.8927 37.198 22.8659 37.198 22.8391C37.198 22.8123 37.198 22.7856 37.198 22.7589C37.198 22.7322 37.198 22.7055 37.198 22.6788C37.198 22.6522 37.198 22.6256 37.198 22.599C37.198 22.5724 37.198 22.5458 37.198 22.5193C37.198 22.4928 37.198 22.4663 37.198 22.4398C37.198 22.4134 37.198 22.3869 37.198 22.3605C37.198 22.3341 37.198 22.3078 37.198 22.2814C37.198 22.2551 37.198 22.2288 37.198 22.2025C37.198 22.1763 37.198 22.15 37.198 22.1238C37.198 22.0976 37.198 22.0715 37.198 22.0453C37.198 22.0192 37.198 21.9931 37.198 21.967C37.198 21.9409 37.198 21.9149 37.198 21.8889C37.198 21.8629 37.198 21.8369 37.198 21.811C37.198 21.7851 37.198 21.7592 37.198 21.7333C37.198 21.7074 37.198 21.6816 37.198 21.6558C37.198 21.63 37.198 21.6042 37.198 21.5785C37.198 21.5528 37.198 21.5271 37.198 21.5014C37.198 21.4758 37.198 21.4501 37.198 21.4246C37.198 21.399 37.198 21.3734 37.198 21.3479C37.198 21.3224 37.198 21.2969 37.198 21.2715C37.198 21.246 37.198 21.2206 37.198 21.1952C37.198 21.1699 37.198 21.1445 37.198 21.1192C37.198 21.0939 37.198 21.0686 37.198 21.0434C37.198 21.0182 37.198 20.993 37.198 20.9678C37.198 20.9427 37.198 20.9176 37.198 20.8925C37.198 20.8674 37.198 20.8423 37.198 20.8173C37.198 20.7923 37.198 20.7674 37.198 20.7424C37.198 20.7175 37.198 20.6926 37.198 20.6677C37.198 20.6429 37.198 20.6181 37.198 20.5933C37.198 20.5685 37.198 20.5437 37.198 20.519C37.198 20.4943 37.198 20.4697 37.198 20.445C37.198 20.4204 37.198 20.3958 37.198 20.3713C37.198 20.3467 37.198 20.3222 37.198 20.2977C37.198 20.2732 37.198 20.2488 37.198 20.2244C37.198 20.2 37.198 20.1757 37.198 20.1513C37.198 20.127 37.198 20.1027 37.198 20.0785C37.198 20.0543 37.198 20.0301 37.198 20.0059C37.198 19.9818 37.198 19.9576 37.198 19.9336C37.198 19.9095 37.198 19.8854 37.198 19.8614C37.198 19.8374 37.198 19.8135 37.198 19.7896C37.198 19.7657 37.198 19.7418 37.198 19.7179C37.198 19.6941 37.198 19.6703 37.198 19.6466C37.198 19.6228 37.198 19.5991 37.198 19.5754C37.198 19.5518 37.198 19.5281 37.198 19.5045C37.198 19.481 37.198 19.4574 37.198 19.4339C37.198 19.4104 37.198 19.3869 37.198 19.3635C37.198 19.3401 37.198 19.3167 37.198 19.2934C37.198 19.2701 37.198 19.2468 37.198 19.2235C37.198 19.2003 37.198 19.1771 37.198 19.1539C37.198 19.1307 37.198 19.1076 37.198 19.0845C37.198 19.0615 37.198 19.0384 37.198 19.0154C37.198 18.9925 37.198 18.9695 37.198 18.9466C37.198 18.9237 37.198 18.9008 37.198 18.878C37.198 18.8552 37.198 18.8324 37.198 18.8097C37.198 18.787 37.198 18.7643 37.198 18.7417C37.198 18.719 37.198 18.6964 37.198 18.6739C37.198 18.6513 37.198 18.6288 37.198 18.6064C37.198 18.5839 37.198 18.5615 37.198 18.5391H33.198C33.198 18.5615 33.198 18.5839 33.198 18.6064C33.198 18.6288 33.198 18.6513 33.198 18.6739C33.198 18.6964 33.198 18.719 33.198 18.7417C33.198 18.7643 33.198 18.787 33.198 18.8097C33.198 18.8324 33.198 18.8552 33.198 18.878C33.198 18.9008 33.198 18.9237 33.198 18.9466C33.198 18.9695 33.198 18.9925 33.198 19.0154C33.198 19.0384 33.198 19.0615 33.198 19.0845C33.198 19.1076 33.198 19.1307 33.198 19.1539C33.198 19.1771 33.198 19.2003 33.198 19.2235C33.198 19.2468 33.198 19.2701 33.198 19.2934C33.198 19.3167 33.198 19.3401 33.198 19.3635C33.198 19.3869 33.198 19.4104 33.198 19.4339C33.198 19.4574 33.198 19.481 33.198 19.5045C33.198 19.5281 33.198 19.5518 33.198 19.5754C33.198 19.5991 33.198 19.6228 33.198 19.6466C33.198 19.6703 33.198 19.6941 33.198 19.7179C33.198 19.7418 33.198 19.7657 33.198 19.7896C33.198 19.8135 33.198 19.8374 33.198 19.8614C33.198 19.8854 33.198 19.9095 33.198 19.9336C33.198 19.9576 33.198 19.9818 33.198 20.0059C33.198 20.0301 33.198 20.0543 33.198 20.0785C33.198 20.1027 33.198 20.127 33.198 20.1513C33.198 20.1757 33.198 20.2 33.198 20.2244C33.198 20.2488 33.198 20.2732 33.198 20.2977C33.198 20.3222 33.198 20.3467 33.198 20.3713C33.198 20.3958 33.198 20.4204 33.198 20.445C33.198 20.4697 33.198 20.4943 33.198 20.519C33.198 20.5437 33.198 20.5685 33.198 20.5933C33.198 20.6181 33.198 20.6429 33.198 20.6677C33.198 20.6926 33.198 20.7175 33.198 20.7424C33.198 20.7674 33.198 20.7923 33.198 20.8173C33.198 20.8423 33.198 20.8674 33.198 20.8925C33.198 20.9176 33.198 20.9427 33.198 20.9678C33.198 20.993 33.198 21.0182 33.198 21.0434C33.198 21.0686 33.198 21.0939 33.198 21.1192C33.198 21.1445 33.198 21.1699 33.198 21.1952C33.198 21.2206 33.198 21.246 33.198 21.2715C33.198 21.2969 33.198 21.3224 33.198 21.3479C33.198 21.3734 33.198 21.399 33.198 21.4246C33.198 21.4501 33.198 21.4758 33.198 21.5014C33.198 21.5271 33.198 21.5528 33.198 21.5785C33.198 21.6042 33.198 21.63 33.198 21.6558C33.198 21.6816 33.198 21.7074 33.198 21.7333C33.198 21.7592 33.198 21.7851 33.198 21.811C33.198 21.8369 33.198 21.8629 33.198 21.8889C33.198 21.9149 33.198 21.9409 33.198 21.967C33.198 21.9931 33.198 22.0192 33.198 22.0453C33.198 22.0715 33.198 22.0976 33.198 22.1238C33.198 22.15 33.198 22.1763 33.198 22.2025C33.198 22.2288 33.198 22.2551 33.198 22.2814C33.198 22.3078 33.198 22.3341 33.198 22.3605C33.198 22.3869 33.198 22.4134 33.198 22.4398C33.198 22.4663 33.198 22.4928 33.198 22.5193C33.198 22.5458 33.198 22.5724 33.198 22.599C33.198 22.6256 33.198 22.6522 33.198 22.6788C33.198 22.7055 33.198 22.7322 33.198 22.7589C33.198 22.7856 33.198 22.8123 33.198 22.8391C33.198 22.8659 33.198 22.8927 33.198 22.9195C33.198 22.9464 33.198 22.9732 33.198 23.0001C33.198 23.027 33.198 23.054 33.198 23.0809C33.198 23.1079 33.198 23.1349 33.198 23.1619C33.198 23.1889 33.198 23.216 33.198 23.243C33.198 23.2701 33.198 23.2972 33.198 23.3243C33.198 23.3515 33.198 23.3786 33.198 23.4058C33.198 23.433 33.198 23.4603 33.198 23.4875C33.198 23.5148 33.198 23.542 33.198 23.5693C33.198 23.5967 33.198 23.624 33.198 23.6514C33.198 23.6787 33.198 23.7061 33.198 23.7335C33.198 23.761 33.198 23.7884 33.198 23.8159C33.198 23.8434 33.198 23.8709 33.198 23.8984C33.198 23.9259 33.198 23.9535 33.198 23.9811C33.198 24.0087 33.198 24.0363 33.198 24.0639C33.198 24.0916 33.198 24.1192 33.198 24.1469C33.198 24.1746 33.198 24.2024 33.198 24.2301C33.198 24.2579 33.198 24.2856 33.198 24.3134C33.198 24.3412 33.198 24.3691 33.198 24.3969C33.198 24.4248 33.198 24.4526 33.198 24.4806C33.198 24.5085 33.198 24.5364 33.198 24.5643C33.198 24.5923 33.198 24.6203 33.198 24.6483C33.198 24.6763 33.198 24.7043 33.198 24.7324C33.198 24.7604 33.198 24.7885 33.198 24.8166C33.198 24.8447 33.198 24.8729 33.198 24.901C33.198 24.9292 33.198 24.9574 33.198 24.9856C33.198 25.0138 33.198 25.042 33.198 25.0703C33.198 25.0985 33.198 25.1268 33.198 25.1551C33.198 25.1834 33.198 25.2117 33.198 25.2401C33.198 25.2684 33.198 25.2968 33.198 25.3252C33.198 25.3536 33.198 25.382 33.198 25.4104C33.198 25.4389 33.198 25.4674 33.198 25.4958C33.198 25.5243 33.198 25.5528 33.198 25.5814C33.198 25.6099 33.198 25.6385 33.198 25.667C33.198 25.6956 33.198 25.7242 33.198 25.7528C33.198 25.7815 33.198 25.8101 33.198 25.8388C33.198 25.8674 33.198 25.8961 33.198 25.9248C33.198 25.9535 33.198 25.9823 33.198 26.011C33.198 26.0398 33.198 26.0685 33.198 26.0973C33.198 26.1261 33.198 26.1549 33.198 26.1838C33.198 26.2126 33.198 26.2415 33.198 26.2703C33.198 26.2992 33.198 26.3281 33.198 26.357C33.198 26.3859 33.198 26.4149 33.198 26.4438C33.198 26.4728 33.198 26.5018 33.198 26.5308C33.198 26.5598 33.198 26.5888 33.198 26.6178C33.198 26.6469 33.198 26.6759 33.198 26.705C33.198 26.7341 33.198 26.7632 33.198 26.7923C33.198 26.8214 33.198 26.8505 33.198 26.8797C33.198 26.9088 33.198 26.938 33.198 26.9672C33.198 26.9964 33.198 27.0256 33.198 27.0548C33.198 27.084 33.198 27.1133 33.198 27.1425C33.198 27.1718 33.198 27.2011 33.198 27.2304C33.198 27.2597 33.198 27.289 33.198 27.3183C33.198 27.3476 33.198 27.377 33.198 27.4064C33.198 27.4357 33.198 27.4651 33.198 27.4945C33.198 27.5239 33.198 27.5533 33.198 27.5828C33.198 27.6122 33.198 27.6416 33.198 27.6711C33.198 27.7006 33.198 27.7301 33.198 27.7596C33.198 27.7891 33.198 27.8186 33.198 27.8481C33.198 27.8777 33.198 27.9072 33.198 27.9368C33.198 27.9663 33.198 27.9959 33.198 28.0255C33.198 28.0551 33.198 28.0847 33.198 28.1143C33.198 28.144 33.198 28.1736 33.198 28.2033C33.198 28.2329 33.198 28.2626 33.198 28.2923C33.198 28.322 33.198 28.3517 33.198 28.3814C33.198 28.4111 33.198 28.4408 33.198 28.4706C33.198 28.5003 33.198 28.5301 33.198 28.5599C33.198 28.5896 33.198 28.6194 33.198 28.6492C33.198 28.679 33.198 28.7088 33.198 28.7387C33.198 28.7685 33.198 28.7983 33.198 28.8282C33.198 28.858 33.198 28.8879 33.198 28.9178C33.198 28.9477 33.198 28.9776 33.198 29.0075C33.198 29.0374 33.198 29.0673 33.198 29.0972C33.198 29.1272 33.198 29.1571 33.198 29.1871C33.198 29.217 33.198 29.247 33.198 29.277C33.198 29.307 33.198 29.3369 33.198 29.367C33.198 29.397 33.198 29.427 33.198 29.457C33.198 29.487 33.198 29.5171 33.198 29.5471C33.198 29.5772 33.198 29.6072 33.198 29.6373C33.198 29.6674 33.198 29.6975 33.198 29.7276C33.198 29.7577 33.198 29.7878 33.198 29.8179C33.198 29.848 33.198 29.8781 33.198 29.9083C33.198 29.9384 33.198 29.9685 33.198 29.9987C33.198 30.0288 33.198 30.059 33.198 30.0892C33.198 30.1194 33.198 30.1496 33.198 30.1798C33.198 30.2099 33.198 30.2402 33.198 30.2704C33.198 30.3006 33.198 30.3308 33.198 30.361C33.198 30.3913 33.198 30.4215 33.198 30.4518C33.198 30.482 33.198 30.5123 33.198 30.5425C33.198 30.5728 33.198 30.6031 33.198 30.6334C33.198 30.6637 33.198 30.6939 33.198 30.7242C33.198 30.7545 33.198 30.7849 33.198 30.8152C33.198 30.8455 33.198 30.8758 33.198 30.9061C33.198 30.9365 33.198 30.9668 33.198 30.9972C33.198 31.0275 33.198 31.0579 33.198 31.0882C33.198 31.1186 33.198 31.149 33.198 31.1793C33.198 31.2097 33.198 31.2401 33.198 31.2705C33.198 31.3009 33.198 31.3313 33.198 31.3617C33.198 31.3921 33.198 31.4225 33.198 31.4529C33.198 31.4833 33.198 31.5137 33.198 31.5441C33.198 31.5746 33.198 31.605 33.198 31.6354C33.198 31.6659 33.198 31.6963 33.198 31.7267C33.198 31.7572 33.198 31.7876 33.198 31.8181C33.198 31.8486 33.198 31.879 33.198 31.9095C33.198 31.9399 33.198 31.9704 33.198 32.0009C33.198 32.0314 33.198 32.0619 33.198 32.0923C33.198 32.1228 33.198 32.1533 33.198 32.1838C33.198 32.2143 33.198 32.2448 33.198 32.2753C33.198 32.3058 33.198 32.3363 33.198 32.3668C33.198 32.3973 33.198 32.4278 33.198 32.4583C33.198 32.4889 33.198 32.5194 33.198 32.5499C33.198 32.5804 33.198 32.6109 33.198 32.6415C33.198 32.672 33.198 32.7025 33.198 32.733C33.198 32.7636 33.198 32.7941 33.198 32.8246C33.198 32.8552 33.198 32.8857 33.198 32.9163C33.198 32.9468 33.198 32.9773 33.198 33.0079C33.198 33.0384 33.198 33.069 33.198 33.0995C33.198 33.1301 33.198 33.1606 33.198 33.1912C33.198 33.2217 33.198 33.2523 33.198 33.2828C33.198 33.3134 33.198 33.3439 33.198 33.3745C33.198 33.405 33.198 33.4356 33.198 33.4662C33.198 33.4967 33.198 33.5273 33.198 33.5578C33.198 33.5884 33.198 33.6189 33.198 33.6495C33.198 33.6801 33.198 33.7106 33.198 33.7412C33.198 33.7717 33.198 33.8023 33.198 33.8328C33.198 33.8634 33.198 33.8939 33.198 33.9245C33.198 33.9551 33.198 33.9856 33.198 34.0162C33.198 34.0467 33.198 34.0773 33.198 34.1078C33.198 34.1384 33.198 34.1689 33.198 34.1995C33.198 34.23 33.198 34.2606 33.198 34.2911C33.198 34.3216 33.198 34.3522 33.198 34.3827C33.198 34.4133 33.198 34.4438 33.198 34.4743C33.198 34.5049 33.198 34.5354 33.198 34.5659C33.198 34.5965 33.198 34.627 33.198 34.6575C33.198 34.6881 33.198 34.7186 33.198 34.7491C33.198 34.7796 33.198 34.8101 33.198 34.8407C33.198 34.8712 33.198 34.9017 33.198 34.9322C33.198 34.9627 33.198 34.9932 33.198 35.0237C33.198 35.0542 33.198 35.0847 33.198 35.1152C33.198 35.1457 33.198 35.1762 33.198 35.2066C33.198 35.2371 33.198 35.2676 33.198 35.2981C33.198 35.3286 33.198 35.359 33.198 35.3895C33.198 35.42 33.198 35.4504 33.198 35.4809C33.198 35.5113 33.198 35.5418 33.198 35.5722C33.198 35.6027 33.198 35.6331 33.198 35.6636C33.198 35.694 33.198 35.7244 33.198 35.7549C33.198 35.7853 33.198 35.8157 33.198 35.8461C33.198 35.8765 33.198 35.9069 33.198 35.9373C33.198 35.9677 33.198 35.9981 33.198 36.0285C33.198 36.0589 33.198 36.0893 33.198 36.1197C33.198 36.15 33.198 36.1804 33.198 36.2108C33.198 36.2411 33.198 36.2715 33.198 36.3018C33.198 36.3322 33.198 36.3625 33.198 36.3928C33.198 36.4232 33.198 36.4535 33.198 36.4838C33.198 36.5141 33.198 36.5444 33.198 36.5747C33.198 36.605 33.198 36.6353 33.198 36.6656C33.198 36.6959 33.198 36.7262 33.198 36.7564C33.198 36.7867 33.198 36.817 33.198 36.8472C33.198 36.8775 33.198 36.9077 33.198 36.9379C33.198 36.9682 33.198 36.9984 33.198 37.0286C33.198 37.0588 33.198 37.089 33.198 37.1192C33.198 37.1494 33.198 37.1796 33.198 37.2098C33.198 37.24 33.198 37.2701 33.198 37.3003C33.198 37.3304 33.198 37.3606 33.198 37.3907C33.198 37.4209 33.198 37.451 33.198 37.4811C33.198 37.5112 33.198 37.5413 33.198 37.5714C33.198 37.6015 33.198 37.6316 33.198 37.6617C33.198 37.6917 33.198 37.7218 33.198 37.7518C33.198 37.7819 33.198 37.8119 33.198 37.842C33.198 37.872 33.198 37.902 33.198 37.932C33.198 37.962 33.198 37.992 33.198 38.022C33.198 38.052 33.198 38.0819 33.198 38.1119C33.198 38.1418 33.198 38.1718 33.198 38.2017C33.198 38.2316 33.198 38.2616 33.198 38.2915C33.198 38.3214 33.198 38.3513 33.198 38.3812C33.198 38.411 33.198 38.4409 33.198 38.4708C33.198 38.5006 33.198 38.5305 33.198 38.5603C33.198 38.5901 33.198 38.6199 33.198 38.6497C33.198 38.6795 33.198 38.7093 33.198 38.7391C33.198 38.7689 33.198 38.7986 33.198 38.8284C33.198 38.8581 33.198 38.8878 33.198 38.9175C33.198 38.9473 33.198 38.977 33.198 39.0066C33.198 39.0363 33.198 39.066 33.198 39.0957C33.198 39.1253 33.198 39.155 33.198 39.1846C33.198 39.2142 33.198 39.2438 33.198 39.2734C33.198 39.303 33.198 39.3326 33.198 39.3622C33.198 39.3917 33.198 39.4213 33.198 39.4508C33.198 39.4803 33.198 39.5098 33.198 39.5394C33.198 39.5689 33.198 39.5983 33.198 39.6278C33.198 39.6573 33.198 39.6867 33.198 39.7162C33.198 39.7456 33.198 39.775 33.198 39.8044C33.198 39.8338 33.198 39.8632 33.198 39.8926C33.198 39.9219 33.198 39.9513 33.198 39.9806C33.198 40.0099 33.198 40.0392 33.198 40.0685C33.198 40.0978 33.198 40.1271 33.198 40.1564C33.198 40.1856 33.198 40.2149 33.198 40.2441C33.198 40.2733 33.198 40.3025 33.198 40.3317C33.198 40.3609 33.198 40.3901 33.198 40.4192C33.198 40.4484 33.198 40.4775 33.198 40.5066C33.198 40.5357 33.198 40.5648 33.198 40.5939C33.198 40.623 33.198 40.652 33.198 40.6811C33.198 40.7101 33.198 40.7391 33.198 40.7681C33.198 40.7971 33.198 40.8261 33.198 40.855C33.198 40.884 33.198 40.9129 33.198 40.9419C33.198 40.9708 33.198 40.9997 33.198 41.0285C33.198 41.0574 33.198 41.0863 33.198 41.1151C33.198 41.1439 33.198 41.1728 33.198 41.2015C33.198 41.2303 33.198 41.2591 33.198 41.2879C33.198 41.3166 33.198 41.3453 33.198 41.3741C33.198 41.4028 33.198 41.4314 33.198 41.4601C33.198 41.4888 33.198 41.5174 33.198 41.546C33.198 41.5747 33.198 41.6033 33.198 41.6318C33.198 41.6604 33.198 41.689 33.198 41.7175C33.198 41.746 33.198 41.7745 33.198 41.803C33.198 41.8315 33.198 41.86 33.198 41.8884C33.198 41.9169 33.198 41.9453 33.198 41.9737C33.198 42.0021 33.198 42.0304 33.198 42.0588C33.198 42.0871 33.198 42.1154 33.198 42.1437C33.198 42.172 33.198 42.2003 33.198 42.2286C33.198 42.2568 33.198 42.2851 33.198 42.3133C33.198 42.3415 33.198 42.3696 33.198 42.3978C33.198 42.426 33.198 42.4541 33.198 42.4822C33.198 42.5103 33.198 42.5384 33.198 42.5664C33.198 42.5945 33.198 42.6225 33.198 42.6505C33.198 42.6785 33.198 42.7065 33.198 42.7345C33.198 42.7624 33.198 42.7904 33.198 42.8183C33.198 42.8462 33.198 42.8741 33.198 42.9019C33.198 42.9298 33.198 42.9576 33.198 42.9854C33.198 43.0132 33.198 43.041 33.198 43.0687C33.198 43.0965 33.198 43.1242 33.198 43.1519C33.198 43.1796 33.198 43.2072 33.198 43.2349C33.198 43.2625 33.198 43.2901 33.198 43.3177C33.198 43.3453 33.198 43.3729 33.198 43.4004C33.198 43.4279 33.198 43.4554 33.198 43.4829C33.198 43.5104 33.198 43.5378 33.198 43.5652C33.198 43.5927 33.198 43.6201 33.198 43.6474C33.198 43.6748 33.198 43.7021 33.198 43.7294C33.198 43.7567 33.198 43.784 33.198 43.8113C33.198 43.8385 33.198 43.8657 33.198 43.8929C33.198 43.9201 33.198 43.9473 33.198 43.9744C33.198 44.0016 33.198 44.0287 33.198 44.0557C33.198 44.0828 33.198 44.1099 33.198 44.1369C33.198 44.1639 33.198 44.1909 33.198 44.2178C33.198 44.2448 33.198 44.2717 33.198 44.2986C33.198 44.3255 33.198 44.3524 33.198 44.3792C33.198 44.4061 33.198 44.4329 33.198 44.4596C33.198 44.4864 33.198 44.5131 33.198 44.5399C33.198 44.5666 33.198 44.5933 33.198 44.6199C33.198 44.6466 33.198 44.6732 33.198 44.6998C33.198 44.7264 33.198 44.7529 33.198 44.7794C33.198 44.806 33.198 44.8325 33.198 44.8589C33.198 44.8854 33.198 44.9118 33.198 44.9382C33.198 44.9646 33.198 44.991 33.198 45.0173C33.198 45.0436 33.198 45.0699 33.198 45.0962C33.198 45.1225 33.198 45.1487 33.198 45.1749C33.198 45.2011 33.198 45.2273 33.198 45.2534C33.198 45.2795 33.198 45.3056 33.198 45.3317C33.198 45.3578 33.198 45.3838 33.198 45.4098C33.198 45.4358 33.198 45.4618 33.198 45.4877C33.198 45.5136 33.198 45.5395 33.198 45.5654C33.198 45.5913 33.198 45.6171 33.198 45.6429C33.198 45.6687 33.198 45.6944 33.198 45.7202C33.198 45.7459 33.198 45.7716 33.198 45.7972C33.198 45.8229 33.198 45.8485 33.198 45.8741C33.198 45.8997 33.198 45.9252 33.198 45.9508C33.198 45.9763 33.198 46.0018 33.198 46.0272C33.198 46.0527 33.198 46.0781 33.198 46.1034C33.198 46.1288 33.198 46.1541 33.198 46.1794C33.198 46.2047 33.198 46.23 33.198 46.2552C33.198 46.2805 33.198 46.3057 33.198 46.3308C33.198 46.356 33.198 46.3811 33.198 46.4062C33.198 46.4312 33.198 46.4563 33.198 46.4813C33.198 46.5063 33.198 46.5313 33.198 46.5562C33.198 46.5811 33.198 46.606 33.198 46.6309C33.198 46.6557 33.198 46.6806 33.198 46.7053C33.198 46.7301 33.198 46.7549 33.198 46.7796C33.198 46.8043 33.198 46.8289 33.198 46.8536C33.198 46.8782 33.198 46.9028 33.198 46.9273C33.198 46.9519 33.198 46.9764 33.198 47.0009C33.198 47.0253 33.198 47.0498 33.198 47.0742C33.198 47.0986 33.198 47.1229 33.198 47.1472C33.198 47.1716 33.198 47.1958 33.198 47.2201C33.198 47.2443 33.198 47.2685 33.198 47.2927C33.198 47.3168 33.198 47.3409 33.198 47.365C33.198 47.3891 33.198 47.4131 33.198 47.4371C33.198 47.4611 33.198 47.4851 33.198 47.509C33.198 47.5329 33.198 47.5568 33.198 47.5806C33.198 47.6044 33.198 47.6282 33.198 47.652C33.198 47.6757 33.198 47.6994 33.198 47.7231C33.198 47.7468 33.198 47.7704 33.198 47.794C33.198 47.8176 33.198 47.8411 33.198 47.8646C33.198 47.8881 33.198 47.9116 33.198 47.935C33.198 47.9584 33.198 47.9818 33.198 48.0051C33.198 48.0285 33.198 48.0518 33.198 48.075C33.198 48.0982 33.198 48.1214 33.198 48.1446C33.198 48.1678 33.198 48.1909 33.198 48.214C33.198 48.237 33.198 48.2601 33.198 48.2831C33.198 48.306 33.198 48.329 33.198 48.3519C33.198 48.3748 33.198 48.3977 33.198 48.4205C33.198 48.4433 33.198 48.466 33.198 48.4888C33.198 48.5115 33.198 48.5342 33.198 48.5568C33.198 48.5794 33.198 48.602 33.198 48.6246C33.198 48.6471 33.198 48.6696 33.198 48.6921C33.198 48.7146 33.198 48.737 33.198 48.7593C33.198 48.7817 33.198 48.804 33.198 48.8263C33.198 48.8486 33.198 48.8708 33.198 48.893C33.198 48.9152 33.198 48.9373 33.198 48.9594C33.198 48.9815 33.198 49.0035 33.198 49.0256C33.198 49.0476 33.198 49.0695 33.198 49.0914C33.198 49.1133 33.198 49.1352 33.198 49.157C33.198 49.1788 33.198 49.2006 33.198 49.2223C33.198 49.244 33.198 49.2657 33.198 49.2873C33.198 49.309 33.198 49.3305 33.198 49.3521C33.198 49.3736 33.198 49.3951 33.198 49.4165C33.198 49.438 33.198 49.4594 33.198 49.4807C33.198 49.502 33.198 49.5233 33.198 49.5446C33.198 49.5658 33.198 49.587 33.198 49.6082C33.198 49.6293 33.198 49.6504 33.198 49.6715C33.198 49.6925 33.198 49.7135 33.198 49.7345C33.198 49.7554 33.198 49.7763 33.198 49.7972C33.198 49.818 33.198 49.8388 33.198 49.8596C33.198 49.8804 33.198 49.9011 33.198 49.9217C33.198 49.9424 33.198 49.963 33.198 49.9835C33.198 50.0041 33.198 50.0246 33.198 50.0451C33.198 50.0655 33.198 50.0859 33.198 50.1063C33.198 50.1266 33.198 50.1469 33.198 50.1672C33.198 50.1875 33.198 50.2077 33.198 50.2278C33.198 50.248 33.198 50.2681 33.198 50.2881C33.198 50.3082 33.198 50.3282 33.198 50.3481C33.198 50.3681 33.198 50.388 33.198 50.4078C33.198 50.4277 33.198 50.4475 33.198 50.4672C33.198 50.4869 33.198 50.5066 33.198 50.5263C33.198 50.5459 33.198 50.5655 33.198 50.585C33.198 50.6046 33.198 50.624 33.198 50.6435C33.198 50.6629 33.198 50.6823 33.198 50.7016C33.198 50.7209 33.198 50.7402 33.198 50.7594C33.198 50.7786 33.198 50.7978 33.198 50.8169C33.198 50.836 33.198 50.855 33.198 50.8741C33.198 50.8931 33.198 50.912 33.198 50.9309C33.198 50.9498 33.198 50.9686 33.198 50.9874C33.198 51.0062 33.198 51.0249 33.198 51.0436C33.198 51.0623 33.198 51.0809 33.198 51.0995C33.198 51.118 33.198 51.1366 33.198 51.155C33.198 51.1735 33.198 51.1919 33.198 51.2102C33.198 51.2286 33.198 51.2469 33.198 51.2651C33.198 51.2833 33.198 51.3015 33.198 51.3196C33.198 51.3378 33.198 51.3558 33.198 51.3739C33.198 51.3919 33.198 51.4098 33.198 51.4277C33.198 51.4456 33.198 51.4635 33.198 51.4813C33.198 51.4991 33.198 51.5168 33.198 51.5345C33.198 51.5521 33.198 51.5698 33.198 51.5873C33.198 51.6049 33.198 51.6224 33.198 51.6398C33.198 51.6573 33.198 51.6747 33.198 51.692C33.198 51.7093 33.198 51.7266 33.198 51.7438C33.198 51.7611 33.198 51.7782 33.198 51.7953C33.198 51.8124 33.198 51.8295 33.198 51.8464C33.198 51.8634 33.198 51.8804 33.198 51.8972C33.198 51.9141 33.198 51.9309 33.198 51.9477C33.198 51.9644 33.198 51.9811 33.198 51.9977C33.198 52.0144 33.198 52.0309 33.198 52.0475C33.198 52.064 33.198 52.0804 33.198 52.0968C33.198 52.1132 33.198 52.1296 33.198 52.1458C33.198 52.1621 33.198 52.1783 33.198 52.1945C33.198 52.2107 33.198 52.2268 33.198 52.2428C33.198 52.2588 33.198 52.2748 33.198 52.2907C33.198 52.3066 33.198 52.3225 33.198 52.3383C33.198 52.3541 33.198 52.3698 33.198 52.3855C33.198 52.4012 33.198 52.4168 33.198 52.4324C33.198 52.4479 33.198 52.4634 33.198 52.4788C33.198 52.4943 33.198 52.5096 33.198 52.5249C33.198 52.5402 33.198 52.5555 33.198 52.5707C33.198 52.5858 33.198 52.601 33.198 52.616C33.198 52.6311 33.198 52.6461 33.198 52.661C33.198 52.6759 33.198 52.6908 33.198 52.7056C33.198 52.7204 33.198 52.7352 33.198 52.7499C33.198 52.7645 33.198 52.7792 33.198 52.7937C33.198 52.8083 33.198 52.8228 33.198 52.8372C33.198 52.8516 33.198 52.866 33.198 52.8803C33.198 52.8946 33.198 52.9088 33.198 52.923C33.198 52.9372 33.198 52.9513 33.198 52.9653C33.198 52.9794 33.198 52.9934 33.198 53.0073C33.198 53.0212 33.198 53.0351 33.198 53.0488C33.198 53.0626 33.198 53.0764 33.198 53.09C33.198 53.1037 33.198 53.1173 33.198 53.1308C33.198 53.1443 33.198 53.1578 33.198 53.1712C33.198 53.1846 33.198 53.1979 33.198 53.2112C33.198 53.2245 33.198 53.2377 33.198 53.2508C33.198 53.2639 33.198 53.277 33.198 53.29C33.198 53.303 33.198 53.3159 33.198 53.3288C33.198 53.3417 33.198 53.3545 33.198 53.3672C33.198 53.38 33.198 53.3926 33.198 53.4052C33.198 53.4178 33.198 53.4304 33.198 53.4428C33.198 53.4553 33.198 53.4677 33.198 53.48C33.198 53.4924 33.198 53.5046 33.198 53.5168C33.198 53.529 33.198 53.5412 33.198 53.5532C33.198 53.5653 33.198 53.5773 33.198 53.5892C33.198 53.6011 33.198 53.613 33.198 53.6248C33.198 53.6366 33.198 53.6483 33.198 53.66C33.198 53.6716 33.198 53.6832 33.198 53.6947C33.198 53.7062 33.198 53.7177 33.198 53.729C33.198 53.7404 33.198 53.7517 33.198 53.763C33.198 53.7742 33.198 53.7854 33.198 53.7965C33.198 53.8076 33.198 53.8186 33.198 53.8296C33.198 53.8405 33.198 53.8514 33.198 53.8622C33.198 53.873 33.198 53.8838 33.198 53.8945C33.198 53.9052 33.198 53.9158 33.198 53.9263C33.198 53.9368 33.198 53.9473 33.198 53.9577C33.198 53.9681 33.198 53.9784 33.198 53.9887C33.198 53.9989 33.198 54.0091 33.198 54.0192C33.198 54.0293 33.198 54.0394 33.198 54.0493C33.198 54.0593 33.198 54.0692 33.198 54.079C33.198 54.0888 33.198 54.0986 33.198 54.1083C33.198 54.118 33.198 54.1276 33.198 54.1371C33.198 54.1466 33.198 54.1561 33.198 54.1655C33.198 54.1749 33.198 54.1842 33.198 54.1934C33.198 54.2027 33.198 54.2118 33.198 54.2209C33.198 54.23 33.198 54.2391 33.198 54.248C33.198 54.257 33.198 54.2658 33.198 54.2746C33.198 54.2834 33.198 54.2922 33.198 54.3008C33.198 54.3095 33.198 54.3181 33.198 54.3266C33.198 54.3351 33.198 54.3435 33.198 54.3519C33.198 54.3602 33.198 54.3685 33.198 54.3767C33.198 54.3849 33.198 54.3931 33.198 54.4011C33.198 54.4092 33.198 54.4172 33.198 54.4251C33.198 54.433 33.198 54.4408 33.198 54.4486C33.198 54.4563 33.198 54.464 33.198 54.4716C33.198 54.4792 33.198 54.4868 33.198 54.4942C33.198 54.5017 33.198 54.5091 33.198 54.5164C33.198 54.5237 33.198 54.5309 33.198 54.5381C33.198 54.5452 33.198 54.5523 33.198 54.5593C33.198 54.5663 33.198 54.5732 33.198 54.58C33.198 54.5869 33.198 54.5937 33.198 54.6003C33.198 54.607 33.198 54.6136 33.198 54.6202C33.198 54.6267 33.198 54.6332 33.198 54.6396C33.198 54.6459 33.198 54.6522 33.198 54.6585C33.198 54.6647 33.198 54.6708 33.198 54.6769C33.198 54.683 33.198 54.689 33.198 54.6949C33.198 54.7008 33.198 54.7066 33.198 54.7124C33.198 54.7181 33.198 54.7238 33.198 54.7294C33.198 54.735 33.198 54.7405 33.198 54.7459C33.198 54.7514 33.198 54.7567 33.198 54.762C33.198 54.7673 33.198 54.7725 33.198 54.7776C33.198 54.7827 33.198 54.7878 33.198 54.7927C33.198 54.7977 33.198 54.8026 33.198 54.8074C33.198 54.8122 33.198 54.8169 33.198 54.8215C33.198 54.8262 33.198 54.8307 33.198 54.8352C33.198 54.8397 33.198 54.8441 33.198 54.8484C33.198 54.8527 33.198 54.857 33.198 54.8611C33.198 54.8653 33.198 54.8693 33.198 54.8733C33.198 54.8773 33.198 54.8812 33.198 54.8851C33.198 54.8889 33.198 54.8926 33.198 54.8963C33.198 54.9 33.198 54.9035 33.198 54.907C33.198 54.9105 33.198 54.914 33.198 54.9173C33.198 54.9206 33.198 54.9239 33.198 54.9271H37.198Z" fill="#0C2505"/>
</svg>
