<svg width="14" height="14" viewBox="0 0 14 14" fill="none" xmlns="http://www.w3.org/2000/svg">
<path d="M0.599976 1.4001C0.599976 1.18792 0.684261 0.984441 0.83429 0.834412C0.984319 0.684383 1.1878 0.600098 1.39998 0.600098H3.12238C3.31174 0.600185 3.49493 0.667442 3.63937 0.789905C3.78381 0.912369 3.88012 1.0821 3.91118 1.2689L4.50318 4.8169C4.53146 4.98587 4.50476 5.15946 4.42699 5.31212C4.34922 5.46478 4.22449 5.58844 4.07118 5.6649L2.83278 6.2833C3.27686 7.38382 3.93824 8.38352 4.7774 9.22268C5.61655 10.0618 6.61625 10.7232 7.71677 11.1673L8.33598 9.9289C8.41239 9.77573 8.53592 9.65111 8.68842 9.57335C8.84091 9.49559 9.01432 9.46879 9.18318 9.4969L12.7312 10.0889C12.918 10.12 13.0877 10.2163 13.2102 10.3607C13.3326 10.5051 13.3999 10.6883 13.4 10.8777V12.6001C13.4 12.8123 13.3157 13.0158 13.1657 13.1658C13.0156 13.3158 12.8121 13.4001 12.6 13.4001H11C5.25598 13.4001 0.599976 8.7441 0.599976 3.0001V1.4001Z" fill="#E1E1C5"/>
</svg>
