<svg width="60" height="61" viewBox="0 0 60 61" fill="none" xmlns="http://www.w3.org/2000/svg">
<path d="M30 38C34.1421 38 37.5 34.6421 37.5 30.5C37.5 26.3579 34.1421 23 30 23C25.8579 23 22.5 26.3579 22.5 30.5C22.5 34.6421 25.8579 38 30 38Z" stroke="#0C2505" stroke-width="4" stroke-linecap="round" stroke-linejoin="round"/>
<path d="M48.5 38C48.1672 38.754 48.0679 39.5905 48.215 40.4015C48.362 41.2125 48.7487 41.9608 49.325 42.55L49.475 42.7C49.9399 43.1644 50.3087 43.7158 50.5603 44.3228C50.8119 44.9298 50.9414 45.5804 50.9414 46.2375C50.9414 46.8946 50.8119 47.5452 50.5603 48.1522C50.3087 48.7592 49.9399 49.3106 49.475 49.775C49.0106 50.2399 48.4592 50.6087 47.8522 50.8603C47.2452 51.1119 46.5946 51.2414 45.9375 51.2414C45.2804 51.2414 44.6298 51.1119 44.0228 50.8603C43.4158 50.6087 42.8644 50.2399 42.4 49.775L42.25 49.625C41.6608 49.0487 40.9125 48.662 40.1015 48.515C39.2905 48.3679 38.454 48.4672 37.7 48.8C36.9606 49.1169 36.33 49.6431 35.8858 50.3138C35.4416 50.9846 35.2032 51.7705 35.2 52.575V53C35.2 54.3261 34.6732 55.5979 33.7355 56.5355C32.7979 57.4732 31.5261 58 30.2 58C28.8739 58 27.6021 57.4732 26.6645 56.5355C25.7268 55.5979 25.2 54.3261 25.2 53V52.775C25.1806 51.9475 24.9128 51.145 24.4313 50.4718C23.9498 49.7985 23.2768 49.2857 22.5 49C21.746 48.6672 20.9095 48.5679 20.0985 48.715C19.2875 48.862 18.5392 49.2487 17.95 49.825L17.8 49.975C17.3356 50.4399 16.7842 50.8087 16.1772 51.0603C15.5702 51.3119 14.9196 51.4414 14.2625 51.4414C13.6054 51.4414 12.9548 51.3119 12.3478 51.0603C11.7408 50.8087 11.1894 50.4399 10.725 49.975C10.2601 49.5106 9.89132 48.9592 9.6397 48.3522C9.38808 47.7452 9.25857 47.0946 9.25857 46.4375C9.25857 45.7804 9.38808 45.1298 9.6397 44.5228C9.89132 43.9158 10.2601 43.3644 10.725 42.9L10.875 42.75C11.4513 42.1608 11.838 41.4125 11.985 40.6015C12.1321 39.7905 12.0328 38.954 11.7 38.2C11.3831 37.4606 10.8569 36.83 10.1862 36.3858C9.51544 35.9416 8.72947 35.7032 7.925 35.7H7.5C6.17392 35.7 4.90215 35.1732 3.96447 34.2355C3.02678 33.2979 2.5 32.0261 2.5 30.7C2.5 29.3739 3.02678 28.1021 3.96447 27.1645C4.90215 26.2268 6.17392 25.7 7.5 25.7H7.725C8.55249 25.6806 9.35501 25.4128 10.0282 24.9313C10.7015 24.4498 11.2143 23.7768 11.5 23C11.8328 22.246 11.9321 21.4095 11.785 20.5985C11.638 19.7875 11.2513 19.0392 10.675 18.45L10.525 18.3C10.0601 17.8356 9.69132 17.2842 9.4397 16.6772C9.18808 16.0702 9.05857 15.4196 9.05857 14.7625C9.05857 14.1054 9.18808 13.4548 9.4397 12.8478C9.69132 12.2408 10.0601 11.6894 10.525 11.225C10.9894 10.7601 11.5408 10.3913 12.1478 10.1397C12.7548 9.88808 13.4054 9.75857 14.0625 9.75857C14.7196 9.75857 15.3702 9.88808 15.9772 10.1397C16.5842 10.3913 17.1356 10.7601 17.6 11.225L17.75 11.375C18.3392 11.9513 19.0875 12.338 19.8985 12.485C20.7095 12.6321 21.546 12.5328 22.3 12.2H22.5C23.2394 11.8831 23.87 11.3569 24.3142 10.6862C24.7584 10.0154 24.9968 9.22947 25 8.425V8C25 6.67392 25.5268 5.40215 26.4645 4.46447C27.4021 3.52678 28.6739 3 30 3C31.3261 3 32.5979 3.52678 33.5355 4.46447C34.4732 5.40215 35 6.67392 35 8V8.225C35.0032 9.02947 35.2416 9.81544 35.6858 10.4862C36.13 11.1569 36.7606 11.6831 37.5 12C38.254 12.3328 39.0905 12.4321 39.9015 12.285C40.7125 12.138 41.4608 11.7513 42.05 11.175L42.2 11.025C42.6644 10.5601 43.2158 10.1913 43.8228 9.9397C44.4298 9.68808 45.0804 9.55857 45.7375 9.55857C46.3946 9.55857 47.0452 9.68808 47.6522 9.9397C48.2592 10.1913 48.8106 10.5601 49.275 11.025C49.7399 11.4894 50.1087 12.0408 50.3603 12.6478C50.6119 13.2548 50.7414 13.9054 50.7414 14.5625C50.7414 15.2196 50.6119 15.8702 50.3603 16.4772C50.1087 17.0842 49.7399 17.6356 49.275 18.1L49.125 18.25C48.5487 18.8392 48.162 19.5875 48.015 20.3985C47.8679 21.2095 47.9672 22.046 48.3 22.8V23C48.6169 23.7394 49.1431 24.37 49.8138 24.8142C50.4846 25.2584 51.2705 25.4968 52.075 25.5H52.5C53.8261 25.5 55.0979 26.0268 56.0355 26.9645C56.9732 27.9021 57.5 29.1739 57.5 30.5C57.5 31.8261 56.9732 33.0979 56.0355 34.0355C55.0979 34.9732 53.8261 35.5 52.5 35.5H52.275C51.4705 35.5032 50.6846 35.7416 50.0138 36.1858C49.3431 36.63 48.8169 37.2606 48.5 38V38Z" stroke="#0C2505" stroke-width="4" stroke-linecap="round" stroke-linejoin="round"/>
</svg>
