<svg width="1358" height="1233" viewBox="0 0 1358 1233" fill="none" xmlns="http://www.w3.org/2000/svg">
<g clip-path="url(#clip0_71_1458)">
<path d="M46.8483 1095.54C105.828 1095.33 166.811 1095.11 194.357 1139.24C205.607 1157.26 211.426 1190.25 217.063 1222.15C223.086 1256.3 228.784 1288.56 240.638 1302.02C246.782 1308.99 255.618 1312.32 265.516 1311.38C277.72 1310.23 302.225 1301.48 329.336 1255.97C341.504 1235.54 358.778 1221.89 375.484 1208.71C397.357 1191.43 418.023 1175.12 426.472 1145.28C430.999 1129.31 431.772 1105.37 432.593 1080.03C433.824 1042.01 435.091 1002.69 448.551 981.435C473.996 941.243 527.399 929.323 579.039 917.808C613.816 910.045 649.788 902.024 676.236 885.342C705.943 866.606 720.416 838.643 720.476 799.829L720.476 799.509C720.476 752.33 704.941 684.323 680.847 626.121C651.418 555.002 613.237 507.577 573.366 492.568C525.806 474.68 465.197 487.684 388.038 532.341C365.598 545.332 341.782 557.671 318.738 569.617C286.375 586.385 252.914 603.731 222.519 623.242C198.691 638.534 180.632 659.706 163.177 680.177C139.735 707.673 117.585 733.643 82.5787 746.819C57.9657 756.082 28.8744 758.407 0.024402 759.884L0.024402 761.114C28.9951 759.637 58.2071 757.312 83.0012 747.975C118.297 734.688 141.582 707.377 164.095 680.977C181.501 660.567 199.487 639.469 223.171 624.276C253.518 604.801 286.955 587.467 319.293 570.712C342.337 558.766 366.165 546.415 388.642 533.411C465.462 488.951 525.757 475.96 572.955 493.724C612.525 508.61 650.452 555.801 679.748 626.601C703.782 684.668 719.281 752.49 719.281 799.509L719.281 799.829C719.221 838.716 705.351 865.56 675.62 884.296C649.341 900.867 613.478 908.864 578.798 916.602C526.916 928.178 473.272 940.148 447.549 980.77C433.908 1002.31 432.641 1041.79 431.397 1079.99C430.577 1105.26 429.804 1129.12 425.326 1144.94C416.972 1174.41 396.464 1190.6 374.748 1207.75C357.957 1221.01 340.599 1234.71 328.31 1255.34C301.488 1300.4 277.394 1309.03 265.42 1310.16C255.908 1311.06 247.434 1307.89 241.555 1301.21C229.931 1288.01 224.269 1255.92 218.27 1221.94C212.621 1189.92 206.778 1156.8 195.395 1138.58C167.499 1093.89 106.178 1094.1 46.8723 1094.32C30.8056 1094.38 14.9564 1094.43 0.0243875 1093.61L0.0243874 1094.85C14.9684 1095.66 30.8177 1095.61 46.8723 1095.55L46.8483 1095.54Z" fill="#0C2505" fill-opacity="0.05"/>
<path d="M9.89854 -224.973C9.46398 -273.395 9.11388 -311.643 42.068 -364.444C47.7535 -373.56 54.103 -382.577 60.2472 -391.287C69.1677 -403.959 78.4021 -417.048 85.8983 -430.876C91.4872 -441.185 95.5309 -456.883 99.8162 -473.516C106.033 -497.653 112.467 -522.614 124.296 -533.932C136.585 -545.681 186.885 -559.041 215.699 -564.7C268.208 -575.009 295.851 -546.714 330.869 -510.902C333.042 -508.675 335.251 -506.424 337.484 -504.148C341.576 -499.99 347.54 -494.922 354.456 -489.053C373.01 -473.282 398.419 -451.691 401.691 -434.05C405.964 -411.032 398.226 -402.47 388.436 -391.619C383.198 -385.813 377.271 -379.243 372.744 -369.525C347.757 -315.924 366.057 -261.105 383.741 -208.082C384.948 -204.465 386.143 -200.873 387.326 -197.281C402.366 -151.664 409.15 -99.3426 416.345 -43.9702C432.279 78.794 448.744 205.753 560.1 261.15C618.053 289.987 705.557 319.746 793.289 297.836C848.454 284.057 876.073 248.873 905.309 211.621C920.108 192.762 935.415 173.263 955.091 155.265C992.306 121.212 1021.96 146.739 1056.29 176.277C1069.26 187.435 1082.67 198.987 1097.18 207.722C1109.81 215.324 1142.47 232.019 1173.12 222.657C1190.05 217.49 1203.3 205.175 1212.47 186.07C1241.31 125.961 1227.89 90.7642 1214.9 56.7239C1206.75 35.3794 1199.06 15.2161 1201.59 -10.4096C1202.57 -20.3006 1199.69 -33.1442 1196.36 -48.0299C1187.53 -87.3356 1176.56 -136.249 1228.46 -166.414C1261.29 -185.483 1310.96 -136.385 1337.65 -110.009C1342.3 -105.42 1346.3 -101.459 1349.19 -98.912C1352.11 -96.3408 1355.05 -93.8188 1358 -91.346L1358 -92.9454C1355.32 -95.1967 1352.64 -97.4972 1349.98 -99.847C1347.12 -102.369 1343.13 -106.318 1338.49 -110.894C1311.57 -137.492 1261.48 -187.008 1227.87 -167.485C1204.48 -153.891 1191.6 -135.302 1188.51 -110.636C1185.84 -89.4023 1190.82 -67.2829 1195.2 -47.7592C1198.52 -32.9842 1201.38 -20.239 1200.41 -10.5325C1197.85 15.3883 1205.59 35.687 1213.79 57.179C1226.68 90.9733 1240 125.924 1211.4 185.541C1202.38 204.326 1189.39 216.432 1172.78 221.5C1142.58 230.715 1110.29 214.205 1097.8 206.676C1083.37 197.978 1070.01 186.476 1057.07 175.342C1023.75 146.666 992.282 119.588 954.27 154.354C934.521 172.414 919.191 191.962 904.356 210.859C875.252 247.938 847.754 282.962 793 296.655C705.617 318.491 618.403 288.806 560.631 260.068C449.854 204.954 433.426 78.3388 417.54 -44.1055C410.346 -99.5517 403.549 -151.91 388.473 -197.65C387.29 -201.23 386.095 -204.834 384.887 -208.451C367.276 -261.24 349.06 -315.825 373.83 -368.971C378.285 -378.518 384.151 -385.026 389.318 -390.758C398.938 -401.424 407.255 -410.639 402.874 -434.259C399.518 -452.331 374.965 -473.208 355.229 -489.976C348.336 -495.832 342.397 -500.888 338.341 -504.997C336.108 -507.273 333.899 -509.524 331.726 -511.739C296.467 -547.809 268.607 -576.301 215.47 -565.881C186.511 -560.197 135.933 -546.739 123.464 -534.805C111.38 -523.241 104.898 -498.108 98.6453 -473.811C94.3843 -457.264 90.3525 -441.628 84.8361 -431.454C77.364 -417.688 68.1658 -404.623 59.2573 -391.989C53.113 -383.254 46.7517 -374.236 41.042 -365.084C7.90685 -311.962 8.26891 -271.636 8.69139 -224.936C8.86034 -205.769 9.04149 -185.95 7.17039 -163.117C6.31334 -152.71 3.51292 -142.831 -0.0118598 -133.272L-0.01186 -129.828C4.05613 -140.395 7.41197 -151.357 8.36558 -163.007C10.2366 -185.889 10.0675 -205.745 9.88646 -224.936L9.89854 -224.973Z" fill="#0C2505" fill-opacity="0.05"/>
<path d="M29.852 -496.103C29.852 -510.09 29.8522 -524.558 30.673 -538.078C32.8699 -574.284 45.3153 -671.681 76.1086 -687.415C82.2167 -690.528 90.9922 -686.037 102.098 -680.341C118.563 -671.902 141.099 -660.35 169.515 -666.378C197.737 -672.357 214.419 -664.582 230.558 -657.065C241.736 -651.862 252.298 -646.941 266.301 -646.289C335.432 -643.102 339.247 -636.791 364.077 -595.714C369.424 -586.869 375.496 -576.83 383.391 -564.786C395.051 -547.01 410.78 -532.727 425.978 -518.911C440.016 -506.166 453.282 -494.122 463.458 -479.642C484.872 -449.194 484.824 -448.678 482.338 -421.551C481.843 -416.126 481.227 -409.372 480.672 -401.154C480.37 -396.664 480.225 -392.321 480.225 -388.101C480.225 -315.075 524.212 -281.207 566.811 -248.397C610.762 -214.553 652.275 -182.58 647.772 -110.968C646.287 -87.3603 642.231 -64.1705 638.308 -41.7435C631.247 -1.40439 623.956 40.3248 631.862 84.6744C638.731 123.156 653.18 146.383 674.823 153.715C712.123 166.349 758.85 129.233 783.391 105.982C790.646 99.105 797.683 92.105 804.491 85.3265C850.591 39.4514 890.413 -0.174154 961.295 34.1368C993.899 49.9206 1009.47 76.1244 1025.94 103.866C1044.14 134.511 1062.95 166.189 1106.67 183.572C1141.49 197.412 1171.97 195.899 1190.3 179.426C1208.55 163.015 1213.56 133.539 1204.38 96.4354C1197 66.5532 1173.37 51.3846 1150.52 36.7203C1140.89 30.5445 1130.94 24.1474 1122.36 16.7537C1080.79 -19.1073 1083.5 -31.7787 1090.03 -62.3867C1091.98 -71.4904 1094.19 -81.8243 1095.67 -94.8032C1097.8 -113.404 1087 -129.631 1075.58 -146.805C1063.97 -164.274 1051.95 -182.346 1054.13 -203.518C1057.84 -239.416 1069.93 -262.84 1090.07 -273.137C1114.88 -285.82 1152.91 -278.033 1197.18 -251.214C1209.98 -243.451 1226.62 -237.423 1242.72 -231.58C1261.52 -224.764 1279.26 -218.318 1291.16 -209.448C1308.62 -196.432 1324.83 -178.766 1341.98 -160.054C1347.24 -154.321 1352.56 -148.539 1357.95 -142.819L1357.95 -144.59C1352.86 -150.003 1347.84 -155.466 1342.86 -160.891C1325.66 -179.64 1309.41 -197.355 1291.87 -210.432C1279.83 -219.413 1262 -225.884 1243.12 -232.736C1227.08 -238.555 1210.49 -244.571 1197.79 -252.272C1166.23 -271.402 1121.82 -290.741 1089.53 -274.232C1068.99 -263.738 1056.68 -239.994 1052.93 -203.641C1050.69 -182.026 1062.84 -163.77 1074.57 -146.116C1085.86 -129.139 1096.53 -113.084 1094.45 -94.9385C1092.98 -82.0212 1090.78 -71.7242 1088.84 -62.6451C1082.38 -32.4308 1079.43 -18.6399 1121.56 17.701C1130.21 25.1561 1140.19 31.5656 1149.86 37.7659C1172.5 52.2949 1195.92 67.3282 1203.19 96.743C1212.24 133.379 1207.38 162.425 1189.48 178.516C1171.5 194.669 1141.47 196.096 1107.08 182.428C1063.74 165.205 1045.03 133.699 1026.94 103.239C1010.36 75.3371 994.72 48.9733 961.778 33.0419C890.136 -1.63814 850.048 38.258 803.622 84.4653C796.814 91.2315 789.777 98.2315 782.534 105.109C741.118 144.365 701.983 161.662 675.173 152.583C653.989 145.411 639.805 122.492 633.021 84.49C625.139 40.3617 632.43 -1.25681 639.467 -41.4852C643.402 -63.9491 647.458 -87.1758 648.955 -110.845C650.995 -143.299 643.547 -170.733 626.177 -194.71C610.665 -216.116 588.732 -233.007 567.523 -249.344C522.715 -283.852 476.362 -319.541 481.855 -401.043C482.41 -409.237 483.026 -415.99 483.52 -421.403C486.055 -448.985 486.092 -449.514 464.424 -480.331C454.164 -494.922 440.861 -507.003 426.762 -519.797C411.613 -533.551 395.945 -547.785 384.368 -565.438C376.474 -577.47 370.426 -587.496 365.079 -596.329C339.947 -637.886 336.096 -644.271 266.325 -647.482C252.552 -648.122 242.098 -652.993 231.029 -658.148C214.709 -665.751 197.846 -673.612 169.237 -667.547C141.232 -661.605 118.901 -673.046 102.605 -681.412C91.1854 -687.268 82.1682 -691.881 75.5291 -688.485C44.2288 -672.493 31.6387 -574.53 29.4296 -538.127C28.6088 -524.57 28.6088 -510.09 28.6088 -496.078C28.6088 -468.583 28.6088 -440.152 22.6698 -414.637C17.4672 -392.259 8.81212 -371.358 -0.0481105 -351.158L-0.0481106 -348.156C9.21044 -369.193 18.3966 -390.955 23.8407 -414.354C29.8038 -440.017 29.8037 -468.521 29.8037 -496.09L29.852 -496.103Z" fill="#0C2505" fill-opacity="0.05"/>
<path d="M98.935 1142.27C158.554 1161.23 166.751 1198.68 176.238 1242.05C182.298 1269.76 188.575 1298.43 209.024 1325.3C223.05 1343.72 239.25 1353.9 257.187 1355.55C275.753 1357.24 295.67 1349.31 313.294 1333.21C329.373 1318.5 341.262 1297.73 351.764 1279.38C357.305 1269.71 362.532 1260.59 367.614 1253.79C381.459 1235.3 396.138 1224.77 409.078 1215.5C420.896 1207.03 432.049 1199.04 440.523 1186.49C458.328 1160.14 465.716 1121.83 475.071 1073.33C490.751 992.076 515.557 985.458 581.864 967.73C588.986 965.823 596.361 963.855 604.328 961.641C656.717 947.026 699.316 928.351 730.93 906.121C776.68 873.95 797.732 835.235 793.483 791.058C790.646 761.594 779.456 733.803 768.64 706.922C753.575 669.511 738.004 630.833 744.244 586.496C752.574 527.396 795.124 500.503 840.161 472.023C866.561 455.329 893.854 438.069 914.942 413.563C922.378 404.927 931.069 389.241 940.267 372.633C954.608 346.737 970.88 317.396 985.932 308.735C1007.23 296.495 1020.3 306.238 1036.85 318.577C1042.44 322.748 1048.22 327.054 1054.94 331.089C1112.86 365.855 1155.51 376.127 1189.17 363.431C1218.52 352.359 1240.6 323.72 1256.66 275.876C1268.38 240.975 1284.14 219.544 1299.38 198.803C1319.24 171.799 1338 146.284 1342.6 94.9592C1346.47 51.8029 1350.42 34.8012 1357.99 29.5481L1357.99 28.0964C1349.51 33.1527 1345.47 49.527 1341.39 94.8485C1336.82 145.829 1318.15 171.196 1298.4 198.064C1283.1 218.88 1267.29 240.396 1255.5 275.47C1239.56 322.945 1217.72 351.338 1188.74 362.263C1155.43 374.823 1113.11 364.575 1055.53 330.006C1048.86 325.996 1043.11 321.714 1037.54 317.556C1020.64 304.959 1007.29 295.006 985.317 307.641C969.962 316.474 953.606 345.974 939.193 372.006C930.019 388.552 921.364 404.189 914.013 412.739C893.045 437.109 865.825 454.32 839.498 470.965C794.207 499.605 751.439 526.645 743.025 586.311C736.724 630.981 752.368 669.819 767.493 707.378C778.285 734.172 789.439 761.877 792.251 791.168C796.452 834.878 775.581 873.2 730.218 905.1C698.712 927.244 656.246 945.869 603.978 960.447C596.011 962.674 588.648 964.63 581.526 966.537C514.688 984.4 489.677 991.08 473.852 1073.09C464.521 1121.45 457.157 1159.63 439.497 1185.79C431.144 1198.15 420.075 1206.09 408.354 1214.49C395.329 1223.83 380.578 1234.41 366.624 1253.04C361.494 1259.9 356.243 1269.06 350.69 1278.76C340.237 1297.01 328.383 1317.7 312.449 1332.28C295.091 1348.17 275.487 1355.99 257.26 1354.32C239.672 1352.7 223.75 1342.68 209.941 1324.54C189.649 1297.89 183.409 1269.36 177.385 1241.78C168.211 1199.86 159.556 1160.27 99.2609 1141.09C76.6396 1133.9 49.5159 1132.05 23.2855 1130.27C15.5238 1129.74 7.71357 1129.21 -0.0360588 1128.53L-0.0360589 1129.76C7.68953 1130.43 15.4753 1130.96 23.2009 1131.49C49.359 1133.27 76.4104 1135.1 98.8989 1142.25L98.935 1142.27Z" fill="#0C2505" fill-opacity="0.05"/>
<path d="M108.93 612.404C124.514 582.793 146.881 556.798 168.525 531.665C197.411 498.116 227.275 463.424 240.058 420.526C260.036 353.491 263.138 267.572 248.351 190.671C247.023 183.781 245.708 176.892 244.392 170.015C230.232 95.9802 215.59 19.4357 192.426 -53.0615C188.454 -65.4868 186.052 -86.1792 183.505 -108.09C178.484 -151.381 172.786 -200.443 153.17 -215.734C148.137 -219.659 142.343 -221.16 135.957 -220.2C118.273 -217.543 100.649 -190.662 87.6122 -146.46C75.2634 -104.583 69.0589 -54.218 71.0385 -11.7506C73.151 33.5832 54.6822 67.2176 35.1391 102.833C21.7643 127.216 8.01532 152.3 0.000104453 182.551L0.000104241 187.398C7.77389 155.24 22.1868 128.95 36.2013 103.423C55.841 67.6482 74.3943 33.8539 72.2577 -11.8121C68.2743 -97.485 98.5365 -213.335 136.15 -218.994C142.21 -219.905 147.69 -218.478 152.458 -214.762C171.663 -199.778 177.337 -150.988 182.334 -107.942C184.881 -85.9701 187.295 -65.2285 191.303 -52.6802C214.443 19.7432 229.074 96.2509 243.233 170.249C244.549 177.126 245.864 184.015 247.192 190.904C261.943 267.609 258.853 353.319 238.936 420.169C226.225 462.809 196.445 497.403 167.656 530.853C145.976 556.048 123.548 582.092 107.904 611.826C79.4521 665.907 43.6492 686.87 0.0363061 702.838L0.036306 704.142C44.0717 688.075 80.2247 667.051 108.966 612.404L108.93 612.404Z" fill="#0C2505" fill-opacity="0.05"/>
<path d="M70.9421 1162.03C129.849 1182.97 143.248 1200.94 161.765 1256.32L163.576 1261.75C179.365 1309.19 195.685 1358.25 255.147 1364.6C290.467 1368.38 312.944 1350.69 330.254 1332.87C341.275 1321.54 348.409 1308.33 355.965 1294.34C362.23 1282.75 368.7 1270.76 377.838 1259.1C389.45 1244.26 404.636 1231.86 419.326 1219.85C433.45 1208.33 448.044 1196.39 459.427 1182.34C478.366 1158.97 484.897 1130.5 491.222 1102.98C497.608 1075.14 503.643 1048.84 521.4 1027.14C543.345 1000.29 572.062 991.916 602.481 983.034C612.307 980.168 622.471 977.203 632.502 973.549C690.347 952.524 732.861 929.519 762.448 903.229C802.198 867.897 819.001 825.75 812.374 777.955C810.032 761.101 806.109 744.739 802.319 728.906C793.652 692.75 785.467 658.599 794.75 619.355C803.876 580.75 826.437 560.772 852.571 537.631C860.646 530.483 868.987 523.09 877.304 514.798C898.236 493.946 916.077 468.123 933.338 443.15C950.6 418.176 966.908 394.58 986.017 375.561C1018.08 343.649 1033.4 353.036 1061.21 370.074C1071.76 376.533 1083.72 383.865 1099 390.435C1203.9 435.547 1246.86 373.199 1296.62 301.022C1305.42 288.252 1314.52 275.052 1324.16 262.184C1331.02 253.031 1337.72 245.551 1344.2 238.317C1349.04 232.904 1353.65 227.75 1357.99 222.312L1357.99 220.356C1353.4 226.224 1348.49 231.711 1343.31 237.493C1336.82 244.739 1330.1 252.243 1323.21 261.433C1313.55 274.326 1304.44 287.539 1295.64 300.308C1246.2 372.055 1203.49 434.021 1099.49 389.303C1084.29 382.77 1072.36 375.463 1061.85 369.016C1034.45 352.236 1017.91 342.099 985.184 374.675C966.003 393.769 949.659 417.413 932.361 442.436C915.135 467.361 897.318 493.134 876.459 513.912C868.166 522.179 859.825 529.561 851.774 536.696C825.495 559.972 802.789 580.074 793.579 619.06C784.236 658.587 792.456 692.885 801.148 729.189C804.938 744.985 808.849 761.335 811.179 778.115C817.745 825.479 801.087 867.258 761.663 902.294C732.197 928.486 689.816 951.405 632.104 972.38C622.109 976.009 611.969 978.974 602.155 981.841C571.555 990.772 542.657 999.199 520.482 1026.34C502.545 1048.27 496.195 1075.94 490.051 1102.7C483.762 1130.08 477.268 1158.39 458.497 1181.56C447.187 1195.51 432.641 1207.39 418.578 1218.89C403.839 1230.94 388.593 1243.39 376.896 1258.32C367.698 1270.07 361.204 1282.1 354.915 1293.74C347.395 1307.64 340.309 1320.78 329.397 1332C312.28 1349.59 290.081 1367.09 255.268 1363.36C196.578 1357.08 180.379 1308.42 164.723 1261.34L162.912 1255.9C144.238 1200.08 130.742 1181.96 71.3404 1160.85C49.3711 1153.04 25.9652 1147.39 3.33187 1141.94C2.22127 1141.67 1.1108 1141.41 0.0122889 1141.14L0.0122888 1142.41C1.02633 1142.66 2.04024 1142.9 3.05428 1143.15C25.6634 1148.6 49.0451 1154.24 70.9421 1162.03Z" fill="#0C2505" fill-opacity="0.05"/>
<path d="M100.782 539.268C109.606 518.182 121.604 500.614 133.205 483.625C143.658 468.308 154.474 452.487 162.61 434.428C177.94 400.424 181.248 355.718 184.447 312.488C185.762 294.76 187.006 278.005 189.046 262.762C195.419 215.226 188.008 183.191 179.437 146.1C175.888 130.759 172.219 114.889 169.128 96.5094C166.4 80.2335 167.39 60.7099 168.428 40.0298C170.191 5.04217 172.026 -31.1388 156.224 -56.8628C147.521 -71.035 140.46 -77.2969 134.038 -76.571C123.596 -75.39 116.752 -55.5341 108.085 -30.4129C106.335 -25.3321 104.524 -20.0667 102.593 -14.7153C94.8066 6.89981 87.9382 29.0193 81.299 50.4252C71.3766 82.4111 61.104 115.504 47.6085 147.281C34.6804 177.717 19.3863 211.56 0.012193 244.592L0.0121929 246.954C19.9054 213.319 35.5495 178.787 48.7191 147.773C62.2388 115.935 72.5114 82.817 82.458 50.7942C89.0971 29.4006 95.9533 7.29351 103.739 -14.2969C105.671 -19.6607 107.493 -24.9261 109.244 -30.007C117.766 -54.7222 124.502 -74.2581 134.195 -75.353C140.025 -76.0174 146.906 -69.7555 155.223 -56.2107C170.831 -30.8066 169.008 5.1775 167.245 39.9683C166.195 60.7099 165.205 80.3074 167.958 96.7186C171.048 115.135 174.729 131.017 178.278 146.383C186.837 183.351 194.224 215.275 187.875 262.59C185.823 277.882 184.58 294.637 183.264 312.389C180.065 355.521 176.77 400.117 161.536 433.911C153.448 451.86 142.657 467.656 132.227 482.923C120.591 499.962 108.556 517.579 99.6833 538.788C76.3378 594.591 40.7643 627.782 0.0121751 653.961L0.012175 655.425C41.2109 629.086 77.1949 595.698 100.794 539.28L100.782 539.268Z" fill="#0C2505" fill-opacity="0.05"/>
<path d="M35.2237 1284.96C43.9149 1298.02 48.3087 1311.07 52.5698 1323.71C59.0761 1343.04 65.2202 1361.29 85.4876 1378.6C143.115 1427.81 207.189 1446.29 281.353 1435.09C320.391 1429.2 349.06 1416.91 377.186 1393.99C394.363 1379.99 408.245 1363.27 421.668 1347.1C435.526 1330.39 449.866 1313.12 467.719 1299.08C483.593 1286.61 504.826 1277.92 525.371 1269.51C548.451 1260.06 572.328 1250.28 588.032 1235.19C603.64 1220.2 616.689 1198.87 629.303 1178.23C637.5 1164.83 645.985 1150.96 654.906 1139.36C664.068 1127.46 675.753 1117.54 687.051 1107.94C696.201 1100.18 705.665 1092.14 713.692 1083.13C719.016 1077.16 723.253 1070.11 727.357 1063.29C733.779 1052.63 740.406 1041.61 751.451 1034.04C784.489 1011.39 819.701 1003.08 853.766 995.03C886.659 987.255 917.742 979.923 942.778 960.153C975.261 934.503 1000.73 876.374 1007.67 812.058C1010.46 786.187 1027.72 742.501 1051.65 700.772C1077.11 656.385 1103.58 625.285 1122.46 617.596C1150.32 606.254 1186.81 617.769 1219.01 627.93C1238.5 634.082 1256.9 639.888 1272.27 640.614C1312.42 642.508 1328.22 638.178 1358.02 619.38L1358.02 617.929C1328.05 636.899 1312.42 641.266 1272.32 639.384C1257.11 638.67 1238.77 632.876 1219.36 626.762C1186.98 616.539 1150.26 604.95 1122.01 616.452C1102.88 624.24 1076.19 655.524 1050.6 700.145C1026.59 742.021 1009.27 785.891 1006.47 811.923C999.56 875.931 974.271 933.728 942.042 959.181C917.211 978.778 886.273 986.086 853.5 993.824C819.339 1001.89 784.019 1010.24 750.787 1033.01C739.525 1040.72 732.825 1051.87 726.331 1062.64C722.263 1069.41 718.05 1076.41 712.811 1082.29C704.832 1091.25 695.405 1099.24 686.291 1106.98C674.944 1116.61 663.211 1126.58 653.965 1138.58C644.996 1150.23 636.51 1164.12 628.289 1177.57C615.711 1198.14 602.711 1219.41 587.211 1234.3C571.676 1249.22 547.908 1258.95 524.936 1268.36C504.319 1276.8 483.001 1285.54 466.995 1298.11C449.033 1312.22 434.669 1329.54 420.763 1346.3C407.376 1362.42 393.542 1379.11 376.45 1393.03C348.493 1415.8 320.005 1428.02 281.185 1433.89C207.382 1445.03 143.622 1426.64 86.2723 1377.67C66.2584 1360.58 60.1747 1342.48 53.7286 1323.32C49.4554 1310.61 45.0254 1297.47 36.2497 1284.27C27.7636 1271.51 14.8958 1261.09 0.024264 1252.15L0.0242639 1253.57C14.4975 1262.36 26.9911 1272.56 35.2477 1284.97L35.2237 1284.96Z" fill="#0C2505" fill-opacity="0.05"/>
<path d="M77.3035 1060.17C122.655 1055.47 169.563 1050.62 202.264 1073.37C234.168 1095.56 248.544 1135.47 260.108 1167.54C270.127 1195.35 278.046 1217.29 293.485 1220.28C306.498 1222.79 323.759 1211.09 347.829 1183.45C368.326 1159.9 389.981 1130.96 395.16 1094.75C400.483 1057.51 399.276 1032.4 398.31 1012.23C396.922 983.354 396.102 965.934 417.83 940.911C439.111 916.405 479.766 903.475 522.8 889.783C579.655 871.686 638.453 852.987 660 805.488C674.015 774.585 670.623 735.107 649.619 684.778C624.873 625.469 573.981 594.541 516.801 604.075C470.556 611.777 449.13 632.494 428.416 652.509C421.982 658.722 415.343 665.144 408.136 670.926C364.415 705.987 327.912 716.555 289.26 727.738C275.282 731.785 260.833 735.968 245.551 741.418C235.507 745.01 225.464 748.762 215.747 752.404C170.299 769.405 127.374 785.472 78.414 787.785C58.6777 788.72 29.0915 787.268 0.012199 785.78L0.012199 787.01C29.1036 788.498 58.6899 789.95 78.4744 789.015C127.616 786.702 170.637 770.599 216.17 753.56C225.887 749.931 235.93 746.166 245.961 742.586C261.207 737.136 275.632 732.966 289.598 728.919C328.358 717.699 364.982 707.107 408.897 671.885C416.14 666.079 422.815 659.632 429.261 653.395C449.842 633.502 471.136 612.921 517.018 605.281C573.619 595.845 624.004 626.49 648.533 685.258C661.038 715.214 667.267 741.282 667.267 763.943C667.267 779.087 664.479 792.718 658.926 804.959C637.608 851.954 579.075 870.579 522.462 888.59C479.259 902.331 438.447 915.322 416.948 940.074C394.894 965.466 395.727 983.083 397.128 1012.26C398.093 1032.38 399.288 1057.43 393.977 1094.54C388.859 1130.42 367.324 1159.19 346.948 1182.6C323.192 1209.88 306.28 1221.45 293.738 1219.04C278.963 1216.2 271.153 1194.52 261.267 1167.09C249.655 1134.86 235.194 1094.74 202.976 1072.32C169.913 1049.32 122.787 1054.2 77.2189 1058.93C49.6365 1061.78 22.8507 1064.54 0.0363569 1061.2L0.0363568 1062.47C22.9352 1065.78 49.745 1063.01 77.3396 1060.16L77.3035 1060.17Z" fill="#0C2505" fill-opacity="0.05"/>
<path d="M92.4406 1043.17C134.255 1040.39 173.752 1037.75 196.759 1049.65C227.637 1065.62 242.835 1095.48 256.234 1121.82C262.716 1134.56 268.848 1146.59 276.115 1155.71C287.775 1170.32 301.657 1177.62 315.201 1176.22C333.283 1174.36 350.28 1158.13 365.706 1127.99C375.774 1108.33 383.306 1072.77 384.779 1049.74C385.732 1034.83 384.731 1020.64 383.765 1006.94C381.339 972.601 379.238 942.941 408.354 915.876C433.957 892.071 470.17 882.02 505.2 872.301C549.501 860.011 595.323 847.303 622.206 806.927C643.559 774.855 648.327 730.493 633.794 699.048C614.685 657.701 565.616 628.655 519.649 631.497C482.832 633.773 445.979 663.372 413.472 689.49C397.26 702.518 381.942 714.808 367.626 723.161C326.029 747.409 281.498 762.971 231.778 779.407C171.386 799.361 116.305 811.184 43.8062 804.011C37.831 803.421 29.9847 802.191 20.9072 800.776C14.5095 799.779 7.44799 798.672 0.0121998 797.639L0.0121997 798.881C7.38763 799.902 14.3768 800.997 20.7262 801.994C29.8279 803.421 37.686 804.651 43.6974 805.242C116.402 812.426 171.615 800.579 232.152 780.576C281.933 764.127 326.524 748.528 368.229 724.231C382.63 715.841 397.985 703.514 414.232 690.462C446.607 664.455 483.303 634.978 519.734 632.727C565.242 629.922 613.804 658.648 632.707 699.578C638.26 711.597 640.952 725.523 640.952 739.917C640.952 762.762 634.168 786.788 621.204 806.25C594.575 846.245 548.982 858.892 504.886 871.132C469.723 880.888 433.365 890.976 407.545 914.978C377.995 942.449 380.119 972.38 382.57 1007.04C383.535 1020.7 384.537 1034.83 383.584 1049.66C382.123 1072.57 374.639 1107.91 364.644 1127.43C349.41 1157.17 332.74 1173.18 315.08 1175C301.947 1176.35 288.439 1169.23 277.044 1154.93C269.862 1145.92 263.754 1133.93 257.308 1121.25C243.812 1094.75 228.53 1064.71 197.302 1048.56C173.993 1036.5 134.339 1039.14 92.3683 1041.94C59.1968 1044.15 25.3132 1046.39 0.0121891 1040.81L0.0121891 1042.06C25.4822 1047.62 59.3175 1045.37 92.4527 1043.17L92.4406 1043.17Z" fill="#0C2505" fill-opacity="0.05"/>
<path d="M67.0672 1429.05C76.688 1432.75 85.9102 1436.41 94.8187 1439.94C156.502 1464.36 205.221 1483.66 278.782 1476.6C381.073 1466.78 414.522 1434.55 456.879 1393.73C471.751 1379.4 487.118 1364.59 507.059 1348.88C525.347 1334.47 545.832 1324.38 565.64 1314.64C589.155 1303.08 613.454 1291.11 633.926 1271.9C650.693 1256.17 662.016 1236.42 672.952 1217.32C682.706 1200.29 692.797 1182.69 706.643 1168.28C727.115 1146.97 755.76 1132.14 783.463 1117.78C792.517 1113.08 801.075 1108.65 809.271 1104.04C826.714 1094.21 829.66 1089.61 833.076 1084.26C835.924 1079.79 839.159 1074.75 852.245 1065.42C867.587 1054.5 888.651 1049.05 910.946 1043.28C933.435 1037.46 956.684 1031.44 976.601 1019.29C1014.17 996.357 1047.1 965.072 1078.93 934.821C1100.41 914.412 1120.71 895.122 1140.68 880.224C1158.11 867.22 1173.37 852.334 1188.12 837.941C1213.38 813.312 1237.22 790.036 1269.1 778.386C1289.96 770.758 1306.7 773.17 1324.43 775.716C1335.06 777.242 1345.95 778.792 1358 778.115L1358 776.885C1346.03 777.574 1335.17 776.024 1324.59 774.498C1306.71 771.927 1289.82 769.503 1268.69 777.229C1236.56 788.966 1212.63 812.328 1187.29 837.055C1172.56 851.424 1157.33 866.285 1139.97 879.24C1119.93 894.187 1099.62 913.489 1078.11 933.935C1046.32 964.137 1013.44 995.373 975.985 1018.24C956.213 1030.31 933.049 1036.3 910.645 1042.1C888.241 1047.89 867.068 1053.37 851.557 1064.41C838.278 1073.87 834.983 1079.03 832.062 1083.58C828.73 1088.78 825.857 1093.27 808.68 1102.96C800.508 1107.56 791.961 1111.99 782.908 1116.67C755.12 1131.07 726.391 1145.96 705.774 1167.41C691.832 1181.91 681.704 1199.59 671.902 1216.68C661.002 1235.7 649.74 1255.37 633.094 1270.98C612.754 1290.06 588.527 1301.98 565.097 1313.52C545.228 1323.3 524.695 1333.4 506.299 1347.89C486.309 1363.64 470.918 1378.48 456.035 1392.82C413.846 1433.47 380.53 1465.58 278.65 1475.36C205.378 1482.39 156.768 1463.14 95.2291 1438.78C86.3086 1435.25 77.0982 1431.6 67.4655 1427.9C52.7026 1422.21 38.1328 1414.61 24.0578 1407.25C16.1755 1403.13 8.14804 1398.95 -0.0240751 1395.02L-0.0240751 1396.38C7.95493 1400.22 15.8011 1404.31 23.5146 1408.35C37.6257 1415.72 52.2198 1423.34 67.0551 1429.05L67.0672 1429.05Z" fill="#0C2505" fill-opacity="0.05"/>
<path d="M308.091 1008.11C325.353 997.354 317.639 977.51 308.707 954.529C306.594 949.092 304.409 943.47 302.466 937.749C300.366 931.561 301.331 921.941 302.273 912.64C303.54 900.018 304.735 888.097 298.663 884.173C280.46 872.424 255.871 878.12 229.846 884.136C219.477 886.535 208.746 889.02 198.425 890.324C189.432 891.456 178.073 892.206 166.05 892.994C127.338 895.528 79.1626 898.689 70.5197 917.758C69.6143 919.776 69.1556 921.928 69.1556 924.217C69.1556 929.605 71.6664 935.769 76.688 942.596C93.9979 966.18 124.067 967.853 155.899 969.624C174.886 970.682 194.526 971.777 212.09 977.682C232.236 984.449 245.913 993.897 256.91 1001.49C274.558 1013.67 286.218 1021.72 308.079 1008.11L308.091 1008.11ZM257.598 1000.47C246.54 992.839 232.791 983.329 212.476 976.514C194.755 970.559 175.031 969.464 155.971 968.394C124.429 966.635 94.6255 964.974 77.6536 941.858C70.7972 932.509 68.7692 924.573 71.618 918.262C79.9471 899.846 127.737 896.721 166.123 894.211C178.158 893.424 189.541 892.674 198.57 891.542C208.951 890.226 219.706 887.741 230.112 885.342C255.884 879.375 280.231 873.753 298.012 885.219C301.15 887.248 302.092 891.936 302.092 897.902C302.092 902.282 301.585 907.338 301.066 912.517C300.112 921.953 299.134 931.709 301.319 938.155C303.275 943.9 305.46 949.535 307.572 954.985C316.299 977.449 323.844 996.849 307.451 1007.06C286.254 1020.26 274.847 1012.39 257.586 1000.47L257.598 1000.47Z" fill="#0C2505" fill-opacity="0.05"/>
<path d="M210.158 1003.74C225.682 1007.15 240.964 1019.23 255.751 1030.91C278.529 1048.93 300.04 1065.94 320.73 1051.02C343.411 1034.65 336.205 979.651 326.331 948.822C310.819 900.363 333.03 879.991 347.721 866.508C353.841 860.898 358.669 856.457 358.669 851.659C358.669 849.063 357.257 846.529 354.36 843.896C338.052 829.06 312.497 839.012 280.147 851.622C250.077 863.333 215.989 876.608 178.375 875.045C149.73 873.852 62.5528 870.223 41.8509 904.509C38.9417 909.332 37.4932 914.72 37.4932 920.65C37.4932 928.88 40.2936 938.156 45.8946 948.379C66.8863 986.762 123.246 992.925 168.537 997.883C183.843 999.556 198.292 1001.14 210.17 1003.74L210.158 1003.74ZM46.9327 947.764C37.5414 930.578 36.1653 916.245 42.8769 905.137C51.4836 890.878 73.2719 881.652 107.638 877.703C135.764 874.479 164.505 875.673 178.315 876.251C216.17 877.826 250.379 864.502 280.569 852.754C312.545 840.304 337.798 830.474 353.551 844.806C356.17 847.193 357.45 849.432 357.462 851.634C357.462 855.891 352.802 860.172 346.912 865.573C335.565 875.98 319.812 890.423 319.812 918.349C319.812 927.182 321.381 937.356 325.172 949.179C334.937 979.676 342.168 1034 320.029 1049.98C300.076 1064.38 278.903 1047.65 256.499 1029.92C241.603 1018.15 226.213 1005.97 210.424 1002.51C198.485 999.889 184 998.302 168.658 996.628C121.303 991.449 67.6226 985.569 46.9448 947.739L46.9327 947.764Z" fill="#0C2505" fill-opacity="0.05"/>
<path d="M50.7593 993.441C71.413 1002.83 100.842 1004.51 131.986 1006.31C164.566 1008.18 198.244 1010.12 220.829 1021.66C243.269 1033.13 259.988 1048.47 273.423 1060.78C290.986 1076.9 303.661 1088.54 318.581 1083.51C356.762 1070.63 357.812 1000.49 352.404 961.074C343.435 895.626 367.71 879.289 425.265 857.612C445.146 850.12 518.587 812.721 516.74 784.119C516.004 772.677 503.45 764.054 479.428 758.481C451.122 751.924 400.725 776.897 356.255 798.943C333.332 810.298 311.688 821.038 296.962 825.257C286.339 828.308 276.248 831.372 266.494 834.336C214.13 850.268 168.899 864.022 87.5883 859.63C78.0521 859.113 66.5483 856.468 54.3806 853.663C34.8617 849.173 14.8236 844.559 0.000240184 847.93L0.000240129 849.185C14.5701 845.765 34.6081 850.378 54.115 854.869C66.343 857.686 77.883 860.343 87.5279 860.86C169.044 865.264 214.359 851.473 266.844 835.517C276.598 832.553 286.677 829.489 297.287 826.438C312.111 822.182 333.815 811.43 356.774 800.05C401.063 778.103 451.254 753.215 479.151 759.686C502.593 765.124 514.833 773.366 515.521 784.205C515.545 784.549 515.557 784.881 515.557 785.226C515.557 812.992 444.301 849.136 424.831 856.468C394.581 867.86 375.907 876.767 363.848 891.124C350.618 906.87 346.719 928.51 351.209 961.259C356.557 1000.29 355.627 1069.73 318.207 1082.35C303.963 1087.16 291.493 1075.72 274.244 1059.89C260.76 1047.51 243.969 1032.11 221.384 1020.57C198.582 1008.92 164.759 1006.97 132.07 1005.09C101.035 1003.31 71.7146 1001.62 51.2662 992.322C28.8019 982.111 11.8782 966.13 0.0244057 948.489L0.0244056 950.642C11.9386 967.89 28.7294 983.415 50.7833 993.441L50.7593 993.441Z" fill="#0C2505" fill-opacity="0.05"/>
<path d="M59.4505 1080.63C63.953 1080.11 68.4917 1079.56 73.0425 1079C116.993 1073.65 162.441 1068.13 191.291 1094.7C209.989 1111.92 219.694 1148.12 229.074 1183.12C242.702 1233.98 255.582 1282 294.137 1271.63C304.385 1268.88 315.213 1252.98 326.681 1236.17C330.761 1230.17 334.986 1223.99 339.15 1218.47C345.596 1209.96 352.827 1203.88 360.492 1197.45C374.289 1185.89 389.921 1172.77 403.224 1141.91C416.381 1111.41 415.85 1081.19 415.355 1051.96C414.558 1006.43 413.882 967.115 463.676 937.429C487.214 923.393 516.873 916.343 545.566 909.528C582.311 900.793 620.31 891.763 647.929 868.057C677.31 842.825 692.87 813.373 695.501 778.004C697.602 749.746 691.482 717.76 676.272 677.36C665.13 647.773 648.919 620.363 630.643 600.175C607.563 574.697 581.743 560.525 553.919 558.052C502.219 553.451 467.116 584.072 429.949 616.5C423.237 622.356 416.297 628.409 409.199 634.314C368.954 667.788 316.915 685.774 266.579 703.17C248.351 709.469 229.508 715.976 211.667 723.099C201.165 727.295 190.338 732.092 179.872 736.73C157.999 746.424 135.378 756.439 112.805 762.356C80.0679 770.943 46.136 770.894 13.3147 770.857C8.89672 770.857 4.45452 770.857 0.000234819 770.857L0.000234765 772.087C4.45452 772.075 8.89672 772.075 13.3147 772.087C46.2085 772.124 80.2248 772.161 113.106 763.537C135.764 757.595 158.434 747.556 180.343 737.85C190.808 733.212 201.624 728.426 212.102 724.244C229.919 717.133 248.75 710.637 266.953 704.339C317.386 686.919 369.533 668.896 409.947 635.274C417.057 629.356 424.01 623.291 430.722 617.435C467.683 585.191 502.605 554.731 553.799 559.283C627.444 565.827 665.287 651.66 675.137 677.803C685.881 706.344 694.837 736.817 694.837 766.945C694.837 802.006 682.706 836.6 647.144 867.122C619.755 890.644 581.9 899.637 545.288 908.335C516.511 915.175 486.768 922.248 463.06 936.371C412.663 966.426 413.375 1007.98 414.136 1051.99C414.631 1081.08 415.162 1111.16 402.113 1141.41C388.919 1172.01 374.072 1184.46 359.719 1196.5C351.994 1202.97 344.703 1209.1 338.184 1217.72C333.996 1223.27 329.771 1229.47 325.679 1235.46C314.344 1252.1 303.637 1267.79 293.811 1270.44C256.415 1280.5 243.692 1233.04 230.22 1182.8C220.793 1147.63 211.039 1111.25 192.076 1093.79C162.815 1066.84 117.09 1072.4 72.8735 1077.77C68.3227 1078.33 63.7961 1078.88 59.2935 1079.4C40.7402 1081.51 19.8089 1082.46 -0.0239486 1080.17L-0.0239487 1081.4C19.8813 1083.69 40.8489 1082.74 59.4263 1080.63L59.4505 1080.63Z" fill="#0C2505" fill-opacity="0.05"/>
<path d="M85.9826 1509.69C127.218 1514.05 171.953 1505.28 215.216 1496.8C242.328 1491.49 270.357 1485.99 296.442 1484.07C398.226 1476.59 435.84 1454.73 512.334 1383.45C534.786 1362.52 561.065 1344.83 586.475 1327.73C621.276 1304.3 657.272 1280.07 684.022 1247.14C743.122 1174.4 824.264 1136.9 902.738 1100.64C950.081 1078.77 999.029 1056.15 1042.99 1025.97C1058.31 1015.46 1074.26 1005.41 1089.67 995.693C1116.24 978.95 1143.71 961.64 1168.77 941.428C1178.45 933.616 1188.52 922.753 1199.18 911.25C1217.3 891.69 1236.02 871.465 1255.43 863.382C1274.12 855.595 1291.57 856.628 1310.05 857.723C1321.93 858.425 1334.22 859.15 1347.22 857.477C1350.85 857.01 1354.45 856.395 1358 855.681L1358 854.426C1354.4 855.152 1350.76 855.78 1347.06 856.259C1334.16 857.932 1321.93 857.207 1310.11 856.505C1291.49 855.398 1273.9 854.365 1254.96 862.263C1235.32 870.456 1216.5 890.779 1198.3 910.426C1187.68 921.904 1177.63 932.742 1168.02 940.493C1143.03 960.656 1115.59 977.941 1089.04 994.672C1073.62 1004.39 1057.66 1014.45 1042.33 1024.97C998.45 1055.1 949.538 1077.7 902.243 1099.55C823.648 1135.86 742.373 1173.42 683.092 1246.39C656.451 1279.17 620.54 1303.36 585.799 1326.75C560.353 1343.87 534.038 1361.59 511.513 1382.59C435.248 1453.64 397.755 1475.43 296.346 1482.89C270.188 1484.81 242.122 1490.32 214.974 1495.63C171.796 1504.1 127.157 1512.84 86.1032 1508.51C74.6236 1507.31 62.8423 1504.91 51.4592 1502.58C34.6925 1499.18 17.3584 1495.64 -0.0119909 1495.61L-0.011991 1496.84C17.2376 1496.87 34.5114 1500.38 51.2179 1503.79C62.6372 1506.11 74.4305 1508.51 85.9706 1509.73L85.9826 1509.69Z" fill="#0C2505" fill-opacity="0.05"/>
<path d="M74.0201 1579.57C86.9 1565.83 100.227 1551.62 116.909 1542.1C172.098 1510.59 234.361 1501.14 293.4 1494.16C302.768 1493.05 312.437 1492.03 321.792 1491.03C348.348 1488.23 375.798 1485.31 400.87 1480.05C458.932 1467.84 502.231 1426.65 544.105 1386.81C570.686 1361.51 598.172 1335.37 629.074 1317.05C656.246 1300.95 679.193 1280.04 701.368 1259.81C719.378 1243.4 737.992 1226.42 758.5 1212.47C786.095 1193.7 819.097 1184.51 851.025 1175.61C870.351 1170.23 890.329 1164.67 908.858 1157.04C1033.5 1105.72 1143.56 1036.03 1254.66 963.105C1282.69 944.713 1309.84 944.061 1338.57 943.372C1344.98 943.225 1351.46 943.065 1358.01 942.708L1358.01 941.478C1351.45 941.834 1344.96 941.994 1338.54 942.142C1309.63 942.831 1282.33 943.483 1254.01 962.059C1142.95 1034.95 1032.96 1104.62 908.411 1155.88C889.943 1163.48 870.001 1169.04 850.712 1174.42C818.699 1183.34 785.588 1192.57 757.836 1211.45C737.255 1225.45 718.605 1242.45 700.571 1258.9C678.433 1279.08 655.546 1299.95 628.482 1316C597.46 1334.37 569.925 1360.58 543.297 1385.91C501.555 1425.63 458.376 1466.7 400.64 1478.84C375.629 1484.09 348.203 1487 321.683 1489.8C312.328 1490.79 302.659 1491.82 293.28 1492.93C234.119 1499.93 171.712 1509.4 116.341 1541.02C99.5023 1550.62 86.1155 1564.91 73.1751 1578.72C55.9859 1597.05 38.2173 1616.02 12.373 1623.71C8.24472 1624.94 4.12851 1625.77 0.0242621 1626.26L0.024262 1627.5C4.23703 1627 8.46201 1626.16 12.711 1624.89C38.857 1617.11 56.7463 1598.02 74.0443 1579.58L74.0201 1579.57Z" fill="#0C2505" fill-opacity="0.05"/>
<path d="M176.323 1607.03C219.9 1572.9 250.995 1552.91 300.064 1538.38C326.174 1530.64 363.582 1532.7 399.759 1534.68C426.69 1536.16 452.124 1537.56 471.244 1534.82C522.74 1527.45 550.382 1488.99 577.132 1451.79C598.51 1422.05 620.624 1391.3 654.93 1375.56C707.778 1351.31 754.131 1348.33 791.382 1345.93C815.017 1344.4 835.43 1343.08 851.991 1336.79C878.656 1326.64 890.16 1313.36 901.277 1300.52C908.424 1292.26 915.823 1283.71 927.218 1276.05C946.568 1263.03 968.984 1263.85 988.769 1264.57C999.367 1264.97 1009.39 1265.32 1018.13 1263.62C1034.4 1260.46 1050.37 1255 1065.83 1249.72C1073.54 1247.09 1081.52 1244.36 1089.42 1241.96C1129.76 1229.71 1170.83 1220.49 1210.53 1211.59C1234.9 1206.12 1260.1 1200.46 1284.9 1194.17C1311.06 1187.51 1332.12 1178.67 1352.48 1170.11C1354.33 1169.34 1356.15 1168.58 1357.98 1167.81L1357.98 1166.49C1356 1167.31 1354.02 1168.15 1352.02 1168.98C1331.7 1177.52 1310.68 1186.35 1284.61 1192.98C1259.83 1199.28 1234.63 1204.93 1210.27 1210.4C1170.55 1219.31 1129.47 1228.53 1089.08 1240.8C1081.16 1243.22 1073.17 1245.95 1065.44 1248.58C1050.03 1253.84 1034.08 1259.29 1017.91 1262.43C1009.3 1264.1 999.343 1263.74 988.817 1263.35C968.852 1262.62 946.23 1261.79 926.554 1275.03C915.014 1282.79 907.567 1291.39 900.372 1299.71C889.351 1312.44 877.956 1325.6 851.569 1335.64C835.176 1341.88 814.848 1343.2 791.31 1344.71C753.962 1347.12 707.476 1350.11 654.435 1374.44C619.84 1390.31 597.629 1421.19 576.154 1451.06C548.342 1489.75 522.064 1526.3 471.075 1533.6C452.063 1536.32 426.69 1534.93 399.819 1533.45C363.546 1531.46 326.029 1529.4 299.726 1537.2C250.476 1551.79 219.272 1571.83 175.587 1606.06C157.057 1620.56 139.397 1637.66 120.699 1655.76C83.641 1691.62 45.7256 1728.33 0.000218854 1744.99L0.000218796 1746.3C46.1119 1729.65 84.2567 1692.71 121.532 1656.64C140.206 1638.57 157.854 1621.5 176.323 1607.03Z" fill="#0C2505" fill-opacity="0.05"/>
<path d="M174.5 1672.19C219.477 1606.18 264.708 1575.89 335.818 1564.19C356.569 1560.77 377.319 1563.21 399.3 1565.78C434.355 1569.88 470.592 1574.12 513.807 1556.6C544.854 1544.02 571.145 1518.34 598.981 1491.15C628.241 1462.58 658.491 1433.04 695.055 1419.6C732.62 1405.8 761.554 1401.41 789.523 1397.17C838.966 1389.66 881.662 1383.19 951.324 1323.89C988.721 1292.07 1031.78 1287.99 1086.3 1282.85C1139.52 1277.82 1205.75 1271.57 1287.02 1235.76C1314.75 1223.54 1334.8 1226.02 1352.48 1228.21C1354.34 1228.44 1356.18 1228.66 1358 1228.87L1358 1227.63C1356.25 1227.43 1354.46 1227.21 1352.63 1226.99C1334.79 1224.79 1314.57 1222.29 1286.54 1234.64C1205.43 1270.38 1139.32 1276.63 1086.18 1281.65C1031.45 1286.81 988.226 1290.9 950.54 1322.97C881.131 1382.05 838.592 1388.5 789.33 1395.97C762.604 1400.03 732.318 1404.62 694.632 1418.47C657.839 1431.99 627.493 1461.64 598.136 1490.29C570.384 1517.39 544.178 1542.98 513.348 1555.48C470.423 1572.88 434.331 1568.66 399.433 1564.57C377.379 1561.99 356.544 1559.55 335.625 1563C298.338 1569.14 268.775 1580.38 242.557 1598.38C217.908 1615.32 195.963 1638.56 173.51 1671.51C140.942 1719.3 84.6065 1741.8 39.1468 1756.05C25.1805 1760.43 12.1316 1764.04 -0.0119866 1766.9L-0.0119866 1768.15C12.2281 1765.27 25.4098 1761.63 39.4968 1757.22C85.1256 1742.9 141.715 1720.3 174.488 1672.19L174.5 1672.19Z" fill="#0C2505" fill-opacity="0.05"/>
<path d="M97.2691 1601.3C128.099 1571.2 157.214 1542.77 203.857 1526.56C211.402 1523.94 218.161 1521.45 224.124 1519.28C254.025 1508.33 270.502 1502.29 318.919 1500.47C350.678 1499.27 429.84 1493.95 478.789 1470.24C507.566 1456.3 521.484 1436.8 536.223 1416.17C543.695 1405.72 551.408 1394.9 561.452 1384.22C590.917 1352.85 625.151 1336.7 661.4 1319.61C676.031 1312.71 691.156 1305.57 706.148 1297.3C813.593 1237.96 902.098 1209.21 1024.86 1172.11C1083.91 1154.26 1133.57 1121.46 1181.59 1089.74C1214.91 1067.75 1249.35 1044.99 1286.02 1028.06C1308.74 1017.57 1333.58 1015.95 1357.99 1015.3L1357.99 1014.07C1333.45 1014.74 1308.46 1016.35 1285.51 1026.94C1248.77 1043.92 1214.28 1066.69 1180.93 1088.72C1132.98 1120.39 1083.39 1153.14 1024.51 1170.94C901.676 1208.05 813.122 1236.83 705.569 1296.22C690.613 1304.48 675.499 1311.62 660.881 1318.5C624.535 1335.65 590.193 1351.84 560.57 1383.39C550.479 1394.13 542.729 1404.98 535.245 1415.47C520.603 1435.97 506.782 1455.33 478.27 1469.15C429.527 1492.75 350.557 1498.07 318.871 1499.26C270.26 1501.08 252.733 1507.5 223.702 1518.13C217.739 1520.31 210.991 1522.8 203.447 1525.42C156.55 1541.72 127.338 1570.23 96.4122 1600.42C71.5095 1624.73 45.7497 1649.88 9.94675 1667.8C6.49448 1669.54 3.1749 1671.11 -0.0239546 1672.58L-0.0239546 1673.93C3.34384 1672.4 6.83249 1670.73 10.478 1668.91C46.4499 1650.91 72.27 1625.69 97.2452 1601.32L97.2691 1601.3Z" fill="#0C2505" fill-opacity="0.05"/>
<path d="M14.389 -87.6797C16.6463 -101.421 21.2576 -113.404 25.7118 -125.005C31.2766 -139.485 37.0223 -154.456 38.1449 -172.799C39.0503 -187.513 36.3584 -202.349 33.763 -216.706C30.9264 -232.354 27.9932 -248.544 29.7314 -264.562C35.26 -315.308 66.0413 -343.739 98.6454 -373.843C112.322 -386.465 126.457 -399.53 138.975 -414.551C149.96 -427.739 156.973 -442.305 163.165 -455.16C176.082 -481.979 185.412 -501.355 219.55 -492.67C254.918 -483.677 309.286 -402.445 315.165 -359.633C318.086 -338.326 310.397 -320.746 302.249 -302.133C296.636 -289.326 290.842 -276.077 288.91 -261.572C285.253 -234.212 291.035 -206.962 296.636 -180.611C297.553 -176.305 298.458 -172.012 299.328 -167.731C305.484 -137.356 310.892 -106.022 316.13 -75.7342C323.844 -31.0401 331.835 15.1794 342.409 59.5045C363.872 149.446 410.454 265.85 510.487 309.634C535.982 320.792 603.845 347.832 683.092 357.822C755.99 367.012 815.186 358.006 854.273 331.778C873.804 318.676 891.44 292.608 908.496 267.4C928.739 237.481 949.659 206.553 973.33 198.446C1005.1 187.571 1036.49 210.096 1066.83 231.884C1086.76 246.191 1107.37 260.979 1127.51 265.604C1189.37 279.789 1219.62 227.578 1243.11 169.044C1245.58 162.868 1248.16 156.606 1250.65 150.566C1264.27 117.522 1277.14 86.2988 1277.69 60.2673C1278.46 24.2462 1261.94 -5.41449 1247.36 -31.5937C1235.13 -53.5532 1224.58 -72.511 1229.23 -88.4301C1233.39 -102.701 1238.41 -110.956 1245.01 -114.4C1254.48 -119.346 1267.56 -114.72 1285.68 -108.335L1286.66 -107.991C1308.98 -100.117 1333.54 -81.0733 1357.3 -62.6569C1357.54 -62.4724 1357.78 -62.2755 1358.04 -62.091L1358.04 -63.6411C1334.21 -82.1191 1309.56 -101.224 1287.06 -109.159L1286.08 -109.504C1267.68 -115.999 1254.38 -120.699 1244.46 -115.507C1237.45 -111.841 1232.39 -103.599 1228.07 -88.7869C1223.27 -72.3757 1233.95 -53.1964 1246.31 -30.9909C1260.8 -4.947 1277.21 24.5538 1276.47 60.2426C1275.93 86.0405 1263.1 117.153 1249.53 150.086C1247.03 156.139 1244.46 162.401 1241.97 168.576C1218.69 226.606 1188.74 278.386 1127.77 264.399C1107.85 259.834 1087.35 245.109 1067.52 230.875C1036.92 208.915 1005.29 186.205 972.944 197.277C948.898 205.508 927.858 236.62 907.506 266.699C890.522 291.808 872.959 317.766 853.621 330.745C814.776 356.813 755.857 365.745 683.249 356.604C604.159 346.639 536.416 319.648 510.97 308.502C411.396 264.915 364.994 148.88 343.592 59.2092C333.03 14.9334 325.051 -31.2739 317.338 -75.9434C312.099 -106.256 306.691 -137.59 300.535 -167.977C299.666 -172.258 298.748 -176.564 297.843 -180.869C292.278 -207.11 286.52 -234.261 290.141 -261.4C292.049 -275.732 297.819 -288.895 303.395 -301.628C311.254 -319.577 319.378 -338.141 316.408 -359.793C313.668 -379.711 299.376 -410.725 279.99 -438.786C258.793 -469.456 236.896 -489.533 219.888 -493.851C184.797 -502.77 174.79 -481.992 162.127 -455.689C155.971 -442.907 148.994 -428.403 138.106 -415.338C125.648 -400.366 111.537 -387.338 97.8849 -374.741C65.1118 -344.477 34.1616 -315.887 28.5847 -264.685C26.8224 -248.495 29.7677 -232.219 32.6285 -216.472C35.2117 -202.189 37.8915 -187.426 36.9983 -172.873C35.8877 -154.727 30.166 -139.841 24.6374 -125.448C20.159 -113.785 15.5237 -101.741 13.2543 -87.8766C10.164 -69.1033 8.84837 -51.8556 7.56883 -35.186C6.02378 -15.0473 4.51487 4.39035 0.0606462 24.9966L0.0606459 30.4711C5.48057 7.82263 7.09812 -13.2142 8.77598 -35.0999C10.0555 -51.7572 11.3712 -68.968 14.4493 -87.6921L14.389 -87.6797Z" fill="#0C2505" fill-opacity="0.05"/>
<path d="M151.493 1276.8C155.476 1287.71 160.003 1300.08 165.664 1313.6C176.806 1340.19 195.226 1359.36 218.946 1369.04C244.826 1379.6 275.559 1378.2 305.46 1365.09C337.532 1351.03 352.114 1325.14 367.553 1297.73C374.253 1285.82 381.182 1273.52 389.824 1261.58C404.37 1241.5 419.411 1230.58 436.842 1217.92C441.32 1214.67 445.955 1211.3 450.723 1207.67C472.85 1190.82 490.811 1167.26 498.766 1144.67C527.025 1064.46 542.729 1027.56 619.007 993.282C632.345 987.291 645.925 981.607 660.302 975.604C719.209 950.987 780.132 925.534 822.827 878.305C853.367 844.523 846.764 811.369 839.111 772.973C836.045 757.583 832.87 741.664 831.494 723.961C825.121 642.114 844.893 613.327 898.827 557.573C910.029 545.997 924.659 522.5 940.146 497.624C967.451 453.779 998.402 404.078 1022.85 397.964C1040.42 393.572 1065.12 407.375 1086.92 419.567C1098.91 426.271 1110.23 432.595 1118.96 435.055C1158.5 446.164 1182.49 444.491 1217.66 428.178C1263.95 406.698 1289.1 374.38 1315.71 340.18C1328.57 323.67 1341.85 306.607 1358 290.196L1358 288.461C1341.41 305.192 1327.87 322.576 1314.77 339.417C1288.24 373.507 1263.19 405.702 1217.15 427.059C1182.28 443.236 1158.5 444.897 1119.27 433.874C1110.69 431.463 1099.41 425.164 1087.49 418.496C1065.5 406.206 1040.58 392.268 1022.54 396.783C997.617 403.008 966.534 452.93 939.108 496.972C923.657 521.786 909.051 545.234 897.946 556.712C843.734 612.761 823.853 641.708 830.263 724.072C831.651 741.849 834.826 757.805 837.904 773.232C845.799 812.857 852.027 844.166 821.91 877.481C779.395 924.513 718.605 949.917 659.819 974.484C645.43 980.5 631.85 986.171 618.488 992.175C541.751 1026.65 525.975 1063.71 497.595 1144.27C489.713 1166.63 471.908 1189.97 449.963 1206.69C445.207 1210.32 440.584 1213.68 436.105 1216.92C418.602 1229.65 403.477 1240.62 388.823 1260.86C380.143 1272.84 373.191 1285.18 366.467 1297.11C351.137 1324.35 336.651 1350.07 304.941 1363.96C275.33 1376.94 244.935 1378.33 219.356 1367.9C195.938 1358.35 177.735 1339.41 166.726 1313.12C161.077 1299.62 156.562 1287.27 152.579 1276.37C134.702 1227.44 124.839 1200.49 56.4205 1175.2C37.7585 1168.29 18.674 1162.88 -0.0482558 1157.81L-0.0482558 1159.08C18.5412 1164.11 37.493 1169.5 56.0101 1176.35C123.91 1201.46 133.7 1228.22 151.456 1276.8L151.493 1276.8Z" fill="#0C2505" fill-opacity="0.05"/>
<path d="M68.1779 498.24C76.7001 476.022 85.512 453.053 97.4745 431.488C132.457 368.389 148.897 292.312 142.584 222.755C142.488 221.685 142.355 218.314 142.162 213.221C140.689 174.789 136.223 57.8189 115.931 54.9525C96.3399 52.1968 76.6759 119.318 68.2865 147.982C66.85 152.903 65.8119 156.446 65.2808 157.824C48.0794 202.715 27.2085 243.3 -0.0118508 284.217L-0.0118509 286.407C27.7396 244.912 48.9607 203.797 66.4034 158.267C66.9466 156.852 67.9969 153.284 69.4454 148.339C77.0381 122.418 97.1969 53.5623 115.774 56.1827C128.57 57.9911 137.044 110.842 140.967 213.282C141.16 218.4 141.293 221.771 141.389 222.878C147.678 292.189 131.298 368.008 96.4243 430.885C84.4256 452.524 75.6017 475.542 67.0553 497.797C51.1939 539.145 36.2136 578.204 2.48693 610.239C1.6661 611.014 0.833121 611.777 0.000204505 612.54L0.000204433 614.201C1.11075 613.179 2.22129 612.171 3.30768 611.137C37.2396 578.918 52.9682 537.902 68.1779 498.24Z" fill="#0C2505" fill-opacity="0.05"/>
<path d="M41.5249 1345.59C43.6856 1349.85 45.943 1354.28 48.3451 1358.93C71.244 1403.16 133.772 1427.33 159.592 1435.67C196.542 1447.6 244.573 1451.63 284.951 1446.18C331.642 1439.87 370.366 1412.35 398.878 1389.07C412.494 1377.95 425.35 1365.26 437.783 1353C451.544 1339.42 465.788 1325.37 481.239 1313.24C497.487 1300.49 516.921 1291.91 535.728 1283.6C554.692 1275.24 574.295 1266.58 590.374 1253.68C612.259 1236.13 627.179 1213.26 641.604 1191.13C653.53 1172.82 665.879 1153.9 682.102 1138.07C693.232 1127.2 706.136 1118.81 718.617 1110.69C730.085 1103.24 741.927 1095.53 752.199 1086C759.418 1079.31 762.955 1072.89 766.697 1066.09C770.982 1058.31 775.412 1050.27 785.817 1040.78C802.801 1025.29 840.753 1014.83 874.238 1005.61C897.306 999.248 919.094 993.244 932.578 986.22C986.065 958.355 1003.66 921.473 1024.04 878.76C1040.99 843.255 1060.18 803.002 1104.04 760.572C1110.63 754.199 1112.81 741.996 1115.36 727.848C1119.02 707.5 1123.17 684.446 1141.89 672.746C1163.37 659.337 1183.01 672.685 1197.35 682.428C1203.41 686.537 1208.63 690.092 1212.86 690.941C1237.41 695.837 1249.26 691.126 1259.72 686.968C1265 684.864 1269.99 682.883 1276.16 682.28C1308.56 679.107 1334.59 670.224 1357.98 658.402L1357.98 657.024C1334.57 668.92 1308.51 677.876 1276.05 681.05C1269.71 681.665 1264.64 683.683 1259.28 685.811C1248.99 689.908 1237.3 694.546 1213.09 689.723C1209.09 688.924 1203.96 685.442 1198.01 681.395C1183.39 671.467 1163.38 657.86 1141.25 671.688C1122.07 683.67 1117.87 707.02 1114.16 727.614C1111.65 741.54 1109.49 753.572 1103.19 759.662C1059.18 802.252 1039.93 842.603 1022.94 878.206C1002.66 920.723 985.135 957.433 932.011 985.113C918.636 992.076 896.908 998.067 873.9 1004.4C840.282 1013.67 802.186 1024.16 784.984 1039.85C774.434 1049.47 769.956 1057.6 765.622 1065.47C761.929 1072.19 758.428 1078.52 751.354 1085.08C741.166 1094.53 729.349 1102.22 717.929 1109.65C705.4 1117.8 692.447 1126.23 681.233 1137.17C664.913 1153.1 652.54 1172.08 640.566 1190.44C626.189 1212.48 611.329 1235.28 589.589 1252.71C573.643 1265.51 554.1 1274.12 535.209 1282.46C516.342 1290.79 496.835 1299.4 480.467 1312.24C464.955 1324.41 450.699 1338.48 436.902 1352.1C424.481 1364.35 411.649 1377.03 398.081 1388.1C369.69 1411.28 331.147 1438.67 284.758 1444.95C244.537 1450.38 196.699 1446.37 159.918 1434.49C134.243 1426.2 72.0648 1402.17 49.3711 1358.35C46.969 1353.71 44.7116 1349.27 42.5509 1345.03C29.0916 1318.55 19.3381 1299.39 -0.048123 1281.12L-0.0481231 1282.8C18.6742 1300.73 28.2828 1319.62 41.4765 1345.59L41.5249 1345.59Z" fill="#0C2505" fill-opacity="0.05"/>
<path d="M49.6487 1271.45C59.3418 1286.01 64.11 1301.61 68.7212 1316.7C76.0121 1340.55 82.9046 1363.08 107.614 1381.01C160.582 1419.49 223.956 1433.58 290.866 1421.74C351.97 1410.93 392.963 1359.4 420.087 1325.28C422.091 1322.77 424.01 1320.35 425.881 1318.02C452.51 1284.91 476.411 1274.06 504.09 1261.48C519.77 1254.36 537.551 1246.29 557.951 1233.18C572.521 1223.81 588.455 1189.08 605.294 1129.95C613.007 1102.88 630.112 1092.66 651.78 1079.73C670.08 1068.81 690.806 1056.42 710.964 1030.73C729.047 1007.68 758.476 1002.14 792.553 995.73C805.964 993.208 819.846 990.6 833.981 986.737C837.711 985.716 841.465 984.719 845.243 983.71C878.62 974.804 913.131 965.589 936.404 943.531C972.364 909.442 976.372 842.997 976.42 816.018L976.42 812.18C976.476 778.743 984.85 748.774 1001.54 722.275L1005.22 716.419C1016.35 698.704 1025.21 679.783 1033.78 661.49C1060.37 604.727 1083.33 555.703 1158.73 581.537C1238.18 608.75 1294.52 607.963 1357.96 575.657L1357.96 574.279C1294.6 606.683 1238.44 607.532 1159.1 580.369C1082.69 554.189 1059.52 603.669 1032.67 660.961C1024.11 679.217 1015.28 698.101 1004.18 715.755L1000.5 721.611C983.691 748.315 975.257 778.505 975.201 812.18L975.201 816.018C975.141 842.837 971.181 908.876 935.559 942.633C912.504 964.482 878.149 973.659 844.917 982.529C841.139 983.538 837.373 984.547 833.643 985.556C819.556 989.406 805.698 992.014 792.312 994.536C757.993 1001 728.359 1006.57 709.999 1029.98C689.985 1055.49 669.343 1067.82 651.14 1078.68C629.243 1091.76 611.957 1102.08 604.111 1129.63C587.586 1187.63 571.386 1223.09 557.275 1232.15C536.947 1245.22 519.215 1253.28 503.559 1260.38C475.747 1273.01 451.713 1283.92 424.903 1317.26C423.044 1319.59 421.113 1322.01 419.109 1324.52C392.094 1358.49 351.269 1409.81 290.612 1420.54C224.016 1432.31 160.968 1418.31 108.266 1380.03C83.8944 1362.32 77.0621 1339.98 69.8315 1316.34C65.1963 1301.17 60.3921 1285.48 50.6024 1270.76C38.9055 1253.18 20.6056 1240.36 -0.0481244 1230.1L-0.0481245 1231.48C20.2313 1241.61 38.157 1254.24 49.6003 1271.46L49.6487 1271.45Z" fill="#0C2505" fill-opacity="0.05"/>
<path d="M95.3137 1319.17C114.205 1383.9 163.66 1415.72 242.304 1413.74C291.469 1412.49 321.14 1411.74 373.227 1359.46C388.581 1344.06 399.337 1328.11 409.73 1312.69C425.314 1289.57 440.04 1267.73 468.395 1249.88C477.376 1244.22 487.709 1239.65 498.634 1234.8C517.585 1226.4 537.189 1217.7 550.044 1202.77C563.105 1187.6 567.053 1172.66 571.241 1156.87C574.09 1146.13 577.023 1135.02 583.035 1123.24C614.842 1060.91 675.982 1010.17 755.193 980.377C770.994 974.435 784.417 973.968 798.637 973.476C821.367 972.689 847.139 971.791 889.725 948.453C926.711 928.179 949.429 912.494 952.99 865.597C954.27 848.891 947.993 833.378 941.921 818.357C936.948 806.055 931.817 793.346 930.634 779.789C925.251 718.413 956.261 676.266 989.083 631.645C1009.33 604.125 1030.26 575.67 1042.65 541.839C1048.73 525.268 1056.99 515.18 1067.94 511.01C1089.61 502.755 1119.12 519.104 1150.36 536.401C1177.84 551.619 1206.24 567.354 1233.28 569.347C1265.93 571.746 1313.11 549.626 1358 524.591L1358 523.189C1313.1 548.261 1265.87 570.503 1233.37 568.117C1206.58 566.148 1178.3 550.475 1150.93 535.319C1119.44 517.874 1089.7 501.401 1067.52 509.853C1056.23 514.159 1047.72 524.481 1041.53 541.408C1029.2 575.08 1008.31 603.461 988.117 630.92C957.686 672.28 928.812 711.524 928.812 765.961C928.812 770.501 929.017 775.151 929.427 779.912C930.634 793.654 935.801 806.46 940.81 818.849C947.099 834.411 953.026 849.112 951.783 865.524C948.27 911.792 925.77 927.318 889.146 947.395C846.813 970.597 821.198 971.483 798.589 972.27C784.272 972.762 770.753 973.23 754.77 979.246C675.27 1009.14 613.901 1060.1 581.96 1122.7C575.901 1134.59 572.931 1145.77 570.082 1156.57C565.942 1172.23 562.019 1187.03 549.151 1201.98C536.477 1216.7 517.006 1225.34 498.175 1233.69C487.202 1238.56 476.833 1243.15 467.78 1248.86C439.208 1266.86 424.408 1288.79 408.752 1312.02C398.383 1327.4 387.664 1343.29 372.394 1358.61C320.645 1410.55 291.143 1411.29 242.28 1412.53C164.252 1414.5 115.195 1382.98 96.4726 1318.85C85.2827 1280.5 61.4179 1249.99 23.5027 1225.56C16.0306 1220.74 8.14828 1216.27 0.000213347 1212.04L0.000213283 1213.51C44.0719 1236.62 80.3335 1267.88 95.3137 1319.19L95.3137 1319.17Z" fill="#0C2505" fill-opacity="0.05"/>
<path d="M0.000228882 430.577L0.000228735 433.935C0.120834 432.717 0.120834 431.598 0.000228882 430.577Z" fill="#0C2505" fill-opacity="0.05"/>
<path d="M133.314 1297.86C146.338 1340.16 174.669 1370.4 213.079 1383.01C253.155 1396.16 297.746 1388.22 332.378 1361.76C352.44 1346.43 371.332 1322.35 381.689 1298.92C390.271 1279.51 403.646 1259.58 416.598 1246.89C427.824 1235.92 440.282 1228.16 453.463 1219.95C468.963 1210.31 484.993 1200.32 499.322 1184.5C518.78 1163 524.683 1143.16 530.924 1122.14C537.877 1098.72 545.071 1074.53 571.736 1045.49C599.56 1015.2 710.723 958.048 782.063 943.261C871.245 924.783 899.117 895.245 888.591 830.375C885.923 813.915 882.604 799.3 879.393 785.152C868.179 735.673 859.306 696.601 895.64 636.861C932.264 576.654 972.642 519.202 1006.42 479.257C1044.3 434.464 1077.21 446.619 1115.33 460.705C1137.3 468.812 1162.19 478.002 1190.92 477.178C1242.91 475.677 1296.28 438.057 1328.88 403.34C1339.3 392.243 1348.85 379.965 1358 367.565L1358 365.522C1348.58 378.329 1338.75 391.05 1328.02 402.478C1295.58 437.023 1242.52 474.459 1190.89 475.948C1162.39 476.772 1137.61 467.619 1115.74 459.549C1077.2 445.315 1043.92 433.025 1005.5 478.457C971.676 518.452 931.262 575.952 894.614 636.221C858.015 696.392 866.923 735.697 878.21 785.448C881.408 799.571 884.728 814.173 887.396 830.585C897.789 894.593 870.158 923.762 781.822 942.068C748.216 949.031 703.504 965.7 659.167 987.795C618.138 1008.24 584.29 1030.03 570.855 1044.67C544.009 1073.9 536.766 1098.24 529.777 1121.79C523.572 1142.67 517.718 1162.39 498.44 1183.67C484.233 1199.37 468.275 1209.3 452.836 1218.91C439.594 1227.15 427.076 1234.94 415.765 1246.01C402.704 1258.79 389.221 1278.87 380.59 1298.41C370.318 1321.67 351.571 1345.56 331.654 1360.77C297.855 1386.61 252.552 1394.67 213.454 1381.84C175.43 1369.35 147.376 1339.41 134.472 1297.49C113.215 1228.5 60.1627 1201.35 0.0122935 1179.35L0.0122935 1180.66C59.7039 1202.53 112.286 1229.57 133.326 1297.86L133.314 1297.86Z" fill="#0C2505" fill-opacity="0.05"/>
<path d="M28.0654 488.226C55.6721 436.126 86.9604 377.062 95.0601 318.331C98.1262 296.114 103.401 243.669 86.236 236.694C76.6033 232.782 62.0336 244.653 42.925 271.989C33.1837 285.927 23.5388 300.198 14.2078 313.989C9.50009 320.952 4.76819 327.939 0.000102485 334.939L0.000102391 337.092C5.10618 329.613 10.176 322.133 15.2097 314.69C24.5286 300.899 34.1734 286.641 43.9148 272.715C62.3957 246.277 76.8809 234.221 85.8015 237.85C97.1604 242.463 100.178 272.493 93.8771 318.172C85.8136 376.681 54.5736 435.633 27.0152 487.647C23.5146 494.254 20.0501 500.786 16.6823 507.233C11.54 517.062 5.99945 526.732 0.0121786 536.29L0.0121785 538.566C6.40986 528.454 12.3005 518.218 17.7566 507.811C21.1245 501.364 24.589 494.844 28.0896 488.238L28.0654 488.226Z" fill="#0C2505" fill-opacity="0.05"/>
<path d="M64.979 1117.19C85.2584 1119.6 161.041 1142.78 173.872 1163.36C190.096 1189.39 194.816 1220.09 199.379 1249.77C205.921 1292.33 212.114 1332.52 255.111 1340.48C295.235 1347.91 311.881 1320.82 332.97 1286.53C340.176 1274.82 348.336 1261.53 358.162 1248.52C364.97 1239.5 374.941 1231.47 386.469 1222.17C402.173 1209.49 419.978 1195.14 434.536 1174.14C448.116 1154.54 450.47 1125.1 452.969 1093.94C456.578 1048.94 460.308 1002.41 497.221 978.286C531.213 956.068 574.03 945.66 611.8 936.47C629.581 932.14 646.384 928.056 659.916 923.196C704.084 907.339 731.859 885.957 744.848 857.797C766.998 809.757 744.039 746.376 717.447 672.981C712.678 659.83 707.754 646.223 702.937 632.297C700.402 624.977 697.409 617.522 694.499 610.301C679.398 572.742 663.791 533.916 696.829 482.714C705.219 469.71 733.755 458.171 763.969 445.967C783.838 437.934 804.383 429.63 822.007 419.948C878.354 389.008 903.607 361.377 950.89 294.083C953.256 290.713 955.501 287.342 957.662 284.069C967.186 269.725 975.406 257.337 987.827 255.405C998.45 253.757 1012.19 259.92 1029.8 274.252C1089.94 323.191 1135.19 340.746 1172.19 329.526C1205.16 319.525 1230.17 286.924 1248.64 229.841C1263.12 185.085 1275.49 164.098 1285.45 147.231C1295.68 129.898 1303.75 116.205 1309.46 85.5971C1314.95 56.1086 1305.9 25.636 1298.62 1.14217C1290.93 -24.7418 1284.85 -45.1758 1298.38 -52.9386C1314.53 -62.2022 1338.67 -47.0089 1358 -31.5696L1358 -37.7699C1338.08 -53.1969 1313.67 -67.3445 1296.01 -57.2197C1279.1 -47.5256 1285.67 -25.4184 1294 2.58151C1301.5 27.8134 1309.99 56.4039 1304.72 84.6991C1299.17 114.446 1291.28 127.806 1281.31 144.722C1271.24 161.797 1258.7 183.056 1244.05 228.328C1226.11 283.762 1202.15 315.329 1170.81 324.839C1135.46 335.567 1091.61 318.27 1032.82 270.438C1013.83 254.987 999.307 248.676 987.103 250.57C972.594 252.822 963.83 266.034 953.666 281.338C951.517 284.574 949.296 287.92 946.967 291.242C900.179 357.846 875.24 385.157 819.725 415.63C802.343 425.176 781.93 433.419 762.194 441.403C729.916 454.456 702.032 465.725 692.809 480.02C658.371 533.387 674.473 573.443 690.045 612.183C693.051 619.675 695.9 626.736 698.398 633.946C703.227 647.896 708.164 661.527 712.932 674.691C739.138 747.053 761.772 809.548 740.49 855.718C728.093 882.611 701.211 903.168 658.334 918.571C645.044 923.344 628.362 927.404 610.702 931.697C572.557 940.973 529.318 951.491 494.638 974.152C455.709 999.593 451.701 1049.5 448.176 1093.55C445.726 1124.03 443.42 1152.82 430.613 1171.31C416.466 1191.73 398.95 1205.85 383.499 1218.32C372.201 1227.42 361.53 1236.02 354.36 1245.53C344.389 1258.74 336.156 1272.13 328.902 1283.94C308.007 1317.93 292.906 1342.48 256.004 1335.65C216.387 1328.32 210.726 1291.57 204.183 1249.02C199.753 1220.25 194.731 1187.63 177.977 1160.73C163.528 1137.53 83.3391 1114.41 65.5704 1112.31C40.0158 1109.27 19.7124 1108.8 3.39228 1108.42C2.25752 1108.39 1.13496 1108.37 0.0364479 1108.35L0.0364477 1113.27C1.11079 1113.29 2.18501 1113.32 3.28352 1113.34C20.34 1113.73 39.6779 1114.19 65.0031 1117.19L64.979 1117.19Z" fill="#0C2505" fill-opacity="0.05"/>
<path d="M135.052 656.778C161.729 605.785 185.014 582.583 231.379 536.364C234.989 532.771 238.731 529.044 242.617 525.144C269.633 498.141 293.956 443.605 309.371 375.524C323.892 311.368 328.66 243.521 322.13 194.029C315.286 142.175 299.303 91.1206 282.392 37.0645C263.633 -22.8967 244.223 -84.9001 236.968 -150.914C233.914 -178.643 240.65 -206.865 247.772 -236.747C256.729 -274.367 265.999 -313.267 256.886 -355.451C250.44 -385.297 240.59 -420.739 221.541 -430.003C214.021 -433.657 205.523 -433.128 196.289 -428.428C179.546 -419.89 178.122 -408.782 176.625 -397.033C175.128 -385.358 173.583 -373.277 157.456 -360.065C136.102 -342.583 116.909 -333.307 101.482 -325.852C73.127 -312.147 54.3927 -303.093 49.3228 -260.207C46.4861 -236.267 50.1317 -215.661 53.3305 -197.478C55.4188 -185.656 57.2294 -175.457 56.9758 -166.12C56.2999 -139.719 49.7333 -121.696 43.9391 -105.789C40.692 -96.8702 37.6138 -88.4555 36.0083 -79.647C32.2421 -59.0039 33.232 -40.7104 34.1132 -24.5821C34.9582 -9.14283 35.6824 4.19283 32.2301 16.2613C25.1806 40.9274 14.2442 61.1646 4.59943 79.0152C3.04224 81.9062 1.49708 84.748 0.0123369 87.5529L0.0123364 98.1083C2.65592 92.8306 5.62547 87.3069 8.82432 81.3895C18.5899 63.3175 29.6711 42.8219 36.8655 17.6392C40.5351 4.77104 39.7987 -8.95826 38.9296 -24.8528C38.0726 -40.7104 37.0948 -58.684 40.7524 -78.7489C42.2854 -87.1391 45.279 -95.3693 48.4537 -104.079C54.3806 -120.343 61.1042 -138.772 61.7922 -165.984C62.0336 -175.826 60.1144 -186.763 58.0623 -198.339C54.9117 -216.177 51.3509 -236.402 54.091 -259.604C58.847 -299.784 75.662 -307.915 103.534 -321.386C119.19 -328.952 138.661 -338.363 160.462 -356.214C178.11 -370.657 179.86 -384.325 181.405 -396.381C182.854 -407.711 184 -416.655 198.449 -424.012C206.392 -428.059 213.261 -428.564 219.465 -425.55C236.63 -417.209 245.961 -383.131 252.178 -354.381C261.05 -313.304 251.924 -274.97 243.088 -237.903C235.87 -207.59 229.05 -178.951 232.188 -150.36C239.491 -83.8667 258.974 -21.6296 277.805 38.5654C294.656 92.4124 310.566 143.27 317.362 194.693C330.435 293.653 296.95 463.953 239.262 521.638C235.375 525.525 231.633 529.253 228.024 532.845C181.296 579.422 157.842 602.808 130.803 654.465C89.5437 733.31 58.6296 739.425 0.0123083 741.393L0.0123081 746.314C28.7898 745.342 52.7027 743.275 73.7426 731.49C95.7965 719.126 114.133 696.785 135.064 656.778L135.052 656.778Z" fill="#0C2505" fill-opacity="0.05"/>
<path d="M95.2652 1025.38C130.875 1024.17 171.241 1022.79 205.583 1035.86C238.066 1048.21 257.284 1079.31 272.723 1104.31C285.88 1125.6 296.261 1142.42 310.759 1142.69C321.876 1142.9 333.778 1132.96 348.227 1111.4C374.892 1071.61 373.022 1030.58 371.368 994.389C369.69 957.617 368.241 925.865 393.253 899.674C413.279 878.699 449.77 868.623 488.409 857.957C519.879 849.271 552.41 840.291 576.927 824.728C605.028 806.902 618.488 782.716 618.113 750.78C617.655 712.138 596.373 691.618 578.605 681.21C546.302 662.289 499.599 661.994 467.55 680.509C441.199 695.739 418.107 711.486 395.776 726.729C350.135 757.878 307.029 787.293 244.187 806.46C189.867 823.031 139.602 829.317 85.9825 826.217C74.3218 825.54 57.0601 822.6 37.0583 819.18C24.9026 817.101 12.3004 814.948 -0.0483462 813.127L-0.0483465 818.11C12.2521 819.931 24.6492 822.047 36.2496 824.027C56.3842 827.46 73.7786 830.437 85.6928 831.126C139.88 834.263 190.675 827.915 245.551 811.171C309.081 791.783 352.489 762.172 398.443 730.813C420.702 715.632 443.71 699.922 469.904 684.79C500.553 667.087 545.24 667.37 576.166 685.479C592.849 695.247 612.826 714.513 613.261 750.841C613.261 751.259 613.261 751.653 613.261 752.071C613.261 818.368 549.127 836.083 487.106 853.208C447.802 864.059 410.683 874.307 389.74 896.241C363.268 923.971 364.825 958.282 366.491 994.61C368.181 1031.76 369.931 1070.2 344.184 1108.62C330.917 1128.41 319.993 1137.94 310.795 1137.77C298.905 1137.55 288.644 1120.93 276.754 1101.69C260.929 1076.08 241.229 1044.19 207.225 1031.25C171.977 1017.84 131.116 1019.23 95.06 1020.46C55.5874 1021.8 20.5088 1022.98 -0.0483547 1005.88L-0.0483549 1012.14C21.9332 1027.86 56.529 1026.69 95.2169 1025.39L95.2652 1025.38Z" fill="#0C2505" fill-opacity="0.05"/>
<path d="M81.9509 1412.22C155.343 1450.9 236.063 1482.7 328.95 1453.74C373.565 1439.83 401.437 1412 430.951 1382.54C443.408 1370.1 456.288 1357.24 470.725 1345.21C492.622 1326.98 518.177 1316.68 542.886 1306.73C565.737 1297.53 589.36 1288.02 609.893 1272.27C631.983 1255.33 641.604 1236.26 651.792 1216.08C658.938 1201.9 666.337 1187.24 678.565 1172.71C694.041 1154.32 714.694 1141.24 736.555 1127.4C763.437 1110.37 791.249 1092.77 813.762 1063.13C834.681 1035.59 864.726 1028.2 896.521 1020.36C922.341 1014 949.031 1007.43 972.002 989.493C995.963 970.781 1014.94 939.299 1033.29 908.864C1053.41 875.475 1074.21 840.955 1101.57 823.092C1114.44 814.69 1126.9 814.628 1137.9 814.567C1151.05 814.493 1163.49 814.431 1170.63 798.734C1174.97 789.224 1170.33 779.788 1165.43 769.811C1159.38 757.509 1153.14 744.788 1163.39 730.542C1166.61 726.064 1175.8 730.456 1187.44 736.029C1198.59 741.368 1212.47 748.012 1227.23 749.439C1248.68 750.509 1257.7 741.27 1265.64 733.114C1271.7 726.901 1276.94 721.537 1286.96 720.565C1297.09 719.581 1307.59 722.521 1317.74 725.363C1330.85 729.029 1344.38 732.794 1358 728.709L1358 723.567C1357.87 723.616 1357.73 723.665 1357.6 723.702C1345 727.885 1332.38 724.354 1319.02 720.614C1308.45 717.65 1297.51 714.599 1286.5 715.669C1274.73 716.813 1268.37 723.346 1262.22 729.657C1254.62 737.444 1246.76 745.49 1227.57 744.542C1213.75 743.214 1200.29 736.767 1189.48 731.588C1175.83 725.056 1165.07 719.901 1159.49 727.651C1147.49 744.321 1154.72 759.034 1161.11 772.026C1165.66 781.302 1169.59 789.31 1166.25 796.679C1160.4 809.548 1150.94 809.597 1137.87 809.671C1126.22 809.732 1113.02 809.806 1098.97 818.971C1070.67 837.449 1049.57 872.449 1029.17 906.317C1011.05 936.384 992.318 967.472 969.069 985.618C946.906 1002.91 920.712 1009.37 895.387 1015.61C862.746 1023.64 831.905 1031.25 809.947 1060.16C787.966 1089.09 760.54 1106.46 734.02 1123.26C711.833 1137.3 690.878 1150.58 674.908 1169.54C662.306 1184.51 654.785 1199.43 647.506 1213.86C637.584 1233.53 628.217 1252.12 606.996 1268.37C586.982 1283.71 563.673 1293.1 541.124 1302.18C516.064 1312.27 490.16 1322.7 467.683 1341.42C453.065 1353.59 440.113 1366.53 427.583 1379.04C398.516 1408.08 371.042 1435.5 327.55 1449.06C236.316 1477.51 156.671 1446.08 84.1841 1407.88C36.9498 1382.99 30.2986 1368.09 18.2033 1341.05C13.5801 1330.71 8.36545 1319.07 0.0121813 1304.52L0.0121808 1314.49C5.91501 1325.46 10.0553 1334.71 13.8094 1343.1C26.3392 1371.13 33.2561 1386.57 81.963 1412.25L81.9509 1412.22Z" fill="#0C2505" fill-opacity="0.05"/>
<path d="M117.114 1617.7C143.996 1587.48 167.209 1561.4 213.647 1541.52C290.262 1508.72 326.475 1506.25 411.214 1514.77C443.094 1517.99 471.123 1510.99 496.895 1493.38C519.782 1477.75 538.963 1455.23 557.504 1433.47C580.874 1406.04 605.04 1377.67 637.548 1361.29C654.206 1352.9 671.154 1344.06 687.534 1335.51C744.594 1305.71 803.598 1274.91 865.088 1255.53C894.735 1246.19 925.492 1242.11 955.235 1238.17C992.318 1233.26 1030.66 1228.17 1066.75 1212.82C1089.88 1202.97 1111.53 1191.37 1132.48 1180.15C1166.81 1161.76 1199.24 1144.39 1237.89 1133.9C1271.61 1124.74 1304.9 1114.1 1337.1 1103.81L1350.37 1099.57C1353.01 1098.73 1355.55 1097.97 1358.01 1097.26L1358.01 1092.16C1355.09 1092.98 1352.07 1093.88 1348.92 1094.87L1335.66 1099.12C1303.5 1109.4 1270.25 1120.03 1236.65 1129.15C1197.48 1139.78 1163.29 1158.1 1130.23 1175.8C1109.38 1186.97 1087.82 1198.51 1064.89 1208.28C1029.4 1223.38 991.376 1228.43 954.62 1233.3C924.671 1237.27 893.709 1241.37 863.676 1250.84C801.787 1270.34 742.591 1301.26 685.337 1331.14C668.969 1339.69 652.045 1348.52 635.411 1356.9C602.035 1373.71 577.542 1402.47 553.859 1430.27C515.956 1474.77 480.153 1516.79 411.697 1509.9C326.017 1501.28 289.381 1503.79 211.776 1537.01C164.348 1557.3 140.798 1583.78 113.541 1614.42C100.673 1628.89 87.3707 1643.85 70.266 1659.71C50.8678 1677.71 25.5547 1698.64 9.49463e-05 1712.68L9.47038e-05 1718.23C26.7979 1703.93 53.3303 1682.06 73.5132 1663.34C90.787 1647.32 104.174 1632.27 117.114 1617.72L117.114 1617.7Z" fill="#0C2505" fill-opacity="0.05"/>
<path d="M60.7539 345.581C59.0519 337.867 54.8754 332.344 48.3208 329.158C37.4206 323.855 19.9053 338.667 -0.0119796 362.386L-0.01198 370.112C0.398439 369.607 0.820963 369.091 1.23138 368.586C30.4072 333.291 41.9593 331.507 46.2446 333.599C51.4593 336.133 54.6702 340.402 56.0463 346.651C60.9593 369.017 41.6454 415.076 0.000100141 480.697L9.97507e-05 489.616C37.0343 432.066 67.055 374.233 60.7539 345.581Z" fill="#0C2505" fill-opacity="0.05"/>
<path d="M107.662 1306.76C111.61 1316.89 116.088 1328.38 122.063 1341.87C135.112 1371.33 163.685 1392.15 202.517 1400.5C257.332 1412.28 321.031 1397.29 357.438 1364.04C384.248 1339.54 393.301 1316.79 401.292 1296.73C408.161 1279.47 414.1 1264.56 429.756 1251.48C440.222 1242.74 452.389 1237.96 465.257 1232.91C476.169 1228.62 487.444 1224.2 497.583 1217.12C525.794 1197.45 536.887 1173.23 548.632 1147.59C554.233 1135.36 560.027 1122.71 567.982 1109.61C606.344 1046.39 681.282 991.449 768.435 962.65C779.347 959.045 790.791 959.07 801.848 959.082C811.879 959.094 822.248 959.119 832.098 956.412C864.304 947.567 927.375 910.919 933.121 872.363C936.441 850.096 926.651 830.536 916.294 809.843C905.659 788.597 894.675 766.638 898.417 740.865C903.559 705.459 929.065 669.229 953.739 634.192C967.584 614.533 980.657 595.969 989.988 577.909C995.13 567.969 999.452 558.201 1003.64 548.765C1020.36 511.083 1033.56 481.312 1080.56 483.944C1103.34 485.224 1125.35 492.175 1146.66 498.904C1180.33 509.533 1215.14 520.531 1254.41 509.964C1294.71 499.113 1327.97 480.746 1358 452.192L1358 445.389C1327.68 475.198 1294.12 494.18 1253.17 505.203C1215.25 515.414 1181.11 504.637 1148.1 494.204C1126.51 487.389 1104.2 480.34 1080.84 479.024C1030.53 476.206 1016.04 508.881 999.247 546.735C995.094 556.109 990.785 565.804 985.715 575.621C976.553 593.373 963.564 611.802 949.815 631.325C924.804 666.842 898.948 703.564 893.636 740.139C889.665 767.462 901.012 790.147 911.985 812.082C921.979 832.061 931.419 850.921 928.341 871.625C922.993 907.56 861.129 943.347 830.843 951.664C821.608 954.198 812.012 954.186 801.86 954.161C790.416 954.137 778.587 954.124 766.95 957.963C678.747 987.119 602.831 1042.84 563.878 1107.02C555.778 1120.36 549.924 1133.15 544.262 1145.5C532.312 1171.6 521.991 1194.14 494.867 1213.05C485.198 1219.79 474.19 1224.12 463.531 1228.3C450.868 1233.27 437.771 1238.42 426.702 1247.67C410.092 1261.55 403.646 1277.74 396.826 1294.87C389.028 1314.44 380.204 1336.63 354.227 1360.36C318.895 1392.64 256.934 1407.15 203.531 1395.68C166.243 1387.66 138.878 1367.82 126.481 1339.84C120.554 1326.46 116.1 1315.02 112.165 1304.94C96.0381 1263.56 88.6745 1244.67 26.3514 1210.39C17.7568 1205.67 8.957 1201.26 0.0243812 1197.07L0.024381 1202.49C8.17233 1206.36 16.2118 1210.4 24.0579 1214.72C84.8481 1248.15 91.5233 1265.31 107.686 1306.76L107.662 1306.76Z" fill="#0C2505" fill-opacity="0.05"/>
</g>
<defs>
<clipPath id="clip0_71_1458">
<rect width="1233" height="1358" fill="white" transform="translate(1358) rotate(90)"/>
</clipPath>
</defs>
</svg>
